<?xml version="1.0" encoding="utf-8"?>
<!-- Generator: Adobe Illustrator 30.1.0, SVG Export Plug-In . SVG Version: 9.03 Build 0)  -->
<svg version="1.1" xmlns="http://www.w3.org/2000/svg" xmlns:xlink="http://www.w3.org/1999/xlink" x="0px" y="0px"
	 viewBox="0 0 1456.36 590.75" style="enable-background:new 0 0 1456.36 590.75;" xml:space="preserve">
<style type="text/css">
	.st0{fill:#FF8B00;}
</style>
<g id="text">
	<path d="M708.81,508.75c-2.6,1.3-7.79,2.6-14.44,2.6c-15.42,0-27.02-9.74-27.02-27.67s11.6-28.72,28.56-28.72
		c6.81,0,11.11,1.46,12.98,2.43l-1.7,5.76c-2.68-1.3-6.49-2.27-11.03-2.27c-12.82,0-21.34,8.19-21.34,22.55
		c0,13.39,7.71,21.99,21.01,21.99c4.3,0,8.68-0.89,11.52-2.27L708.81,508.75L708.81,508.75z"/>
	<path d="M749.3,499.83c0,4.06,0.08,7.63,0.32,10.71h-6.33l-0.41-6.41h-0.16c-1.87,3.16-6,7.3-12.98,7.3
		c-6.17,0-13.55-3.41-13.55-17.2v-22.96h7.14v21.74c0,7.46,2.27,12.49,8.76,12.49c4.79,0,8.11-3.33,9.41-6.49
		c0.41-1.05,0.65-2.35,0.65-3.65v-24.1h7.14v28.56L749.3,499.83z"/>
	<path d="M760.17,503.23c2.11,1.38,5.84,2.84,9.41,2.84c5.19,0,7.63-2.6,7.63-5.84c0-3.41-2.03-5.27-7.3-7.22
		c-7.06-2.51-10.38-6.41-10.38-11.12c0-6.33,5.11-11.52,13.55-11.52c3.98,0,7.46,1.14,9.65,2.43l-1.78,5.19
		c-1.54-0.97-4.38-2.27-8.03-2.27c-4.22,0-6.57,2.43-6.57,5.36c0,3.25,2.35,4.71,7.46,6.65c6.81,2.6,10.3,6,10.3,11.84
		c0,6.9-5.35,11.76-14.68,11.76c-4.3,0-8.28-1.05-11.03-2.68l1.79-5.44L760.17,503.23z"/>
	<path d="M801.87,459.99v11.28h10.22v5.44h-10.22v21.18c0,4.87,1.38,7.63,5.35,7.63c1.87,0,3.25-0.24,4.14-0.49l0.33,5.35
		c-1.38,0.57-3.57,0.97-6.33,0.97c-3.33,0-6-1.05-7.71-3c-2.03-2.11-2.76-5.6-2.76-10.22v-21.42h-6.08v-5.44h6.08v-9.41
		L801.87,459.99L801.87,459.99z"/>
	<path d="M855.17,490.58c0,14.52-10.06,20.85-19.55,20.85c-10.63,0-18.82-7.79-18.82-20.2c0-13.14,8.6-20.85,19.47-20.85
		S855.17,478.57,855.17,490.58z M824.02,490.98c0,8.6,4.95,15.09,11.93,15.09s11.93-6.41,11.93-15.25c0-6.65-3.33-15.09-11.76-15.09
		S824.03,483.52,824.02,490.98L824.02,490.98z"/>
	<path d="M864.18,481.89c0-4.06-0.08-7.38-0.32-10.63h6.25l0.32,6.33h0.24c2.19-3.73,5.84-7.22,12.33-7.22
		c5.35,0,9.41,3.25,11.12,7.87h0.16c1.22-2.19,2.76-3.89,4.38-5.11c2.35-1.79,4.95-2.76,8.68-2.76c5.19,0,12.9,3.41,12.9,17.04
		v23.12h-6.98V488.3c0-7.55-2.76-12.09-8.52-12.09c-4.06,0-7.22,3-8.44,6.49c-0.32,0.97-0.57,2.27-0.57,3.57v24.26h-6.98V487
		c0-6.25-2.76-10.79-8.19-10.79c-4.46,0-7.71,3.57-8.84,7.14c-0.41,1.05-0.57,2.27-0.57,3.49v23.69h-6.98v-28.64H864.18z"/>
	<path d="M987.49,508.75c-2.6,1.3-7.79,2.6-14.44,2.6c-15.42,0-27.02-9.74-27.02-27.67s11.6-28.72,28.56-28.72
		c6.81,0,11.11,1.46,12.98,2.43l-1.7,5.76c-2.68-1.3-6.49-2.27-11.03-2.27c-12.82,0-21.34,8.19-21.34,22.55
		c0,13.39,7.71,21.99,21.01,21.99c4.3,0,8.68-0.89,11.52-2.27L987.49,508.75L987.49,508.75z"/>
	<path d="M1017.27,510.53l-0.57-4.95h-0.24c-2.19,3.08-6.41,5.84-12.01,5.84c-7.95,0-12.01-5.6-12.01-11.28
		c0-9.49,8.44-14.68,23.61-14.6v-0.81c0-3.25-0.89-9.09-8.92-9.09c-3.65,0-7.46,1.14-10.22,2.92l-1.62-4.71
		c3.25-2.11,7.95-3.49,12.9-3.49c12.01,0,14.93,8.19,14.93,16.06v14.68c0,3.41,0.16,6.73,0.65,9.41h-6.49L1017.27,510.53z
		 M1016.21,490.5c-7.79-0.16-16.63,1.22-16.63,8.84c0,4.62,3.08,6.82,6.73,6.82c5.11,0,8.36-3.25,9.49-6.57
		c0.24-0.73,0.41-1.54,0.41-2.27v-6.81L1016.21,490.5z"/>
	<path d="M1042.91,459.99v11.28h10.22v5.44h-10.22v21.18c0,4.87,1.38,7.63,5.35,7.63c1.87,0,3.25-0.24,4.14-0.49l0.32,5.35
		c-1.38,0.57-3.57,0.97-6.33,0.97c-3.33,0-6-1.05-7.71-3c-2.03-2.11-2.76-5.6-2.76-10.22v-21.42h-6.08v-5.44h6.08v-9.41l6.98-1.87
		H1042.91z"/>
	<path d="M1106.92,484.9h-21.26v19.71h23.69v5.92h-30.75v-54.68h29.53v5.92h-22.47v17.28h21.26V484.9L1106.92,484.9z"/>
	<path d="M1118.27,481.89c0-4.06-0.08-7.38-0.32-10.63h6.33l0.41,6.49h0.16c1.95-3.73,6.49-7.38,12.98-7.38
		c5.44,0,13.87,3.25,13.87,16.71v23.45h-7.14v-22.64c0-6.33-2.35-11.6-9.09-11.6c-4.71,0-8.36,3.33-9.57,7.3
		c-0.32,0.89-0.49,2.11-0.49,3.33v23.61h-7.14L1118.27,481.89L1118.27,481.89z"/>
	<path d="M1191.29,509.07c-1.87,0.97-6,2.27-11.28,2.27c-11.85,0-19.55-8.03-19.55-20.04s8.28-20.85,21.09-20.85
		c4.22,0,7.95,1.05,9.9,2.03l-1.62,5.52c-1.7-0.97-4.38-1.87-8.28-1.87c-9.01,0-13.87,6.65-13.87,14.85
		c0,9.09,5.84,14.68,13.63,14.68c4.06,0,6.73-1.05,8.76-1.95L1191.29,509.07L1191.29,509.07z"/>
	<path d="M1199.65,452.93h7.14v57.6h-7.14V452.93z"/>
	<path d="M1254.33,490.58c0,14.52-10.06,20.85-19.55,20.85c-10.63,0-18.82-7.79-18.82-20.2c0-13.14,8.6-20.85,19.47-20.85
		S1254.33,478.57,1254.33,490.58z M1223.18,490.98c0,8.6,4.95,15.09,11.93,15.09s11.93-6.41,11.93-15.25
		c0-6.65-3.33-15.09-11.76-15.09s-12.09,7.79-12.09,15.25H1223.18z"/>
	<path d="M1262.36,503.23c2.11,1.38,5.84,2.84,9.41,2.84c5.19,0,7.63-2.6,7.63-5.84c0-3.41-2.03-5.27-7.3-7.22
		c-7.06-2.51-10.38-6.41-10.38-11.12c0-6.33,5.11-11.52,13.55-11.52c3.98,0,7.46,1.14,9.66,2.43l-1.79,5.19
		c-1.54-0.97-4.38-2.27-8.03-2.27c-4.22,0-6.57,2.43-6.57,5.36c0,3.25,2.35,4.71,7.46,6.65c6.82,2.6,10.3,6,10.3,11.84
		c0,6.9-5.35,11.76-14.68,11.76c-4.3,0-8.28-1.05-11.03-2.68l1.79-5.44L1262.36,503.23z"/>
	<path d="M1328.32,499.83c0,4.06,0.08,7.63,0.32,10.71h-6.33l-0.41-6.41h-0.16c-1.87,3.16-6,7.3-12.98,7.3
		c-6.17,0-13.55-3.41-13.55-17.2v-22.96h7.14v21.74c0,7.46,2.27,12.49,8.76,12.49c4.79,0,8.11-3.33,9.41-6.49
		c0.41-1.05,0.65-2.35,0.65-3.65v-24.1h7.14v28.56L1328.32,499.83z"/>
	<path d="M1340.16,483.52c0-4.62-0.08-8.6-0.32-12.25h6.25l0.24,7.71h0.33c1.78-5.27,6.08-8.6,10.87-8.6c0.81,0,1.38,0.08,2.03,0.24
		v6.73c-0.73-0.16-1.46-0.24-2.43-0.24c-5.03,0-8.6,3.81-9.57,9.17c-0.16,0.97-0.33,2.11-0.33,3.33v20.93h-7.06v-27.02H1340.16z"/>
	<path d="M1369.86,492.2c0.16,9.66,6.33,13.63,13.47,13.63c5.11,0,8.19-0.89,10.87-2.03l1.22,5.11c-2.51,1.14-6.81,2.43-13.06,2.43
		c-12.09,0-19.31-7.95-19.31-19.8s6.98-21.18,18.42-21.18c12.82,0,16.23,11.28,16.23,18.5c0,1.46-0.16,2.6-0.24,3.33h-27.58
		L1369.86,492.2z M1390.79,487.09c0.08-4.54-1.87-11.6-9.9-11.6c-7.22,0-10.38,6.65-10.95,11.6H1390.79z"/>
	<path d="M1405.55,503.23c2.11,1.38,5.84,2.84,9.41,2.84c5.19,0,7.63-2.6,7.63-5.84c0-3.41-2.03-5.27-7.3-7.22
		c-7.06-2.51-10.38-6.41-10.38-11.12c0-6.33,5.11-11.52,13.55-11.52c3.97,0,7.46,1.14,9.65,2.43l-1.79,5.19
		c-1.54-0.97-4.38-2.27-8.03-2.27c-4.22,0-6.57,2.43-6.57,5.36c0,3.25,2.35,4.71,7.46,6.65c6.82,2.6,10.3,6,10.3,11.84
		c0,6.9-5.35,11.76-14.68,11.76c-4.3,0-8.28-1.05-11.03-2.68l1.79-5.44L1405.55,503.23z"/>
</g>
<g id="shado">
	<path d="M40.77,558.57C9.02,529.41,0.2,468.28,4.58,420.75c7.75-84.19,37.4-195.53,96.73-216.43c12.46-1.05,25.61-0.17,34.19,19.43
		c10.07,33.48,3.27,66.59-8.41,91.66c-3.94,1.88-11.19,4.22-13.28-4.88c0.73-28.26,15.54-61.13-4.52-87.86
		c-26.47-3.06-41.3,35.84-55.46,67.29c-21.69,65.33-43.91,142.13-14.21,220.5c6.3,9.19,9.16,26.9,19.65,26.79
		c12.66,15.69,30.58,14.57,45.25,11.21c19.94-4.75,33.22-27.36,53.02-30.09c1.92,1.75,3.29,5.58,2.42,8.38
		c-12.87,22.55-37.65,16.58-51.88,35.29c-6.7,5-14.21,7.89-22.02,8.96c-2.37,0.33-4.76,0.49-7.16,0.49
		C65.76,571.49,52.25,566.74,40.77,558.57L40.77,558.57z"/>
	<path d="M151.74,462.42c-15.27-42.44-16.74-84.75-15.34-127.11c1.54-2.33,3.38-4.75,5.43-6.44l5.65,7.12
		c10.28,19.36,17.92,40.58,26.51,60.72l3.53,1.08c-4.48,6.42,0.95,14.94,3.67,20.81c2.57,14.99,14.69,25.52,18.21,39.43
		c-1.84-2.92-5.07-0.88-7.42-3.39c-0.59,0.18-1.54,0.19-1.69,0.77c-10.65-14.17-16.81-31.56-23.05-49.19l-1.47-0.63
		c-5.65,3.56-12.12,7.64-15.94,13.05c1.9,14.92,9.69,31.29,11.31,45.24c-0.52,0.07-1.02,0.1-1.52,0.1c-2.76,0-5.27-0.99-7.88-1.57
		L151.74,462.42z M149.54,409.11c5.58-2.74,9.62-6.35,14.39-9.65c-5.95-12.38-9.84-26.44-16.59-38.31
		C146.24,376.71,146.02,393.07,149.54,409.11z"/>
	<path d="M240.91,416.45c-13.41-26.92-19.64-54.26-28.11-81.65l-2.53-0.66c-4.46,1.51-8.84,3.93-13.28,6.37
		c-6.66,3.67-13.46,7.4-20.83,8.21c-1.75,0.98-3.55,1.71-5.37,2.13l-0.42-0.66l-0.5-0.8l-0.52-0.83l-0.54-0.86l-0.56-0.91
		l-0.58-0.95l-0.57-0.96l-0.19-0.32c2.86-1.37,12.15-5.83,42.41-20.33c-1.65-18.41-8.86-36.07-8.28-54.44l8.37-12.8l2.52,0.66
		c-0.48,20.16,3.69,39.98,8.6,59.82c8.05,0.64,15.82-5.6,23.91-6.46c1.25,0.45,2.56,0.04,3.83-0.38c1.9-0.62,3.68-1.24,4.97,1.03
		c-3.04,7.98-10.08,10.19-17.38,12.52c-3.81,1.21-7.69,2.46-11.11,4.59c5.89,28.98,14.14,59.06,27.08,87.31
		c-0.09,1.11-0.67,1.7-1.47,2.07c-1.15,0.54-2.75,0.65-3.99,1.24l-5.46-2.97V416.45z"/>
	<path d="M291.5,366.88c-3.96-30.66-9.13-62.06-10.78-88.8c2.54-3.71,5.73-6.19,9.06-8.03c9.39,40.34,16.34,81.96,18.12,122.09
		c-0.35,2.14-1.71,2.9-3.33,3.29c-0.58,0.14-1.19,0.23-1.8,0.33c-1.1,0.17-2.2,0.33-3.08,0.77c-6.99-7.59-5.43-19.65-8.18-29.64
		L291.5,366.88z"/>
	<path d="M272.6,240.18c-5.18-0.12-9.44-4.94-12.9-7.88c0.53-6.32-4.2-11.7-5.77-18.2c-0.02-7.21-2.37-16.95,5.69-21.99
		c9.85-6.16,24.73-11.46,34.44-1.09c9.72,10.37,0.87,22.12,2.97,33.65c-3.2,7.7-10.08,12.98-17.69,14.82
		c-1.94,0.47-3.94,0.71-5.93,0.71c-0.27,0-0.54,0-0.81-0.01V240.18z M266.15,197.76c-3.42,1.51-4.34,4.82-5.98,7.97
		c0.48,10.54,7.13,19.59,15.52,24.43c4.29,0.68,11.67-0.07,14.21-3.77l-5.98-1.99c-0.21-3.73,2.81-6.86,3.33-10.43
		c1.42-5.5-0.54-12.24-5.06-15.27c-2.54-1.28-5.14-1.69-7.81-1.69S268.99,197.41,266.15,197.76L266.15,197.76z"/>
	<path d="M274.31,220.18c-1.86-0.58-1.02-4.22-3.2-4.73c-1.87,0.8-4.07,1.67-5.02-0.85c-0.8-1.87-0.21-3.73,1.41-4.12
		s3.81,0.11,4.87-1.18c0.67-2.91,1.38-9.95,5.88-5.54c0.8,1.87-0.84,3.64,0.6,5.35c0.59,0.19,1.37,0.12,2.16,0.05
		c1.68-0.15,3.41-0.29,3.5,2.03c-0.65,1.05-1.89,1.22-3.2,1.4c-1.2,0.16-2.45,0.34-3.38,1.22c-1.25,2.05-0.08,5.97-2.14,6.47
		c-0.14,0.04-0.3,0.06-0.47,0.06C275.04,220.34,274.7,220.29,274.31,220.18L274.31,220.18z"/>
	<path d="M356.86,370.61c-15.12-12.88-16.98-37.9-15.38-56.96c2.61-26.94,19.22-55,41.28-64.22c9.23-4.21,21.27-7.44,31.39-4.7
		l0.87,1.57c-17.08,11.28-42.43,10.49-49.85,36.7c-8.85,20.33-9.26,45.98-1.87,66.92c5.9,17.09,23.12,25.33,37.91,25.12
		c13.49-5.1,24.98-15.32,33.38-28.52c2.23-16.79,17.39-29.85,10.21-49.13c-1.64-7.54-6.22-14.36-10.71-20.52
		c-9.79-2.79-18.77-15.11-29.1-6.37c-1.28,0.5-2.69,0-3.52-1.23l0.53-3.77c12.61-9.36,28.53-6.01,40.86,3.52
		c5.11,5.74,8.94,11.99,11.58,19.4c2.03,26.35-7.56,48.79-18.14,71.36c-8.62,14.24-19.47,26.74-34.05,28.61
		c-2.85,0.36-5.75,0.57-8.67,0.57c-13.34,0-26.91-4.39-36.71-18.33L356.86,370.61z"/>
	<path d="M384,332.79c0.07-4.72,1.5-9.29,1.2-14.3c-2.74-3.02-10.89,1.73-8.55-6.32c0.95-1.91,2.84-2.06,4.74-2.21
		c1.3-0.1,2.61-0.2,3.62-0.88c3.47-4.49,1.7-13.02,8.37-13.53c1.83,1.12,4.97-0.64,4.73,2.76c-3.34,2.79-2.75,7.42-1.95,11.03
		c1.95,2.11,4.89,1.39,6.85,3.5c-14.76-2.15-5.21,17.17-12.9,22.87c-0.52,0.23-1,0.37-1.44,0.42c-0.16,0.02-0.32,0.03-0.47,0.03
		c-1.98,0-3.18-1.68-4.18-3.38L384,332.79z"/>
	<path d="M480.39,366.82c-6.22-4.74-16.49-6.23-18.31-15.72c-3.26-9.36-1.26-19.19,1.84-27.68c5.88-9.7,14.59-14.83,23.9-18.57
		c7.44,2.22,13.66,6.96,18.62,13.76c-0.44,5.83,3.39,10.8-3.58,13.83c-3.53-1.61,0.44-5.83-2.65-7.96
		c-2.3-4.14-3.69-8.84-9.18-10.76c-9.79-1.53-13.06,10.35-16.32,16.92c-3.36,10.92,4.38,21.8,14.78,24.72
		c18.1,2.71,30.47-10,42.4-22.17c26.65-46.81-9.96-94.17-30.35-132.87c-20.22-26.17-42.36-52.16-49.66-84.79
		c-13.09-16.68-6.03-40-6.8-59.23c3.1-19.1,16.55-41.07,36.8-46.76c19.02-8.47,44.13-8.33,61.53,2.64c1.7,2.74,4.74,4.4,5,7.27
		c-10.69,3.22-21.53,3-32.86,2.83c-8.1-0.12-16.46-0.22-25.19,0.97c-10.79-1.92-11.15,10.18-14.98,15.83
		c-22.49,76.84,37.45,131.27,63.79,193.07c11,25.55,25.08,58.55,13.15,86.65c-14.24,20.23-30.72,46.64-57.29,49.04
		c-17.71,1.6-17.71,1.6,0,0c-1.29,0.12-2.6,0.18-3.93,0.18c-3.4,0-6.96-0.38-10.69-1.22L480.39,366.82z"/>
	<path d="M623.84,336.88c-15.97-1.44-32.49-7.96-40.49-27.13c-11.99-15.84-8.41-40.67-2.73-58.94
		c8.36-25.75,30.63-49.56,54.16-53.81c9.92-2.13,22.38-2.68,31.67,2.19l0.51,1.72c-19.11,7.33-43.7,1.09-56.59,25.08
		c-13.02,17.95-18.96,42.9-16.26,64.94c2.07,17.96,17.11,29.71,31.6,32.7c14.27-2.07,27.69-9.57,38.75-20.65
		c5.8-15.91,23.42-25.39,20.56-45.77c0.02-7.71-2.98-15.36-6.04-22.35c-8.95-4.83-15.08-18.8-27.05-12.5
		c-1.36,0.22-2.63-0.57-3.18-1.96l1.33-3.57c14.33-6.42,29.16,0.28,39.14,12.25c3.75,6.71,6.15,13.64,7.12,21.44
		c-3.7,26.16-17.9,46.01-33.1,65.77C652.46,327.61,640.06,337,626.47,337c-0.88,0-1.76-0.04-2.64-0.12H623.84z"/>
	<path d="M621.84,282.95c-2.27-0.21-3.16-2.25-3.82-4.27c1.08-4.6,3.47-8.74,4.25-13.7c-2.03-3.54-11.01-0.66-6.99-8.01
		c1.34-1.67,3.22-1.4,5.1-1.14c1.3,0.18,2.59,0.37,3.73-0.07c4.35-3.63,4.47-12.34,11.09-11.41c1.54,1.48,4.99,0.45,4.02,3.72
		c-3.87,2-4.29,6.66-4.29,10.35c1.45,2.48,4.48,2.41,5.93,4.9c-13.95-5.28-8.79,15.64-17.53,19.55c-0.4,0.09-0.78,0.12-1.12,0.12
		c-0.13,0-0.26,0-0.38-0.02L621.84,282.95z"/>
	<path d="M786.75,331.99c-6.36-0.96-12.61-1.91-18.29-1.54l-49.85-3.27c-0.68-2.13-2.97-4.85-0.59-7.19
		c6.68-6.07,1.96-19.3,8.92-24.99c12.85-26.41,16.35-53.59,26.76-81.73c3.12-4.93,8.41-8.5,13.74-12.42l1.91,2.99
		c-11.81,35.03-20.74,71.17-34.71,104.84l-0.86,5.61c29.76,4.24,57.7,2.79,88.36,7.84c0.51-0.55,1.04-0.45,1.63-0.33
		c0.35,0.07,0.72,0.14,1.12,0.08c1.8,3.66-4.09,6.81-7.04,8.38c-4.57,2.51-9.66,3.35-14.97,3.35s-10.72-0.82-16.11-1.63
		L786.75,331.99z"/>
	<path d="M879.45,329.02c-6.53-0.59-14.94-2.23-17.86-9.53c-7.07-27.94,0.64-52.61,7.97-77.55c2.19-5.11,6.19-9.51,11.29-11.39
		l1.54,1.1c-6.61,25.16-10.14,52.51-1.87,79.57c4.84,4.61,11.49,3.83,17.19,1.51c5.38-4.29,9.82-10.12,13.21-16.11
		c-3.65-17.68,1.54-33.12,7.78-48.39c3.46-3.63,6.14-7.81,10.76-8.58l1.92,1.37c-3.1,21.87-18.88,48.9,1.96,68.09l8.46,1.97
		c-0.49,3.13-3.23,6.98-6.03,8.46c-9.61,1.28-17.04-8.65-22.92-15.46c-8.56,8.83-14.49,22.63-27.31,24.78
		c-1.11,0.19-2.28,0.28-3.51,0.28c-0.84,0-1.7-0.05-2.59-0.14L879.45,329.02z"/>
	<path d="M1397.6,370.46c-3.18,0-6.53-0.51-10.05-1.63c-4.01-3.67-11.03-5.34-11.69-12.02c-1.67-6.68,0.33-13.36,3-19.04
		c4.68-6.34,11.02-9.35,17.7-11.36c5.01,2,9.02,5.68,12.03,10.69c-0.67,4.01,1.67,7.69-3.34,9.35c-2.34-1.33,0.67-4.01-1.34-5.68
		c-1.34-3.01-2-6.35-5.68-8.02c-6.68-1.67-9.69,6.35-12.36,10.69c-3.01,7.35,1.67,15.36,8.68,18.04
		c12.36,3.01,21.71-5.01,30.73-12.69c21.38-30.73-1-65.8-12.7-93.86c-12.36-19.38-26.06-38.75-29.06-61.8
		c-8.02-12.36-1.67-28.06-1-41.42c3.34-13.03,14.03-27.39,28.39-30.06c13.7-4.67,31.07-3,42.42,5.68c1,2,3.01,3.34,3.01,5.34
		c-7.6,1.56-15.09,0.73-22.93-0.1c-5.59-0.59-11.37-1.18-17.49-0.9c-7.35-2-8.35,6.35-11.36,10.02
		c-20.38,51.78,17.7,93.2,32.07,137.63c6.01,18.37,13.69,42.09,3.68,60.8c-11.12,13.11-24.18,30.36-42.72,30.36l0,0L1397.6,370.46z"
		/>
	<path d="M1086.74,349.77c-1.11-0.09-2.21-0.19-3.17,0.02c-5.01-9.02-0.67-20.38-1-30.73c3.34-30.73,5.68-62.47,10.36-88.85
		c3.34-3.01,7.01-4.68,10.69-5.68c-0.33,41.42-3.34,83.51-11.02,122.93c-0.84,2-2.34,2.42-4.01,2.42c-0.6,0-1.22-0.05-1.83-0.11
		H1086.74z"/>
	<path d="M1008.4,325.74l-3.67-5.01c-0.67-30.06,5.34-57.46,9.35-85.85l-2-1.67c-4.68-0.53-9.67-0.22-14.74,0.11
		c-7.59,0.48-15.33,0.96-22.34-1.44c-4.68,0.33-9.02-0.67-12.36-3.68l4.34-4.01l48.44-0.34c6.34-17.37,7.35-36.41,15.7-52.78
		l13.03-8.02l2,1.67c-9.02,18.04-13.69,37.75-17.7,57.79c7.02,4.01,16.7,1.67,24.38,4.34c2.34,2.34,7.35,0,7.69,4.34
		c-6.15,5.93-13.46,4.93-21.06,3.92c-3.96-0.52-8.01-1.04-12.01-0.58c-7.01,28.73-12.36,59.46-12.69,90.52
		c-0.55,0.97-1.33,1.25-2.21,1.25c-1.27,0-2.76-0.58-4.13-0.58L1008.4,325.74z"/>
	<path d="M1146.7,292.67c-13.36-14.7-12.02-39.75-8.02-58.45c6.01-26.39,26.05-52.11,49.1-58.46c9.69-3.01,22.05-4.68,31.73-0.67
		l0.67,1.67c-18.37,9.02-43.43,5.01-54.12,30.06c-11.36,19.04-15.03,44.43-10.35,66.14c3.67,17.7,19.71,28.06,34.41,29.73
		c14.03-3.34,26.72-12.02,36.75-24.05c4.34-16.37,21.04-27.39,16.37-47.44c-0.67-7.68-4.34-15.03-8.02-21.71
		c-9.35-4.01-16.7-17.37-28.06-10.02c-1.33,0.34-2.67-0.33-3.34-1.67l1-3.67c13.69-7.68,29.06-2.34,40.08,8.68
		c4.34,6.35,7.35,13.03,9.02,20.71c-1.34,26.39-13.69,47.43-27.06,68.48c-10.36,13.03-22.71,24.05-37.41,24.05
		c-16.03,0-33.07-5.01-42.76-23.38L1146.7,292.67z"/>
	<path d="M1336.77,300.35c-0.67-2.67,0-7.35-0.34-10.02c-1.33-6.68,0-13.36,0.67-19.71c-4.68-8.02-10.35-15.7-13.03-24.72
		c-5.01-4.34-6.01-10.36-9.02-15.7c-6.68-12.03-12.03-24.38-20.04-35.41l-1.34,1c-2,30.06-1.67,61.8-4.67,91.19
		c-1.67,3-5.35,3.67-8.69,4.01l-5.34-3.34l-1.34-7.35l2.34-74.16c2.34-13.36-1.67-29.4,7.35-40.09c3.34-1.33,7.01-3,11.02-2.34
		c1.34,1.67-0.67,4.01,0.67,6.01c15.7,25.72,28.39,53.11,42.09,79.83c2.34-3.34,0.67-8.68,2-12.69c3.34-21.04,2.67-44.09,6.68-64.81
		c3.68-2.67,3.34-9.69,9.35-8.35l0.67,1.67c-3.67,20.38-1.33,42.76-5.68,62.46c-0.67,23.05-4.67,45.1-5.01,68.48
		c-1.77,2.07-4.32,4.13-7.18,4.13c-0.38,0-0.77-0.04-1.16-0.12V300.35z"/>
	<path d="M1178.43,258.6c0.67-4.68,2.67-9.02,3.01-14.03c-2.34-3.34-11.03,0.33-7.69-7.35c1.19-1.78,3.08-1.69,4.98-1.59
		c1.3,0.07,2.62,0.13,3.71-0.41c4.01-4.01,3.34-12.69,10.02-12.36c1.67,1.34,5.01,0,4.34,3.34c-3.67,2.34-3.67,7.01-3.34,10.69
		c1.67,2.34,4.68,2,6.35,4.34c-14.37-4.01-7.35,16.37-15.7,21.04c-0.55,0.16-1.04,0.24-1.48,0.24
		C1180.34,262.51,1179.27,260.55,1178.43,258.6L1178.43,258.6z"/>
	<path d="M1093.91,191.45c-5.01-1.34-8.02-7.02-10.69-10.69c2.01-6.01-1.33-12.36-1.33-19.04c1.67-7.01,1.67-17.03,10.69-20.04
		c11.02-3.67,26.72-5.34,33.74,7.02c7.01,12.36-4.34,21.71-5.01,33.4c-4.92,6.73-12.85,10.26-20.68,10.26c-2.27,0-4.54-0.3-6.72-0.9
		V191.45z M1089.91,155.04c-2,10.36,2.34,20.71,9.35,27.39c4.01,1.67,11.36,2.67,14.7-0.34l-5.35-3.34
		c0.67-3.67,4.34-6.01,5.68-9.35c2.67-5.01,2.34-12.02-1.33-16.03c-4.34-3.67-9.69-4.01-15.37-4.67
		C1093.92,149.37,1092.25,152.37,1089.91,155.04z"/>
	<path d="M1100.27,172.42c-1.67-1,0-4.34-2.01-5.35c-2,0.34-4.34,0.67-4.67-2c-0.34-2,0.67-3.67,2.34-3.67s3.68,1,5.01,0
		c1.34-2.67,3.68-9.35,7.02-4.01c0.33,2-1.67,3.34-0.67,5.34c1.67,1,5.68,0,5.01,3.34c-0.88,0.87-2.12,0.74-3.44,0.61
		c-1.2-0.12-2.46-0.24-3.58,0.39c-1.7,1.7-1.48,5.79-3.6,5.79C1101.3,172.86,1100.83,172.73,1100.27,172.42L1100.27,172.42z"/>
</g>
<g id="main">
	<path class="st0" d="M146.02,405.58c5.58-2.74,9.62-6.35,14.39-9.65c-5.95-12.38-9.84-26.44-16.59-38.31
		C142.72,373.18,142.49,389.54,146.02,405.58z M195.88,454.5c-1.84-2.92-5.07-0.88-7.42-3.39c-0.59,0.18-1.54,0.19-1.69,0.77
		c-10.65-14.17-16.81-31.56-23.05-49.19l-1.47-0.63c-5.65,3.56-12.12,7.64-15.94,13.05c1.91,14.92,9.69,31.29,11.31,45.24
		c-0.52,0.08-1.02,0.11-1.52,0.11c-2.76,0-5.27-0.99-7.88-1.57c-15.27-42.45-16.74-84.75-15.34-127.11
		c1.54-2.33,3.38-4.75,5.43-6.44l5.65,7.13c10.28,19.36,17.92,40.58,26.51,60.72l3.53,1.08c-4.48,6.42,0.95,14.94,3.67,20.81
		C180.24,430.07,192.36,440.6,195.88,454.5L195.88,454.5z"/>
	<path class="st0" d="M244.74,307.13c1.9-0.62,3.68-1.24,4.97,1.03c-3.04,7.98-10.07,10.19-17.38,12.52
		c-3.81,1.21-7.69,2.46-11.11,4.59c5.89,28.98,14.14,59.06,27.08,87.31c-0.09,1.11-0.67,1.7-1.47,2.07
		c-1.15,0.54-2.75,0.65-3.99,1.24l-5.46-2.97c-13.41-26.92-19.64-54.26-28.11-81.66l-2.53-0.66c-4.46,1.51-8.84,3.93-13.28,6.38
		c-6.66,3.67-13.46,7.4-20.83,8.21c-1.75,0.98-3.55,1.71-5.37,2.13l-0.42-0.66l-0.5-0.8l-0.52-0.83l-0.54-0.86l-0.56-0.91
		l-0.58-0.95l-0.57-0.96l-0.19-0.32c2.86-1.37,12.16-5.82,42.41-20.33c-1.65-18.42-8.86-36.07-8.28-54.44l8.37-12.8l2.52,0.66
		c-0.48,20.16,3.69,39.98,8.6,59.82c8.05,0.64,15.82-5.6,23.91-6.46c1.25,0.45,2.56,0.04,3.83-0.38V307.13z"/>
	<path class="st0" d="M283.71,210.44c1.42-5.5-0.54-12.24-5.06-15.27c-2.54-1.28-5.14-1.69-7.81-1.69s-5.39,0.4-8.22,0.75
		c-3.42,1.51-4.33,4.82-5.98,7.97c0.48,10.54,7.13,19.59,15.52,24.43c4.29,0.68,11.67-0.07,14.21-3.78l-5.98-1.99
		c-0.21-3.73,2.81-6.87,3.33-10.43L283.71,210.44z M290.54,187.49c9.72,10.37,0.87,22.12,2.96,33.64
		c-3.2,7.7-10.08,12.98-17.69,14.82c-1.94,0.47-3.94,0.71-5.93,0.71c-0.27,0-0.54,0-0.81-0.01c-5.18-0.12-9.44-4.94-12.9-7.89
		c0.54-6.31-4.2-11.7-5.77-18.2c-0.02-7.21-2.37-16.95,5.69-21.99c9.86-6.16,24.73-11.46,34.44-1.09L290.54,187.49z"/>
	<path class="st0" d="M304.37,388.61c-0.34,2.14-1.71,2.9-3.33,3.29c-0.58,0.14-1.2,0.24-1.8,0.33c-1.1,0.17-2.19,0.33-3.08,0.77
		c-6.99-7.59-5.43-19.65-8.18-29.64c-3.96-30.66-9.13-62.05-10.78-88.8c2.54-3.71,5.73-6.19,9.06-8.03
		c9.39,40.34,16.34,81.96,18.12,122.09L304.37,388.61z"/>
	<path class="st0" d="M450.9,284.87c2.03,26.35-7.56,48.79-18.14,71.36c-8.62,14.24-19.48,26.74-34.05,28.61
		c-2.85,0.36-5.76,0.57-8.67,0.57c-13.34,0-26.91-4.39-36.71-18.34c-15.12-12.88-16.98-37.9-15.38-56.96
		c2.61-26.94,19.22-55,41.28-64.22c9.22-4.22,21.27-7.44,31.39-4.7l0.87,1.57c-17.08,11.28-42.43,10.49-49.85,36.7
		c-8.85,20.33-9.26,45.97-1.87,66.92c5.9,17.09,23.12,25.33,37.91,25.12c13.49-5.1,24.97-15.32,33.39-28.52
		c2.23-16.79,17.39-29.84,10.21-49.13c-1.64-7.54-6.22-14.36-10.71-20.52c-9.79-2.79-18.77-15.11-29.1-6.38
		c-1.28,0.5-2.69,0.01-3.52-1.23l0.53-3.77c12.61-9.36,28.53-6.01,40.86,3.52c5.11,5.75,8.94,11.99,11.58,19.4H450.9z"/>
	<path class="st0" d="M535.63,228.63c11,25.55,25.08,58.55,13.15,86.65c-14.24,20.23-30.72,46.64-57.29,49.04
		c-17.71,1.6-17.72,1.6-0.01,0c-1.29,0.12-2.59,0.18-3.93,0.18c-3.4,0-6.96-0.39-10.69-1.22c-6.22-4.74-16.49-6.23-18.31-15.72
		c-3.26-9.36-1.26-19.19,1.83-27.67c5.88-9.7,14.59-14.83,23.9-18.57c7.44,2.22,13.66,6.97,18.62,13.76
		c-0.44,5.83,3.39,10.8-3.58,13.83c-3.53-1.61,0.44-5.83-2.65-7.96c-2.3-4.14-3.69-8.84-9.18-10.75
		c-9.79-1.53-13.05,10.35-16.32,16.92c-3.36,10.92,4.38,21.8,14.78,24.73c18.1,2.71,30.47-10,42.4-22.17
		C555,282.87,518.39,235.51,498,196.8c-20.22-26.16-42.36-52.15-49.66-84.79c-13.09-16.68-6.03-40-6.8-59.24
		c3.1-19.1,16.55-41.07,36.8-46.76c19.02-8.47,44.13-8.33,61.53,2.64c1.7,2.74,4.74,4.4,5.01,7.27c-10.69,3.22-21.53,3-32.86,2.83
		c-8.1-0.12-16.46-0.22-25.19,0.97c-10.79-1.92-11.14,10.18-14.98,15.83c-22.49,76.84,37.45,131.27,63.79,193.08H535.63z"/>
	<path class="st0" d="M399.47,309.31c-14.76-2.15-5.21,17.17-12.9,22.87c-0.52,0.23-1,0.37-1.44,0.42
		c-0.16,0.02-0.32,0.03-0.47,0.03c-1.98,0-3.18-1.68-4.18-3.38c0.07-4.72,1.51-9.29,1.2-14.3c-2.74-3.02-10.89,1.73-8.55-6.32
		c0.95-1.92,2.84-2.06,4.74-2.21c1.3-0.1,2.61-0.2,3.62-0.88c3.47-4.48,1.7-13.02,8.37-13.54c1.83,1.11,4.97-0.64,4.73,2.76
		c-3.34,2.79-2.75,7.42-1.95,11.03c1.95,2.11,4.89,1.39,6.85,3.5L399.47,309.31z"/>
	<path class="st0" d="M277.48,205.63c1.68-0.15,3.41-0.29,3.5,2.03c-0.65,1.05-1.89,1.22-3.2,1.4c-1.2,0.16-2.45,0.34-3.38,1.22
		c-1.25,2.05-0.08,5.97-2.14,6.47c-0.14,0.04-0.3,0.06-0.47,0.06c-0.28,0-0.62-0.05-1-0.16c-1.86-0.58-1.02-4.22-3.2-4.73
		c-1.87,0.8-4.07,1.67-5.02-0.85c-0.8-1.87-0.21-3.72,1.41-4.12c1.62-0.39,3.81,0.11,4.87-1.18c0.67-2.91,1.38-9.95,5.87-5.54
		c0.8,1.87-0.84,3.64,0.6,5.35C275.91,205.77,276.69,205.7,277.48,205.63L277.48,205.63z"/>
	<path class="st0" d="M685.7,225.55c3.76,6.71,6.15,13.64,7.13,21.44c-3.7,26.16-17.9,46.01-33.1,65.77
		c-10.78,11.32-23.18,20.71-36.77,20.71c-0.88,0-1.76-0.04-2.64-0.12c-15.97-1.44-32.49-7.96-40.49-27.13
		c-11.99-15.84-8.41-40.67-2.73-58.94c8.36-25.75,30.63-49.56,54.15-53.81c9.92-2.13,22.38-2.68,31.67,2.19l0.51,1.72
		c-19.11,7.33-43.69,1.09-56.59,25.08c-13.02,17.94-18.96,42.9-16.26,64.94c2.07,17.96,17.11,29.71,31.6,32.7
		c14.27-2.07,27.69-9.57,38.75-20.65c5.8-15.91,23.42-25.39,20.56-45.77c0.02-7.71-2.97-15.36-6.04-22.35
		c-8.95-4.83-15.08-18.8-27.05-12.5c-1.36,0.22-2.63-0.57-3.18-1.96l1.33-3.57C660.88,206.88,675.71,213.58,685.7,225.55
		L685.7,225.55z"/>
	<path class="st0" d="M631.67,240.8c1.54,1.48,4.99,0.45,4.02,3.72c-3.87,2-4.29,6.66-4.29,10.35c1.45,2.48,4.48,2.41,5.93,4.9
		c-13.95-5.29-8.79,15.64-17.53,19.55c-0.41,0.09-0.78,0.12-1.12,0.12c-0.13,0-0.26,0-0.38-0.02c-2.27-0.21-3.16-2.25-3.82-4.27
		c1.08-4.6,3.47-8.74,4.25-13.7c-2.03-3.54-11.01-0.66-6.99-8.01c1.34-1.67,3.22-1.4,5.1-1.14c1.29,0.18,2.59,0.36,3.73-0.08
		c4.35-3.63,4.46-12.34,11.09-11.41L631.67,240.8z"/>
	<path class="st0" d="M821.34,318.36c1.8,3.66-4.09,6.81-7.04,8.38c-4.57,2.51-9.66,3.35-14.97,3.35s-10.72-0.82-16.11-1.63
		c-6.36-0.96-12.61-1.92-18.29-1.54l-49.85-3.27c-0.68-2.13-2.97-4.85-0.59-7.19c6.68-6.07,1.96-19.3,8.92-24.99
		c12.85-26.41,16.35-53.59,26.76-81.73c3.12-4.93,8.41-8.5,13.74-12.42l1.91,3c-11.81,35.03-20.74,71.17-34.71,104.84l-0.86,5.61
		c29.76,4.24,57.7,2.79,88.36,7.84c0.51-0.55,1.04-0.45,1.63-0.33c0.35,0.07,0.72,0.14,1.11,0.08L821.34,318.36z"/>
	<path class="st0" d="M938.28,307.55c-0.49,3.13-3.23,6.98-6.03,8.47c-9.61,1.27-17.03-8.66-22.92-15.46
		c-8.56,8.83-14.49,22.63-27.31,24.78c-1.11,0.19-2.28,0.29-3.51,0.29c-0.84,0-1.7-0.05-2.59-0.14c-6.54-0.59-14.94-2.23-17.86-9.53
		c-7.07-27.94,0.64-52.61,7.97-77.55c2.19-5.11,6.19-9.51,11.3-11.39l1.54,1.1c-6.61,25.16-10.14,52.52-1.87,79.57
		c4.84,4.61,11.49,3.83,17.19,1.51c5.38-4.29,9.82-10.12,13.21-16.11c-3.65-17.68,1.54-33.12,7.78-48.39
		c3.46-3.63,6.14-7.81,10.75-8.58l1.93,1.37c-3.1,21.87-18.88,48.9,1.96,68.09L938.28,307.55L938.28,307.55z"/>
	<path class="st0" d="M1089.39,226.67c3.34-3.01,7.01-4.68,10.69-5.68c-0.33,41.42-3.34,83.51-11.02,122.93
		c-0.84,2-2.34,2.42-4.01,2.42c-0.6,0-1.22-0.05-1.83-0.11c-1.1-0.1-2.21-0.19-3.17,0.02c-5.01-9.02-0.67-20.38-1-30.73
		c3.34-30.73,5.68-62.46,10.36-88.85L1089.39,226.67z"/>
	<path class="st0" d="M1049.3,223.33c2.34,2.34,7.35,0,7.68,4.34c-6.15,5.93-13.45,4.93-21.06,3.92c-3.96-0.52-8.01-1.04-12.01-0.58
		c-7.01,28.73-12.36,59.46-12.69,90.52c-0.55,0.97-1.33,1.25-2.21,1.25c-1.27,0-2.76-0.58-4.13-0.58l-3.67-5.01
		c-0.67-30.06,5.34-57.46,9.35-85.85l-2-1.67c-4.68-0.54-9.67-0.22-14.73,0.11c-7.59,0.48-15.33,0.96-22.34-1.44
		c-4.68,0.33-9.02-0.67-12.36-3.68l4.34-4.01l48.44-0.33c6.34-17.37,7.35-36.41,15.7-52.78l13.03-8.02l2,1.67
		c-9.02,18.04-13.69,37.74-17.7,57.79c7.02,4,16.7,1.67,24.39,4.34L1049.3,223.33z"/>
	<path class="st0" d="M1110.76,165.87c2.67-5.01,2.34-12.03-1.33-16.03c-4.34-3.67-9.69-4.01-15.37-4.67
		c-3.67,0.66-5.34,3.67-7.68,6.34c-2,10.36,2.34,20.71,9.35,27.39c4.01,1.67,11.36,2.67,14.7-0.33l-5.35-3.34
		C1105.75,171.56,1109.42,169.22,1110.76,165.87L1110.76,165.87z M1122.79,145.17c7.01,12.36-4.34,21.71-5.01,33.4
		c-4.92,6.73-12.85,10.26-20.68,10.26c-2.27,0-4.54-0.3-6.71-0.9c-5.01-1.34-8.02-7.02-10.69-10.69c2.01-6.01-1.33-12.36-1.33-19.04
		c1.67-7.01,1.67-17.03,10.69-20.04c11.02-3.67,26.72-5.34,33.74,7.02L1122.79,145.17z"/>
	<path class="st0" d="M1103.75,159.2c1.67,1.01,5.68,0,5.01,3.34c-0.88,0.87-2.12,0.74-3.44,0.61c-1.2-0.12-2.46-0.24-3.58,0.4
		c-1.7,1.7-1.48,5.79-3.6,5.79c-0.38,0-0.85-0.13-1.41-0.44c-1.67-1,0-4.34-2.01-5.35c-2,0.33-4.34,0.67-4.67-2
		c-0.33-2,0.66-3.67,2.34-3.67s3.68,1,5.01,0c1.34-2.67,3.68-9.35,7.02-4.01C1104.75,155.87,1102.75,157.21,1103.75,159.2
		L1103.75,159.2z"/>
	<path class="st0" d="M1241.38,199.28c4.34,6.35,7.35,13.03,9.02,20.71c-1.34,26.39-13.7,47.43-27.06,68.48
		c-10.36,13.03-22.71,24.05-37.41,24.05c-16.03,0-33.07-5.01-42.76-23.38c-13.36-14.7-12.02-39.75-8.01-58.46
		c6.01-26.39,26.05-52.11,49.1-58.46c9.69-3.01,22.05-4.68,31.73-0.67l0.67,1.67c-18.37,9.02-43.43,5.01-54.12,30.06
		c-11.36,19.04-15.03,44.43-10.35,66.14c3.67,17.7,19.71,28.06,34.41,29.73c14.03-3.34,26.72-12.02,36.74-24.05
		c4.34-16.37,21.05-27.39,16.37-47.43c-0.66-7.68-4.34-15.03-8.02-21.71c-9.35-4.01-16.7-17.37-28.06-10.02
		c-1.33,0.34-2.67-0.33-3.34-1.67l1-3.67c13.69-7.68,29.06-2.34,40.08,8.68L1241.38,199.28z"/>
	<path class="st0" d="M1188.93,219.32c1.67,1.34,5.01,0,4.34,3.34c-3.67,2.34-3.67,7.01-3.34,10.69c1.67,2.34,4.68,2,6.35,4.34
		c-14.37-4.01-7.35,16.37-15.7,21.04c-0.55,0.16-1.04,0.24-1.48,0.24c-2.29,0-3.36-1.96-4.2-3.91c0.67-4.68,2.67-9.02,3.01-14.03
		c-2.34-3.34-11.03,0.33-7.68-7.35c1.19-1.78,3.08-1.69,4.98-1.59c1.3,0.07,2.61,0.13,3.7-0.41
		C1182.92,227.67,1182.25,218.99,1188.93,219.32L1188.93,219.32z"/>
	<path class="st0" d="M1351.61,160.2l0.67,1.67c-3.67,20.38-1.33,42.76-5.68,62.46c-0.66,23.05-4.67,45.1-5.01,68.48
		c-1.77,2.07-4.32,4.13-7.18,4.13c-0.39,0-0.77-0.04-1.17-0.12c-0.67-2.68,0-7.35-0.33-10.02c-1.33-6.68,0-13.36,0.67-19.71
		c-4.68-8.02-10.35-15.7-13.03-24.72c-5.01-4.34-6.01-10.36-9.02-15.7c-6.68-12.03-12.03-24.39-20.04-35.41l-1.34,1
		c-2,30.06-1.67,61.8-4.67,91.19c-1.67,3.01-5.35,3.67-8.69,4.01l-5.34-3.34l-1.34-7.35l2.34-74.16c2.34-13.36-1.67-29.4,7.35-40.09
		c3.34-1.33,7.01-3.01,11.02-2.34c1.34,1.67-0.67,4,0.67,6.01c15.7,25.72,28.39,53.11,42.09,79.84c2.34-3.34,0.67-8.69,2-12.69
		c3.34-21.05,2.67-44.09,6.68-64.81c3.68-2.67,3.34-9.68,9.35-8.35V160.2z"/>
	<path class="st0" d="M1449.82,123.78c1,2,3.01,3.34,3.01,5.34c-7.6,1.56-15.09,0.73-22.93-0.1c-5.59-0.59-11.37-1.19-17.49-0.9
		c-7.35-2-8.35,6.35-11.36,10.02c-20.38,51.78,17.7,93.2,32.07,137.63c6.01,18.37,13.69,42.09,3.68,60.8
		c-11.12,13.11-24.18,30.36-42.72,30.36l0,0c-3.18,0-6.53-0.51-10.05-1.64c-4.01-3.67-11.03-5.34-11.69-12.02
		c-1.67-6.68,0.33-13.36,3.01-19.04c4.68-6.34,11.02-9.35,17.7-11.36c5.01,2,9.02,5.68,12.03,10.69c-0.67,4.01,1.67,7.69-3.34,9.35
		c-2.34-1.33,0.66-4-1.34-5.68c-1.34-3.01-2-6.35-5.68-8.02c-6.68-1.67-9.69,6.35-12.36,10.69c-3.01,7.35,1.67,15.37,8.68,18.04
		c12.36,3.01,21.71-5.01,30.73-12.69c21.38-30.73-1-65.8-12.69-93.86c-12.36-19.38-26.06-38.75-29.06-61.8
		c-8.02-12.36-1.67-28.06-1-41.42c3.34-13.02,14.03-27.39,28.39-30.06c13.7-4.67,31.07-3.01,42.42,5.68L1449.82,123.78z"/>
	<path class="st0" d="M443.86,475.98c0.17-0.13,0.33-0.27,0.5-0.4c-1.91-0.97-3.8-1.99-5.66-3.07c-3.96-2.28-7.73-4.91-11.26-7.81
		c-3.41-2.8-6.6-5.94-9.31-9.43c-2.77-3.56-5.12-7.41-6.74-11.64c-1.7-4.43-2.47-9.03-2.44-13.77c0.04-4.64,1.27-9.23,3.06-13.48
		c1.29-3.05,3.07-5.83,5.1-8.42c-0.49-0.03-0.98-0.06-1.47-0.1c-1.91-0.16-3.8-0.33-5.71-0.4c-1.59,0-3.17,0.12-4.75,0.18
		c-1.74,0.07-3.48,0.05-5.22,0.02c-0.57-0.01-1.15-0.02-1.61-0.03c-2.49-0.02-4.98,0-7.46,0.15c-2.37,0.15-4.73,0.37-7.1,0.56
		c-4.51,0.35-9.02,0.6-13.52,1.07c-3.86,0.44-7.71,0.96-11.55,1.53c-3.62,0.52-7.23,1.03-10.85,1.57
		c-3.58,0.54-7.09,1.34-10.63,2.11c-3.53,0.76-7.07,1.41-10.59,2.24c-3.54,0.87-7.04,1.87-10.57,2.75
		c-3.92,0.98-7.84,1.97-11.74,3.04c-3.85,1.06-7.67,2.22-11.48,3.42c-3.82,1.2-7.59,2.53-11.4,3.73c-3.78,1.19-7.56,2.35-11.27,3.74
		c-3.89,1.52-7.74,3.1-11.64,4.59c-3.11,1.22-6.17,2.57-9.24,3.89c-3.57,1.53-7.12,3.1-10.65,4.72c-6.61,3.04-13.14,6.27-19.54,9.73
		l0,0c0,0-0.01,0-0.02,0.01l-0.16,0.09c-9.79,5.32-19.33,11.13-28.39,17.61c-5.87,4.26-11.51,8.8-16.79,13.77
		c-3.21,3.08-6.25,6.33-9.07,9.77c-1.74,2.2-3.36,4.47-4.84,6.84c-1.02,1.74-1.96,3.52-2.79,5.35c-0.55,1.32-1.04,2.67-1.46,4.04
		c-0.19,0.71-0.35,1.42-0.5,2.14c1.3,1.97,2.04,4.87,1.34,7.11c-0.35,0.61-0.7,1.2-1.07,1.77c0.11,0.36,0.23,0.72,0.36,1.08
		c0.29,0.69,0.6,1.37,0.93,2.04c0.43,0.75,0.89,1.47,1.38,2.19c0.56,0.72,1.14,1.41,1.75,2.09c0.85,0.86,1.74,1.67,2.67,2.44
		c1.24,0.95,2.52,1.84,3.85,2.68c1.9,1.1,3.85,2.1,5.85,3.01c3.03,1.28,6.13,2.34,9.28,3.26c4.75,1.31,9.57,2.29,14.43,3.03
		c7.66,1.08,15.37,1.61,23.1,1.78c9.39,0.13,18.75-0.27,28.1-1.05c1.03,1.3,2.14,2.54,3.25,3.77c0.14,0.15,0.27,0.29,0.41,0.44
		c0.03,0.03,0.06,0.06,0.08,0.09c0.11,0.11,0.21,0.22,0.32,0.33c0.08,0.08,0.16,0.16,0.24,0.24c0.12,0.12,0.24,0.23,0.36,0.34
		c0.14,0.14,0.28,0.27,0.43,0.4c0.03,0.03,0.07,0.06,0.1,0.09c0.16,0.14,0.31,0.28,0.47,0.42c0.03,0.03,0.06,0.05,0.09,0.08
		c0.48,0.42,0.97,0.83,1.46,1.22c0.43,0.35,0.88,0.67,1.34,0.97c0.18,0.12,0.35,0.23,0.53,0.34c0.78,0.49,1.59,0.94,2.4,1.39
		c0.06,0.04,0.13,0.07,0.19,0.11c0,0,0.01,0,0.02,0.01c0,0,0,0,0.01,0s0.02,0.01,0.04,0.02l0,0c0.03,0.02,0.06,0.04,0.09,0.05
		c0.25,0.14,0.49,0.27,0.74,0.4c0.23,0.13,0.47,0.25,0.7,0.38c0.26,0.14,0.53,0.27,0.8,0.41c0.17,0.09,0.33,0.17,0.5,0.25
		c0.08,0.04,0.17,0.09,0.25,0.13l0,0c0.35,0.17,0.71,0.34,1.06,0.51c0.72,0.33,1.45,0.67,2.19,0.96c0.41,0.16,0.81,0.32,1.23,0.47
		c0.23,0.09,0.48,0.15,0.73,0.18c3.26,1.34,6.61,2.42,10,3.4c8.33,2.26,16.82,3.81,25.35,5.07c15.92,2.28,32,3.44,48.08,3.79
		c1.06,0.02,2.12,0.04,2.32,0.05c14.06,0.2,28.14-0.23,42.13-1.76c5.88-0.69,11.74-1.57,17.5-2.94c2.49-0.62,4.96-1.33,7.37-2.22
		c0.96-0.39,1.9-0.8,2.82-1.27l0,0c-0.23-0.16-0.46-0.31-0.69-0.47c-1.33-0.74-2.68-1.41-4.07-2.04c-3.12-1.25-6.3-2.3-9.53-3.23
		c-8.47-2.31-17.12-3.91-25.79-5.2c-15.9-2.24-31.98-3.39-48.03-3.73c-0.71-0.02-1.42-0.03-1.64-0.03h-0.46
		c-6.26-0.1-12.53-0.06-18.8,0.14c-0.38,0.01-0.77,0.03-1.15,0.04c-0.7,0.03-1.41,0.05-2.11,0.08c-0.04,0-0.07,0-0.11,0
		c-0.7,0.03-1.41,0.06-2.11,0.1c-0.02,0-0.04,0-0.06,0l0,0c0.06-0.13,0.12-0.26,0.18-0.4c0.13-0.29,0.27-0.58,0.4-0.87
		c0,0,0-0.01,0-0.02c0.06-0.14,0.13-0.29,0.19-0.44c0.05-0.12,0.1-0.24,0.15-0.37c0.03-0.06,0.05-0.12,0.07-0.18
		c0.04-0.11,0.08-0.22,0.12-0.33c0.02-0.05,0.04-0.1,0.05-0.15c0.16-0.44,0.31-0.87,0.47-1.3l0,0c0.04-0.11,0.08-0.22,0.11-0.33l0,0
		c0.04-0.11,0.08-0.22,0.11-0.33c0.04-0.11,0.07-0.22,0.11-0.33c0.04-0.11,0.07-0.22,0.1-0.33c0.28-0.95,0.54-1.88,0.77-2.84l0,0
		c0.1-0.44,0.2-0.88,0.3-1.32c0.09-0.4,0.17-0.8,0.24-1.21c0-0.01,0-0.02,0-0.03c0.03-0.16,0.06-0.32,0.09-0.48
		c0.05-0.25,0.09-0.51,0.13-0.76c0.03-0.16,0.05-0.32,0.08-0.48s0.05-0.32,0.07-0.48c0.03-0.19,0.05-0.38,0.08-0.57l0,0
		c0.06-0.46,0.11-0.92,0.17-1.38c0-0.05,0.01-0.1,0.02-0.15l0,0c0.05-0.41,0.1-0.82,0.16-1.22c0.06-0.51,0.12-1,0.13-1.51
		c0.01-0.26-0.02-0.52-0.01-0.78c0,0,0,0.01,0,0.02c0.01-0.45-0.03-0.9-0.29-1.3c-0.03-0.04-0.06-0.08-0.09-0.12
		c0.16-0.44,0.32-0.87,0.47-1.31c0.33-1.11,0.62-2.22,0.86-3.35c0.18-1.09,0.31-2.19,0.4-3.3c0.03-1.04,0.01-2.08-0.05-3.13
		c-0.11-0.99-0.25-1.98-0.44-2.96c-0.23-0.98-0.51-1.95-0.83-2.91c-0.36-0.93-0.75-1.83-1.18-2.72c-0.56-1.04-1.17-2.06-1.82-3.05
		c-0.69-0.95-1.42-1.86-2.2-2.76c-0.92-0.97-1.88-1.88-2.89-2.76c-1.14-0.91-2.31-1.76-3.53-2.56c-1.3-0.79-2.63-1.52-4-2.2
		l-0.32-0.15c-1.57-0.69-3.16-1.3-4.78-1.85c-1.96-0.58-3.92-1.08-5.92-1.47c-2.09-0.34-4.19-0.57-6.3-0.71
		c-2.43-0.09-4.85-0.06-7.28,0.1c-2.27,0.21-4.52,0.52-6.75,0.97c-2.53,0.55-5.01,1.23-7.45,2.06c-2.36,0.86-4.66,1.85-6.9,2.95
		c-1.96,1.03-3.85,2.17-5.69,3.41c-1.68,1.19-3.3,2.46-4.84,3.83c-1.37,1.28-2.67,2.63-3.9,4.05c-1.01,1.24-1.96,2.54-2.84,3.88
		c-0.72,1.19-1.4,2.39-2.01,3.63c-0.53,1.18-1,2.38-1.41,3.6c-0.33,1.1-0.61,2.21-0.83,3.34c-0.18,1.06-0.3,2.13-0.37,3.21
		c-0.02,0.42-0.02,0.84-0.02,1.26c0,0.09,0,0.17,0,0.25c0,0.23,0.02,0.46,0.02,0.69c0.28,3.13-1.81,6.21-4.91,7.07
		c-3.81,1.06-7.95-1.56-8.46-5.53c-0.09-0.68-0.1-1.37-0.11-2.05c0-0.37,0.02-0.74,0.08-1.1c0.02-1.6,0.07-3.19,0.32-4.77
		c0.55-3.41,1.48-6.73,2.82-9.92c2.59-6.17,6.53-11.82,11.39-16.42c11.42-10.78,26.69-16.9,42.31-17.83
		c17.13-1.02,36.01,4.61,46.73,18.73c2.73,3.6,4.76,7.56,6.15,11.85c1.45,4.48,1.77,9.25,1.46,13.93c-0.16,2.41-0.6,4.84-1.27,7.2
		c9.83-2.84,19.56-6,29.17-9.49c2.58-0.94,5.15-1.9,7.71-2.88c10.51-4.04,20.87-8.49,31.01-13.4c-0.32-0.23-0.64-0.47-0.96-0.72
		c-2.17-1.72-4.12-3.67-5.39-6.17c-1.13-2.22-1.53-4.74-1.07-7.19c0.39-2.08,1.4-3.99,2.81-5.56c3.01-3.35,7.5-5.16,11.7-6.52
		c4.17-1.35,8.52-2.15,12.84-2.8c4.15-0.62,8.35-1.04,12.53-1.33c0.22-0.04,0.44-0.06,0.66-0.08c0.45-0.04,0.91-0.06,1.37-0.09
		c0.22-0.02,0.43-0.02,0.65,0c2.67-0.17,5.34-0.29,8.01-0.31c0.93,0,1.86,0,2.8,0c1.42-0.01,2.84-0.02,4.26,0L443.86,475.98z
		 M468.36,378.85c-1.41-3.14-3.04-6.16-4.67-8.87c-1.99-3.25-4.16-6.38-6.52-9.38c-0.01-0.02-0.03-0.04-0.05-0.06
		c-0.02-0.03-0.05-0.05-0.07-0.08c-1.16-1.45-2.38-2.85-3.64-4.21c-0.55-0.59-1.11-1.17-1.69-1.73c-1.16-1.11-2.36-2.17-3.63-3.15
		c-0.56-0.41-1.13-0.8-1.72-1.16c0,0.16,0.01,0.31,0.02,0.47c0.05,1.58,0.07,3.15,0.09,4.73c0.02,1.71-0.08,3.43-0.15,5.13
		c-0.07,1.62-0.14,3.24-0.21,4.86c-0.3,7.18-0.62,14.35-0.92,21.52c0,0.01,0,0.02,0,0.04c1.39-0.64,2.8-1.26,4.2-1.87
		c3.44-1.49,6.97-2.58,10.54-3.71c2.8-0.89,5.61-1.74,8.44-2.53L468.36,378.85z M532.73,446.3c0.21-0.84,0.44-1.69,0.62-2.54
		c-0.4-0.14-0.8-0.26-1.21-0.38c-0.85-0.21-1.71-0.38-2.58-0.51c-1-0.12-1.99-0.18-2.99-0.19c-1,0-1.99,0.07-2.98,0.19
		c-0.97,0.14-1.93,0.32-2.89,0.55c-1,0.27-1.99,0.59-2.95,0.97c-0.72,0.3-1.41,0.63-2.1,0.99c0.31,0.59,0.61,1.18,0.91,1.78
		c0.51,1.03,1.02,2.06,1.54,3.08c0.28,0.56,0.56,1.12,0.84,1.68c0.31,0.63,0.61,1.28,0.96,1.88c0,0,0.01,0.02,0.02,0.02
		c0.07,0.08,0.14,0.15,0.21,0.22c0.95,0.8,1.96,1.55,2.94,2.31c0.51,0.4,1.02,0.8,1.54,1.2c0.02,0,0.04,0,0.06,0.01
		c0.29,0.06,0.56,0.17,0.8,0.34c0.37-0.22,0.73-0.46,1.08-0.7c0.46-0.36,0.89-0.75,1.32-1.15c0.31-0.32,0.6-0.65,0.9-0.98
		c0.49-0.67,0.92-1.36,1.34-2.07c0.35-0.65,0.65-1.32,0.93-1.99c0.62-1.55,1.25-3.1,1.7-4.71L532.73,446.3z M534.92,478.73
		c-0.72-0.27-1.43-0.58-2.12-0.93c-2.25-1.12-4.31-2.6-6.1-4.37c-0.64,1.94-1.69,3.75-3.07,5.26c-0.13,0.15-0.27,0.29-0.41,0.43
		h0.12C527.2,479.09,531.06,478.96,534.92,478.73L534.92,478.73z M542.9,508.43c0.09-0.05,0.17-0.1,0.26-0.15
		c-0.59-0.45-1.19-0.88-1.81-1.29c-1.61-0.97-3.27-1.82-4.98-2.61c-3.86-1.7-7.84-3.09-11.87-4.33c-9.77-2.89-19.77-4.95-29.83-6.58
		c-14.41-2.26-28.94-3.59-42.66-4.06c-0.79-0.02-1.57-0.05-1.85-0.05c-0.53-0.01-1.06-0.02-1.6-0.03l0,0
		c-0.45,0-0.89-0.01-1.34-0.02c-0.89-0.01-1.79-0.02-2.69-0.03c-1.13,0-2.27,0-3.4,0c-0.22,0.01-0.43,0.02-0.65,0.03h-0.02
		c-0.36,0.02-0.71,0.03-1.05,0.04c-0.67,0.02-1.28,0.03-1.78,0.03c-0.77-0.01-1.54,0-2.31,0.02c-0.41,0.01-0.81,0.03-1.22,0.04
		c-0.41,0.02-0.82,0.04-1.22,0.06c-0.82,0.04-1.63,0.09-2.44,0.13c-0.43,0.02-0.86,0.05-1.29,0.07c-0.17,0.02-0.35,0.04-0.53,0.05
		c-0.46,0.03-0.91,0.06-1.37,0.08H427c-0.9,0.06-1.81,0.13-2.71,0.2c-0.1,0-0.2,0.02-0.31,0.03c-1.01,0.08-2.02,0.17-3.03,0.27
		c-4.17,0.46-8.32,1.06-12.42,1.98c-1.76,0.44-3.5,0.92-5.21,1.51c-0.87,0.34-1.72,0.7-2.56,1.11c-0.1,0.06-0.2,0.11-0.3,0.17
		c0.02,0.01,0.03,0.03,0.04,0.04c0.62,0.47,1.25,0.92,1.9,1.35c1.55,0.93,3.16,1.75,4.79,2.52c0.29,0.13,0.57,0.25,0.86,0.38
		c0.24,0.1,0.49,0.21,0.73,0.31c0.2,0.08,0.4,0.16,0.59,0.24c0.24,0.1,0.49,0.2,0.73,0.3c0.01,0,0.02,0,0.03,0.01
		c0.25,0.1,0.5,0.2,0.74,0.29c0.25,0.1,0.5,0.19,0.75,0.29s0.5,0.19,0.75,0.28s0.5,0.19,0.75,0.27c0.25,0.09,0.5,0.18,0.75,0.27
		c0.24,0.09,0.47,0.17,0.71,0.25c0.28,0.1,0.56,0.19,0.84,0.29c0.24,0.08,0.48,0.16,0.72,0.24c0.54,0.18,1.09,0.36,1.64,0.53
		c0.47,0.15,0.94,0.29,1.41,0.44c0.49,0.15,0.99,0.29,1.48,0.43c0.27,0.08,0.54,0.15,0.81,0.23c0.33,0.09,0.65,0.18,0.98,0.27
		c0.33,0.09,0.67,0.18,1,0.27c0.11,0.03,0.22,0.06,0.33,0.09c0.45,0.12,0.89,0.24,1.34,0.35c7.84,2.04,15.8,3.61,23.79,4.9
		c14.44,2.26,29.03,3.62,43.64,4.06c9.91,0.24,19.85,0.08,29.72-0.91c4.29-0.45,8.56-1.07,12.77-2.01c1.83-0.44,3.63-0.95,5.41-1.58
		c0.81-0.32,1.6-0.67,2.38-1.05L542.9,508.43z M549.25,496.12c0.23-1.84,0.6-3.69,1.08-5.5c-3.19,0.43-6.39,0.78-9.59,1.06
		c2.91,1.27,5.85,2.66,8.51,4.43V496.12z M582.39,484.22c0.1-0.34,0.19-0.69,0.28-1.03c-5.63,1.93-11.36,3.5-17.16,4.77
		c-0.01,0.02-0.02,0.03-0.03,0.05c-0.7,1.58-1.32,3.19-1.86,4.84c-0.39,1.34-0.71,2.69-0.96,4.05c-0.14,0.93-0.23,1.85-0.29,2.79
		c0,0.68,0,1.37,0.05,2.06c0.06,0.46,0.13,0.92,0.22,1.37c0.08,0.28,0.15,0.56,0.24,0.83c0.08,0.18,0.15,0.36,0.23,0.54
		c0.07,0.12,0.14,0.24,0.21,0.35c0.05,0.07,0.1,0.12,0.15,0.19c0.05,0.05,0.09,0.09,0.14,0.14c0.01,0,0.02,0.02,0.03,0.02
		c0.02,0.01,0.04,0.02,0.07,0.03c0.03,0.02,0.06,0.02,0.09,0.04c0.05,0,0.09,0.02,0.14,0.03c0.08,0.01,0.17,0.02,0.25,0.03
		c0.15,0,0.3,0,0.46-0.02c0.21-0.03,0.41-0.06,0.61-0.1c0.32-0.08,0.63-0.18,0.95-0.28c0.43-0.17,0.86-0.36,1.28-0.57
		c0.65-0.35,1.28-0.74,1.89-1.15c0.85-0.62,1.67-1.28,2.46-1.98c1.03-0.97,2.01-2,2.94-3.07c1.11-1.37,2.15-2.79,3.12-4.26
		c0.98-1.6,1.86-3.23,2.67-4.91C581.25,487.42,581.86,485.84,582.39,484.22L582.39,484.22z M600.61,359.48
		c0.01-0.85,0.01-1.7,0.01-2.25c-0.02-4.49-0.18-9-0.7-13.22c-3.86,3.74-7.59,7.64-11.47,11.36c-5.5,5.99-11.73,11.4-16.7,17.83
		c-1.26,1.96-2.69,3.83-4.07,5.72c0.95,0.26,1.9,0.53,2.84,0.82c1.18-0.49,2.5-0.65,3.83-0.42c0.71,0.13,1.43,0.4,2.12,0.61
		c0.3,0.09,0.59,0.21,0.86,0.34c0.68,0.21,1.36,0.41,2.03,0.64c1.66,0.56,3.32,1.16,4.96,1.8c4.05,1.57,8.07,3.26,11.95,5.22
		c0.5,0.25,1,0.51,1.51,0.78c0.55-2.85,1-5.72,1.39-8.6c0.89-6.84,1.37-13.74,1.45-20.64L600.61,359.48z M618.92,435.85
		c0.1-0.95,0.15-1.89,0.17-2.84c-0.03-0.91-0.09-1.8-0.19-2.71c-0.14-0.89-0.31-1.76-0.52-2.64c-0.29-1.01-0.63-2-1-2.98
		c-0.52-1.19-1.08-2.35-1.7-3.49c-0.79-1.31-1.63-2.58-2.53-3.82c-1.17-1.47-2.39-2.87-3.69-4.23c-1.87-1.83-3.84-3.54-5.89-5.15
		c-1.92-1.43-3.89-2.77-5.91-4.03c-0.07-0.05-0.14-0.09-0.21-0.13c-0.17-0.11-0.35-0.22-0.52-0.32c-0.09-0.06-0.19-0.12-0.28-0.17
		c-0.23-0.14-0.46-0.28-0.69-0.42c-0.07-0.05-0.14-0.09-0.22-0.13c-0.34-0.2-0.68-0.4-1.02-0.6c-0.21-0.11-0.41-0.23-0.62-0.34
		c-0.04-0.02-0.08-0.05-0.12-0.07c-0.06-0.03-0.11-0.06-0.17-0.09l0,0c-3.68-1.99-7.44-3.8-11.31-5.39
		c-1.95-0.77-3.91-1.5-5.88-2.18c-1.21-0.42-2.42-0.85-3.65-1.24c-0.24-0.05-0.48-0.11-0.72-0.19c-0.35-0.11-0.69-0.22-1.04-0.33
		h-0.01c-0.35-0.12-0.69-0.25-1.04-0.39c0,0,0-0.02,0.01-0.03c-1.03-0.49-1.92-1.21-2.6-2.18c-1.87-0.45-3.75-0.9-5.63-1.33
		c0,0-0.01,0-0.02,0l0,0l0,0c-1.23-0.29-2.46-0.58-3.69-0.86c-3.4-0.79-6.82-1.53-10.28-2.03c-4.07-0.48-8.18-0.75-12.26-1.09
		c-4.55-0.38-9.12-0.74-13.69-0.76c-5.15,0.04-10.31,0.2-15.45,0.47c-5.11,0.26-10.23,0.79-15.14,1.41c-0.06,0-0.12,0.02-0.18,0.02
		l0,0c-3.31,0.45-6.62,0.98-9.87,1.77c-1.78,0.44-3.57,0.86-5.36,1.29l0,0c-0.26,0.07-0.53,0.13-0.8,0.19
		c-0.47,0.11-0.93,0.23-1.4,0.34c-0.58,0.14-1.17,0.29-1.75,0.44c-0.15,0.04-0.29,0.07-0.44,0.11c-0.04,0.01-0.08,0.02-0.12,0.03
		c-3.42,0.92-6.82,1.93-10.11,3.23c-5.21,2.15-10.37,4.4-15.3,7.16c0,0-0.02,0-0.03,0.01c-0.32,0.19-0.65,0.38-0.97,0.57
		c-0.15,0.09-0.3,0.18-0.45,0.27c-0.1,0.06-0.19,0.11-0.28,0.17c-0.1,0.06-0.21,0.13-0.31,0.19c-0.04,0.02-0.07,0.04-0.1,0.06
		c-0.07,0.04-0.13,0.08-0.2,0.12c-0.04,0.02-0.07,0.05-0.11,0.07c-0.07,0.05-0.15,0.09-0.22,0.14c-0.07,0.04-0.15,0.09-0.22,0.14
		c-0.1,0.06-0.19,0.12-0.29,0.18c-0.02,0.01-0.04,0.03-0.06,0.04c-0.08,0.05-0.17,0.1-0.25,0.16c-0.09,0.06-0.18,0.11-0.26,0.17
		c-0.07,0.04-0.13,0.09-0.2,0.13c-0.1,0.06-0.2,0.12-0.29,0.19c-0.04,0.02-0.08,0.05-0.12,0.08c-0.07,0.04-0.13,0.08-0.2,0.13
		c-0.05,0.03-0.1,0.07-0.15,0.1c-0.03,0.02-0.05,0.03-0.08,0.05c-0.02,0.01-0.03,0.02-0.05,0.03c-0.07,0.04-0.13,0.08-0.19,0.13
		c-0.28,0.19-0.56,0.38-0.83,0.56c-0.4,0.27-0.8,0.55-1.2,0.83c-0.17,0.12-0.34,0.24-0.52,0.37c-0.05,0.03-0.1,0.07-0.15,0.11
		c-0.33,0.24-0.66,0.48-0.98,0.72c-0.1,0.08-0.2,0.15-0.29,0.23c-0.22,0.17-0.43,0.34-0.64,0.51c-0.06,0.04-0.11,0.09-0.17,0.14
		c-0.3,0.24-0.6,0.49-0.89,0.74c-0.31,0.27-0.63,0.54-0.94,0.81c-0.01,0.01-0.02,0.02-0.03,0.03c-0.32,0.28-0.63,0.56-0.95,0.85l0,0
		c-0.61,0.55-1.21,1.12-1.81,1.69c-1.06,1.1-2.06,2.27-3,3.47c-1,1.35-1.91,2.76-2.76,4.2c-0.67,1.21-1.28,2.44-1.83,3.71
		c-0.39,1-0.72,2.02-1.02,3.05c-0.22,0.92-0.4,1.84-0.54,2.77c-0.09,0.93-0.15,1.85-0.17,2.79c0.03,0.83,0.08,1.65,0.16,2.47
		c0.16,1.03,0.36,2.06,0.61,3.08c0.27,0.92,0.57,1.83,0.91,2.73c0.51,1.19,1.06,2.34,1.68,3.48c0.78,1.31,1.62,2.58,2.53,3.82
		c1.25,1.59,2.58,3.09,3.99,4.54c1.84,1.77,3.76,3.43,5.77,5c2.78,2.06,5.67,3.94,8.65,5.68c2.76,1.53,5.57,2.93,8.43,4.24l0,0
		c0.27,0.13,0.55,0.25,0.82,0.37c0.1,0.05,0.2,0.09,0.3,0.13c0.29,0.13,0.58,0.26,0.87,0.38c0.19,0.09,0.39,0.17,0.58,0.25
		c0.28,0.12,0.56,0.24,0.84,0.35c0.2,0.08,0.39,0.16,0.59,0.25c0.35,0.14,0.71,0.28,1.07,0.42c1.43,0.55,2.87,1.08,4.32,1.59
		c0.32,0.12,0.64,0.23,0.96,0.34c1.07,0.37,2.15,0.73,3.23,1.07c2.57,0.83,5.17,1.59,7.79,2.29c3.86,0.98,7.75,1.83,11.67,2.55
		c-0.61-0.62-1.2-1.28-1.74-1.96c-2.36-2.98-4.03-6.48-4.45-10.29c-0.34-3.08,0.25-6.29,1.79-8.98c0.05-0.11,0.1-0.22,0.17-0.33
		c0.61-0.98,1.31-1.88,2.04-2.63c0.15-0.15,0.3-0.31,0.46-0.46c0.19-0.18,0.39-0.4,0.62-0.54c0.43-0.25,0.87-0.41,1.38-0.39
		c0.59,0.03,1.15,0.3,1.55,0.74c0.83,0.92,0.73,2.33-0.16,3.16c-0.19,0.18-0.38,0.36-0.56,0.55c-0.34,0.37-0.66,0.75-0.97,1.15
		c-0.26,0.37-0.51,0.76-0.74,1.15c-0.19,0.35-0.35,0.72-0.51,1.09c-0.15,0.41-0.29,0.83-0.4,1.25c-0.11,0.49-0.18,0.97-0.25,1.46
		c-0.03,0.36-0.04,0.72-0.05,1.09c0.02,0.53,0.05,1.05,0.11,1.58c0.09,0.54,0.2,1.07,0.33,1.61c0.18,0.6,0.38,1.19,0.61,1.77
		c0.32,0.72,0.66,1.42,1.06,2.1c0.43,0.7,0.89,1.38,1.4,2.03c0.58,0.71,1.2,1.39,1.85,2.03c0.77,0.73,1.57,1.41,2.41,2.04
		c0.87,0.63,1.78,1.21,2.71,1.74c0.38,0.2,0.75,0.4,1.13,0.58c0.28,0.04,0.57,0.08,0.86,0.12c5.54,0.67,11.09,1.11,16.65,1.34
		c0.19-0.07,0.38-0.14,0.57-0.22c0.56-0.25,1.1-0.52,1.63-0.82c0.48-0.29,0.95-0.61,1.4-0.95c0.42-0.34,0.83-0.7,1.21-1.09
		c0.32-0.35,0.62-0.71,0.91-1.08c0.23-0.33,0.45-0.67,0.65-1.02c0.19-0.37,0.37-0.74,0.53-1.13c0.17-0.44,0.31-0.88,0.43-1.33
		c0.1-0.42,0.17-0.85,0.23-1.28c0.04-0.44,0.07-0.88,0.07-1.33c0-0.03,0-0.05,0-0.08c-1.08-1.85-1.9-3.85-2.44-5.94
		c-0.24-0.93-0.27-1.88-0.24-2.83c-0.57-0.44-1.14-0.89-1.71-1.33c-0.63-0.49-1.28-0.98-1.85-1.56c-0.8-0.79-1.23-1.93-1.73-2.92
		c-1-2.02-2.01-4.03-3.03-6.03c-0.11-0.22-0.23-0.45-0.34-0.67c-0.26-0.5-0.52-1-0.77-1.5c-0.31-0.61-0.66-1.21-0.91-1.84
		c-0.02-0.04-0.03-0.08-0.05-0.13c0.83-0.69,1.72-1.3,2.63-1.84c0.35-0.21,0.7-0.41,1.06-0.6c0.12-0.07,0.24-0.13,0.36-0.19
		c2.47-1.28,5.16-2.16,7.9-2.61c2.86-0.46,5.72-0.52,8.59-0.13c0.69,0.09,1.37,0.22,2.05,0.38c0.45,0.11,0.45,0.11,0,0
		c0.12,0.03,0.23,0.06,0.34,0.08c0.23,0.06,0.46,0.12,0.68,0.18c0.11,0.03,0.23,0.07,0.34,0.1c0.22,0.06,0.43,0.13,0.64,0.2
		c0.64,0.2,1.26,0.45,1.87,0.71c0.13,0.04,0.25,0.08,0.38,0.14c0.15,0.07,0.3,0.14,0.44,0.21c0.03,0.02,0.06,0.03,0.09,0.04l0,0
		c0.21,0.12,0.42,0.25,0.59,0.43c0.04,0.03,0.07,0.07,0.1,0.1l0,0c0.07,0.08,0.14,0.17,0.2,0.26c0.55,0.83,0.45,1.98-0.22,2.72
		c-0.03,0.04-0.07,0.07-0.1,0.11c-0.14,0.67-0.32,1.32-0.48,1.99c-0.21,0.85-0.4,1.69-0.67,2.52c-0.55,1.62-1.17,3.23-1.85,4.81
		c-0.77,1.78-1.8,3.49-3.08,4.94c-0.47,0.53-0.97,1.04-1.51,1.51c-0.07,0.06-0.13,0.12-0.2,0.18c-0.06,0.05-0.12,0.1-0.18,0.15
		s-0.12,0.1-0.19,0.15c-0.08,0.07-0.17,0.13-0.25,0.2c-0.12,0.09-0.24,0.18-0.36,0.27c-0.47,0.33-0.96,0.63-1.46,0.92
		c-0.2,0.11-0.4,0.23-0.6,0.34c-0.04,0.02-0.07,0.04-0.11,0.06c-0.22,0.12-0.44,0.24-0.66,0.37c0.07,0.17,0.13,0.34,0.19,0.52
		c0.03,0.09,0.06,0.18,0.09,0.26c0.03,0.09,0.06,0.18,0.09,0.26c0.04,0.14,0.09,0.28,0.13,0.42c0.3,1.04,0.51,2.11,0.61,3.18
		c0.21,0.32,0.43,0.64,0.65,0.95c0.53,0.69,1.09,1.35,1.62,1.91c0.03,0.03,0.06,0.06,0.09,0.09l0.02,0.02
		c0.55,0.54,1.13,1.06,1.74,1.55c0.73,0.57,1.5,1.08,2.3,1.56c0.7,0.39,1.42,0.74,2.16,1.06c0.8,0.32,1.6,0.59,2.37,0.81
		c0.86,0.23,1.74,0.39,2.63,0.51c0.77,0.09,1.54,0.13,2.32,0.14c0.8-0.01,1.6-0.07,2.4-0.16c0.83-0.12,1.64-0.27,2.44-0.48
		c0.74-0.2,1.47-0.45,2.19-0.72c0.75-0.31,1.48-0.66,2.19-1.05c0.74-0.43,1.46-0.9,2.16-1.4c0.68-0.52,1.33-1.08,1.94-1.68
		c0.6-0.61,1.16-1.24,1.69-1.91c0.49-0.65,0.94-1.32,1.36-2.02c0.42-0.74,0.8-1.5,1.13-2.28c0.32-0.78,0.58-1.58,0.82-2.38
		c0.21-0.82,0.37-1.64,0.49-2.48c0.09-0.8,0.15-1.6,0.16-2.41c0-0.5-0.02-0.99-0.06-1.48c-0.1-1.22,0.89-2.31,2.09-2.38
		c1.22-0.08,2.31,0.88,2.38,2.1c0.17,2.65-0.1,5.29-0.78,7.86c-0.58,2.14-1.46,4.18-2.61,6.06c-0.14,0.23-0.28,0.46-0.44,0.69
		c-0.08,0.11-0.15,0.23-0.23,0.34c-0.09,0.13-0.17,0.25-0.27,0.38c-0.02,0.03-0.04,0.06-0.07,0.1c-0.07,0.1-0.14,0.2-0.22,0.3
		c-0.05,0.06-0.09,0.13-0.14,0.19c-0.09,0.12-0.18,0.23-0.26,0.34c-0.01,0.01-0.02,0.02-0.03,0.03c-0.11,0.14-0.21,0.27-0.33,0.41
		c-0.11,0.14-0.23,0.28-0.35,0.42c-0.04,0.04-0.07,0.08-0.11,0.13c-0.1,0.12-0.21,0.23-0.31,0.34c-0.04,0.04-0.08,0.08-0.11,0.12
		c-0.12,0.14-0.25,0.27-0.38,0.4c-0.16,0.16-0.31,0.32-0.48,0.47c-0.16,0.16-0.32,0.31-0.49,0.46s-0.33,0.3-0.5,0.45
		c-0.14,0.13-0.29,0.25-0.43,0.36c-0.06,0.06-0.13,0.11-0.19,0.16c-0.12,0.1-0.24,0.19-0.36,0.28c-0.03,0.03-0.07,0.05-0.1,0.08
		c-0.16,0.13-0.32,0.25-0.49,0.36c-0.18,0.13-0.36,0.26-0.54,0.38c0.11-0.02,0.23-0.04,0.34-0.06c1.37-0.25,2.73-0.52,4.09-0.81
		c0.78-0.16,1.55-0.33,2.32-0.5c0.17-0.04,0.34-0.08,0.52-0.12c0.32-0.07,0.65-0.15,0.98-0.22c0.42-0.1,0.85-0.2,1.27-0.3
		c0.42-0.1,0.84-0.2,1.27-0.31s0.84-0.21,1.26-0.32c1.05-0.28,2.1-0.57,3.14-0.87c0.35-0.1,0.69-0.2,1.04-0.3
		c1.39-0.41,2.77-0.84,4.14-1.3c1.03-0.34,2.06-0.69,3.08-1.05c0.68-0.24,1.36-0.49,2.04-0.74c1.02-0.38,2.03-0.77,3.04-1.17
		c0.32-0.13,0.64-0.27,0.96-0.41c0.66-0.28,1.32-0.57,1.98-0.86c0.23-0.1,0.46-0.21,0.69-0.31c0.5-0.23,0.99-0.46,1.48-0.69
		c0.24-0.11,0.48-0.23,0.72-0.34s0.48-0.23,0.72-0.35c0.63-0.31,1.26-0.63,1.89-0.95c1.03-0.53,2.05-1.08,3.06-1.65
		c2.79-1.64,5.48-3.41,8.07-5.34c1.84-1.45,3.59-2.97,5.27-4.6c1.2-1.25,2.35-2.53,3.43-3.88c0.97-1.31,1.87-2.65,2.7-4.05
		c0.55-1.02,1.05-2.06,1.51-3.13c0.36-0.96,0.69-1.92,0.97-2.91c0.22-0.92,0.41-1.84,0.55-2.77L618.92,435.85z M631.76,426.11
		c0.88,4.09,0.88,8.3,0.28,12.43c-0.67,4.63-2.45,9.06-4.75,13.11c-4.34,7.61-10.95,13.67-18.09,18.63
		c-3.83,2.66-7.91,4.99-12.13,7.04c-0.04,1.45-0.19,2.89-0.41,4.28c-1.3,8.18-4.68,15.89-9.56,22.57c-2.71,3.7-5.97,7.14-9.71,9.8
		c-2.91,2.07-6.08,3.67-9.59,4.42c-1.13,0.24-2.26,0.36-3.39,0.36c-2.36,0-4.69-0.53-6.84-1.58c-0.88-0.43-1.68-0.95-2.41-1.55
		c-0.33,0.41-0.68,0.79-1.04,1.13c-1.79,1.71-3.84,3.02-6.08,4.08c-3.64,1.73-7.54,2.8-11.48,3.64c-7.72,1.64-15.63,2.34-23.52,2.72
		c-3.94,0.19-7.9,0.28-11.85,0.28c-4.34,0-8.68-0.1-13.01-0.28c-8.22-0.33-16.42-0.92-24.6-1.81c-8.21-0.89-16.38-2.09-24.5-3.58
		s-16.16-3.33-24.06-5.73c-2.05-0.62-4.09-1.28-6.11-2c-11.75,6.1-23.82,11.54-36.12,16.43c-6.95,2.76-13.97,5.36-21.04,7.79
		c2.4,0.14,4.8,0.3,7.19,0.48c7.82,0.58,15.6,1.43,23.36,2.52c8.48,1.2,16.93,2.6,25.25,4.65c4.15,1.02,8.32,2.18,12.32,3.68
		c2.19,0.82,4.38,1.69,6.47,2.75c3.2,1.63,6.45,3.62,8.61,6.56c1.74,2.36,2.76,5.15,2.41,8.11c-0.29,2.47-1.43,4.55-3.03,6.42
		c-1.7,2-4.16,3.39-6.47,4.54c-3.92,1.95-8.21,3.13-12.45,4.16c-7.86,1.92-15.99,2.92-24.04,3.67c-8.1,0.75-16.24,1.17-24.37,1.32
		c-2.7,0.05-5.41,0.08-8.11,0.08c-13.38,0-26.77-0.62-40.09-1.87c-8.47-0.79-16.92-1.85-25.3-3.27c-8.37-1.42-16.69-3.2-24.8-5.74
		c-3.96-1.24-7.9-2.74-11.53-4.75c-3.87-2.13-7.73-5.07-9.12-9.46c-0.13-0.41-0.23-0.82-0.31-1.24c-7.12,0.6-14.25,0.96-21.39,1.05
		c-1.13,0.01-2.27,0.02-3.4,0.02c-6.93,0-13.88-0.27-20.78-0.95c-8.06-0.8-16.12-2.06-23.92-4.25c-8.27-2.32-16.4-5.6-23.29-10.8
		c-3.55-2.68-6.64-5.93-9.05-9.68c-0.21-0.32-0.41-0.65-0.6-0.98c-13.13,9.01-30,9-40.8,23.2c-6.7,5-14.21,7.89-22.02,8.96
		c-2.36,0.32-4.75,0.49-7.16,0.49c-13.15,0-26.65-4.75-38.12-12.93C5.49,525.88-3.34,464.75,1.05,417.22
		c7.75-84.19,37.4-195.53,96.73-216.43c12.47-1.05,25.61-0.17,34.19,19.43c10.07,33.48,3.27,66.59-8.41,91.66
		c-3.94,1.88-11.18,4.22-13.28-4.88c0.73-28.26,15.54-61.13-4.53-87.86c-26.47-3.06-41.3,35.84-55.46,67.29
		c-21.69,65.33-43.9,142.12-14.21,220.5c6.3,9.19,9.16,26.9,19.65,26.79c12.66,15.69,30.58,14.57,45.25,11.21
		c15.37-3.66,26.78-17.93,40.26-25.53c0.08-3.26,0.69-6.53,1.6-9.63c1.16-3.93,2.91-7.67,5-11.19c4.09-6.9,9.25-13.05,14.96-18.66
		c11.52-11.32,24.94-20.68,38.8-28.88c13.82-8.18,28.32-15.39,43.14-21.58c2.18-0.91,4.39-1.76,6.58-2.65
		c2.49-1.01,4.97-2.06,7.49-3c4.56-1.7,9.2-3.18,13.39-4.76c3.91-1.5,7.86-2.85,11.86-4.11c7.71-2.43,15.5-4.63,23.29-6.75
		c4.01-1.09,8.05-2.14,12.12-2.96c3.66-0.74,7.32-1.53,10.97-2.32c3.46-0.75,6.93-1.32,10.42-1.89c3.81-0.62,7.58-1.48,11.39-2.12
		c7.85-1.32,15.79-2.11,23.69-3.04c7.3-0.85,14.64-0.87,21.97-1.28c2.49-0.14,4.98-0.21,7.48-0.08c2.26,0.12,4.52,0.34,6.78,0.42
		c1.69,0.01,3.39,0,5.08,0.08c1.63,0.08,3.25,0.31,4.87,0.52c1.59,0.21,3.19,0.38,4.78,0.55c0.76,0.08,1.52,0.2,2.27,0.33
		c3.03-2.25,6.23-4.28,9.52-6.13c0.65-0.37,1.3-0.72,1.96-1.07c0.14-3.25,0.27-6.5,0.41-9.74c0.29-6.91,0.56-13.83,0.87-20.74
		c0.1-2.24,0.31-4.48,0.54-6.71c0.12-1.14,0.17-2.34,0.49-3.45l0,0c-0.05-0.03-0.1-0.05-0.14-0.07c-0.07-0.02-0.13-0.05-0.14-0.05
		c-0.33-0.09-0.63-0.2-0.9-0.43c-0.79-0.66-0.74-1.83-0.04-2.52c0.54-0.53,1.48-0.58,2.02-0.65c0.43-0.06,0.85-0.08,1.28,0
		c0.39,0.07,0.76,0.19,1.13,0.33c0.94,0.36,1.84,0.85,2.69,1.39c1.7,1.06,3.25,2.33,4.73,3.67c2.5,2.27,4.75,4.79,6.86,7.42
		c0.07,0.07,0.13,0.15,0.19,0.23c0,0,0,0,0.01,0.01c0.22,0.27,0.43,0.54,0.64,0.81c2.4,3.06,4.56,6.31,6.56,9.65
		c1.81,3.02,3.43,6.15,4.84,9.38c1.81-0.45,3.61-0.86,5.45-1.16c1.82-0.3,3.65-0.6,5.47-0.92c4.25-0.73,8.52-1.42,12.8-1.9
		c3.91-0.43,7.84-0.73,11.77-0.94c4.23-0.23,8.46-0.24,12.69-0.11c4.08,0.13,8.17,0.24,12.24,0.5c2.5,0.16,4.98,0.42,7.47,0.72
		c3.75,0.49,7.44,1.24,11.17,1.82c3.96,0.62,7.95,1.26,11.86,2.18c0.66-1.09,1.36-2.15,2.11-3.19c4.64-7.45,11.08-13.5,17.25-19.67
		c2.79-3.29,5.76-6,8.74-9.04c1.7-1.93,3.53-3.73,5.47-5.42c0.67-0.58,1.29-1.24,1.92-1.89c0.15-0.16,0.3-0.31,0.45-0.47
		c0.08-0.09,0.16-0.17,0.24-0.25c0.02-0.02,0.03-0.03,0.05-0.05c0.1-0.1,0.2-0.2,0.29-0.3c0.1-0.1,0.2-0.2,0.3-0.29
		c0.02-0.02,0.05-0.04,0.07-0.07c0.18-0.17,0.36-0.33,0.54-0.5c0.11-0.09,0.21-0.18,0.32-0.26c0.11-0.09,0.21-0.17,0.32-0.25
		s0.22-0.16,0.33-0.24c0.16-0.12,0.32-0.22,0.49-0.3c0.05,0.13,0.1,0.26,0.15,0.39c0.3,0.74,0.58,1.48,0.79,2.25
		c0.04,0.16,0.09,0.32,0.12,0.49c0.04,0.15,0.07,0.29,0.1,0.44c0,0.02,0,0.03,0.01,0.05c0.04,0.16,0.07,0.33,0.1,0.49
		c0.03,0.16,0.06,0.33,0.09,0.5c0.18,1.01,0.31,2.04,0.43,3.06c0.2,1.68,0.35,3.37,0.46,5.06c0.43,6.8,0.34,13.64-0.11,20.43
		c-0.48,7.11-1.3,14.2-2.7,21.19c-0.06,0.29-0.12,0.58-0.18,0.86c5.8,3.33,11.29,7.2,16.12,11.86c6.6,6.36,11.93,14.28,13.86,23.34
		L631.76,426.11z"/>
	<path class="st0" d="M573.62,414.58c0.57,1.08,0.18,2.45-0.91,3.04c-1.06,0.57-2.47,0.18-3.04-0.9c-0.02-0.04-0.05-0.08-0.07-0.12
		c-0.02-0.03-0.04-0.06-0.05-0.09c-0.4-0.64-0.84-1.25-1.31-1.83c-0.49-0.58-1-1.13-1.55-1.65c-0.59-0.54-1.22-1.05-1.88-1.52
		c-0.61-0.42-1.24-0.8-1.9-1.16c-0.69-0.35-1.4-0.66-2.12-0.94c-0.74-0.26-1.49-0.48-2.26-0.65c-0.74-0.15-1.48-0.26-2.22-0.33
		c-0.73-0.05-1.45-0.06-2.18-0.04c-0.73,0.04-1.46,0.12-2.18,0.24c-0.73,0.14-1.44,0.31-2.15,0.52c-0.7,0.23-1.39,0.49-2.07,0.8
		c-0.66,0.31-1.31,0.66-1.94,1.05c-0.63,0.41-1.24,0.84-1.82,1.32c-0.6,0.51-1.17,1.05-1.71,1.62c-0.55,0.6-1.1,1.21-1.62,1.84
		c-0.51,0.63-0.97,1.29-1.52,1.9c-0.32,0.47-0.89,0.72-1.45,0.72c-0.32,0-0.65-0.08-0.93-0.25c-0.82-0.5-1.04-1.51-0.65-2.34
		c-0.02,0.03-0.03,0.06-0.05,0.09l0,0c-0.02,0.06-0.05,0.12-0.07,0.18c0.2-0.82,0.56-1.58,0.98-2.32c0.48-0.84,0.98-1.66,1.61-2.38
		c1.42-1.63,3.07-3.02,4.9-4.17c2.73-1.69,5.78-2.76,8.98-3.15c3.61-0.43,7.29,0.1,10.65,1.45c2.41,0.97,4.64,2.4,6.54,4.16
		c1.49,1.37,2.74,2.95,3.83,4.66c0,0,0,0,0,0.01c0.03,0.05,0.06,0.09,0.09,0.14c0.02,0.04,0.05,0.07,0.07,0.11V414.58z"/>
	<path class="st0" d="M516.08,419.19c0.7,0.86,0.73,2.1-0.02,2.95c-0.79,0.9-2.26,1.03-3.15,0.21c-0.13-0.11-0.26-0.23-0.39-0.34
		c-0.04-0.03-0.08-0.07-0.11-0.1c-0.29-0.25-0.59-0.49-0.9-0.72c-0.92-0.7-1.89-1.34-2.89-1.93c-0.93-0.52-1.89-0.98-2.87-1.39
		c-0.93-0.36-1.87-0.67-2.83-0.93c-0.88-0.22-1.77-0.38-2.67-0.5c-0.76-0.08-1.53-0.12-2.3-0.12c-0.68,0.02-1.36,0.06-2.03,0.15
		c-0.62,0.09-1.24,0.22-1.84,0.38c-0.54,0.15-1.07,0.33-1.59,0.54c-0.46,0.2-0.9,0.42-1.34,0.66c-0.4,0.24-0.79,0.49-1.16,0.76
		c-0.4,0.32-0.79,0.65-1.16,1.01c-0.33,0.34-0.65,0.7-0.94,1.07c-0.25,0.34-0.48,0.68-0.7,1.04c-0.2,0.33-0.38,0.66-0.61,0.97
		c-0.24,0.3-0.5,0.52-0.86,0.71c-0.29,0.15-0.6,0.22-0.92,0.22c-0.51,0-1.03-0.19-1.43-0.53c-0.7-0.6-0.87-1.56-0.62-2.41
		c0.12-0.42,0.33-0.79,0.55-1.16c1.67-2.82,4.2-5.04,7.21-6.35c2.97-1.3,6.28-1.72,9.51-1.44c3.14,0.28,6.16,1.16,9.01,2.5
		c1.58,0.74,3.08,1.66,4.49,2.67c0.59,0.43,1.16,0.89,1.72,1.35c0.09,0.06,0.18,0.12,0.26,0.19c0.2,0.17,0.42,0.34,0.59,0.54
		L516.08,419.19z"/>
	<path class="st0" d="M511.66,423.47c0.51,0.56,0.65,1.34,0.5,2.06c-0.07,0.31-0.15,0.63-0.23,0.94c-0.21,0.78-0.47,1.54-0.76,2.29
		c-0.35,0.92-0.7,1.85-1.2,2.7c-0.23,0.4-0.48,0.78-0.77,1.13c-0.65,0.81-1.47,1.4-2.43,1.78c-0.86,0.34-1.75,0.55-2.64,0.76
		c-0.93,0.22-1.85,0.38-2.8,0.38h-0.12c-0.85-0.01-1.7-0.09-2.55-0.17c-0.97-0.1-1.95-0.19-2.91-0.41
		c-0.66-0.15-1.29-0.38-1.94-0.56c-0.53-0.12-1.06-0.2-1.6-0.28c-1.14-0.16-2.23-0.43-3.21-1.06c-0.53-0.33-1.06-0.68-1.53-1.1
		c-0.28-0.25-0.54-0.52-0.76-0.82c-0.16-0.22-0.29-0.46-0.4-0.7c-0.21-0.15-0.41-0.3-0.58-0.52c-0.29-0.39-0.5-0.81-0.54-1.31
		c-0.06-0.76,0.31-1.41,0.9-1.84c0.75-0.55,1.84-0.52,2.62-0.07c0.38,0.22,0.74,0.43,1.03,0.77c0.27,0.3,0.44,0.64,0.55,0.91
		c0.03,0.06,0.05,0.11,0.06,0.14c0,0.01,0,0.02,0.01,0.03c0.07,0.06,0.15,0.13,0.22,0.19c0.3,0.22,0.61,0.43,0.93,0.63
		c0.06,0.03,0.12,0.07,0.18,0.09s0.12,0.04,0.17,0.06c0.8,0.18,1.62,0.27,2.43,0.42c0.75,0.14,1.47,0.4,2.21,0.61
		c0.45,0.1,0.89,0.19,1.35,0.25c1.17,0.12,2.34,0.25,3.51,0.28c0.19,0,0.37-0.02,0.55-0.03c0.79-0.13,1.57-0.32,2.35-0.52
		c0.29-0.09,0.57-0.18,0.85-0.28c0.09-0.04,0.17-0.08,0.25-0.12c0.04-0.03,0.09-0.06,0.13-0.09c0.03-0.03,0.06-0.06,0.1-0.08
		c0.03-0.04,0.07-0.08,0.1-0.12c0.17-0.23,0.32-0.47,0.47-0.71c0.18-0.36,0.34-0.72,0.5-1.09c0.36-0.93,0.7-1.86,0.97-2.82
		c0-0.02,0-0.04,0.01-0.05c-0.03-0.47,0.09-0.96,0.37-1.36c0.37-0.53,0.86-0.88,1.5-1.03c0.79-0.18,1.61,0.15,2.13,0.73
		L511.66,423.47z"/>
	<path class="st0" d="M568.26,421.92c0.21,0.96,0.29,1.94,0.16,2.93c-0.26,1.84-1.08,3.54-2.41,4.85c-2.21,2.19-5.32,3.09-8.37,3.17
		c-0.13,0-0.26,0-0.39,0c-3.19,0-6.36-1-9.04-2.71c-2.09-1.33-3.94-3.27-4.92-5.58c-0.26-0.61-0.51-1.29-0.4-1.97
		c0.19-1.24,1.1-2.23,2.44-2.02c0.89,0.14,1.58,0.95,1.89,1.75c0.12,0.3,0.24,0.6,0.39,0.89c0.15,0.27,0.31,0.54,0.49,0.8
		c0.21,0.28,0.43,0.55,0.66,0.81c0.31,0.32,0.62,0.61,0.96,0.9c0.39,0.3,0.79,0.58,1.2,0.85c0.46,0.27,0.92,0.51,1.4,0.73
		c0.53,0.23,1.06,0.42,1.61,0.59c0.5,0.14,1.01,0.25,1.52,0.34c0.56,0.08,1.11,0.13,1.68,0.15c0.46,0,0.91-0.02,1.37-0.06
		c0.41-0.05,0.82-0.12,1.22-0.2c0.34-0.09,0.69-0.19,1.03-0.31c0.26-0.1,0.52-0.22,0.78-0.34c0.25-0.14,0.5-0.29,0.74-0.45
		c0.17-0.13,0.33-0.26,0.49-0.41c0.14-0.14,0.27-0.28,0.4-0.43c0.11-0.14,0.21-0.28,0.31-0.43c0.08-0.15,0.16-0.29,0.24-0.45
		c0.06-0.16,0.12-0.32,0.18-0.48c0.04-0.15,0.07-0.29,0.1-0.44c0.02-0.16,0.04-0.33,0.05-0.49c0-0.17-0.01-0.33-0.02-0.5
		c-0.02-0.18-0.05-0.35-0.09-0.52v-0.02c-0.04-0.15-0.08-0.29-0.12-0.44c-0.35-1.05,0.23-2.25,1.23-2.69c1.11-0.5,2.47,0,2.96,1.12
		c0.1,0.22,0.17,0.46,0.23,0.7c0.03,0.12,0.05,0.23,0.07,0.35L568.26,421.92z"/>
</g>
<g id="cat">
	<path d="M516.96,495.74c-8.74-0.37-17.48-1.31-26.08-2.83c-8.56-1.51-17.04-3.6-25.28-6.38c-8.12-2.73-15.95-6.2-23.37-10.48
		c-3.96-2.28-7.73-4.91-11.25-7.81c-3.41-2.8-6.6-5.94-9.31-9.43c-2.77-3.56-5.12-7.42-6.74-11.64c-1.7-4.43-2.47-9.03-2.44-13.77
		c0.04-4.64,1.27-9.23,3.06-13.48c1.71-4.05,4.3-7.63,7.18-10.91c5.49-6.25,12.31-11.16,19.52-15.23c3.44-1.94,7.05-3.59,10.67-5.16
		c3.44-1.49,6.97-2.58,10.54-3.71c3.96-1.25,7.95-2.45,11.98-3.47c2.07-0.53,4.14-1.02,6.26-1.36c1.82-0.3,3.65-0.6,5.47-0.92
		c4.25-0.73,8.52-1.42,12.8-1.9c3.91-0.43,7.84-0.73,11.77-0.94c4.22-0.23,8.46-0.24,12.69-0.11c4.08,0.13,8.17,0.24,12.25,0.5
		c2.5,0.16,4.98,0.42,7.47,0.72c3.75,0.49,7.44,1.24,11.17,1.82c4.07,0.63,8.17,1.29,12.18,2.25c2.21,0.52,4.4,1.11,6.57,1.77
		c1.18-0.49,2.5-0.65,3.83-0.42c0.71,0.13,1.43,0.39,2.12,0.61c0.3,0.09,0.59,0.21,0.86,0.34c0.68,0.21,1.36,0.41,2.03,0.64
		c1.66,0.56,3.32,1.16,4.96,1.8c4.05,1.57,8.07,3.26,11.95,5.22c7.84,3.96,15.29,8.72,21.63,14.83c6.6,6.36,11.93,14.28,13.86,23.34
		c0.87,4.09,0.88,8.3,0.28,12.43c-0.67,4.63-2.45,9.06-4.75,13.1c-4.34,7.61-10.95,13.68-18.09,18.63
		c-6.92,4.81-14.65,8.52-22.52,11.49c-15.37,5.79-31.6,8.78-47.93,10.1c-5.01,0.41-10.04,0.58-15.07,0.58
		c-3.42,0-6.83-0.08-10.24-0.23L516.96,495.74z M526.88,482.65c8.25-0.07,16.48-0.56,24.67-1.61c6.88-0.92,13.71-2.25,20.44-3.97
		c5.6-1.5,11.09-3.28,16.47-5.44c3.94-1.64,7.78-3.48,11.5-5.57c2.79-1.64,5.48-3.41,8.08-5.34c1.84-1.45,3.59-2.97,5.27-4.6
		c1.2-1.25,2.35-2.53,3.43-3.88c0.97-1.31,1.87-2.65,2.7-4.05c0.55-1.02,1.05-2.06,1.51-3.12c0.36-0.96,0.69-1.92,0.97-2.91
		c0.22-0.92,0.4-1.84,0.55-2.77c0.09-0.95,0.15-1.89,0.17-2.84c-0.03-0.91-0.09-1.8-0.19-2.7c-0.14-0.89-0.32-1.76-0.53-2.63
		c-0.29-1.01-0.62-2-1-2.98c-0.52-1.19-1.08-2.35-1.7-3.49c-0.79-1.31-1.63-2.58-2.53-3.82c-1.16-1.47-2.39-2.87-3.69-4.22
		c-1.87-1.83-3.83-3.54-5.89-5.15c-2.84-2.11-5.8-4.03-8.85-5.81c-3.97-2.19-8.03-4.16-12.22-5.89c-1.95-0.77-3.91-1.5-5.88-2.18
		c-1.21-0.42-2.42-0.85-3.65-1.24c-0.24-0.05-0.48-0.11-0.72-0.18c-0.35-0.11-0.69-0.22-1.04-0.34h-0.01
		c-0.35-0.12-0.69-0.25-1.04-0.39c0,0,0-0.02,0.01-0.03c-1.03-0.49-1.92-1.21-2.6-2.18c-1.87-0.45-3.75-0.9-5.63-1.33
		c-4.64-1.08-9.27-2.22-13.99-2.89c-4.07-0.48-8.18-0.75-12.26-1.09c-4.55-0.38-9.12-0.74-13.69-0.76
		c-5.15,0.04-10.31,0.2-15.45,0.47c-5.11,0.26-10.23,0.79-15.14,1.41c-0.06,0-0.12,0.02-0.18,0.02l0,0
		c-3.31,0.45-6.62,0.98-9.87,1.77c-3.29,0.8-6.59,1.57-9.87,2.41c-3.42,0.92-6.82,1.93-10.11,3.23c-5.22,2.15-10.39,4.41-15.32,7.17
		c-3,1.75-5.9,3.63-8.69,5.71c-2.01,1.57-3.89,3.24-5.72,5.01c-1.06,1.1-2.06,2.27-3,3.47c-1,1.35-1.9,2.76-2.76,4.2
		c-0.67,1.21-1.28,2.45-1.83,3.71c-0.39,1-0.72,2.02-1.02,3.05c-0.22,0.92-0.4,1.84-0.55,2.77c-0.09,0.93-0.15,1.85-0.17,2.79
		c0.03,0.83,0.08,1.65,0.17,2.47c0.16,1.04,0.36,2.06,0.61,3.08c0.27,0.92,0.57,1.83,0.91,2.73c0.51,1.19,1.06,2.34,1.68,3.48
		c0.78,1.31,1.63,2.58,2.53,3.81c1.25,1.59,2.58,3.09,3.99,4.54c1.84,1.77,3.76,3.43,5.77,5c2.78,2.06,5.66,3.94,8.65,5.68
		c4.03,2.23,8.17,4.21,12.43,5.98c5.68,2.24,11.47,4.12,17.36,5.7c7.34,1.87,14.79,3.24,22.3,4.23c8.18,0.99,16.4,1.49,24.65,1.51
		L526.88,482.65z"/>
	<path d="M312.82,552.08c0.31-0.87,0.64-1.74,0.9-2.62c0.28-0.95,0.54-1.88,0.77-2.84c0.42-1.76,0.76-3.54,0.98-5.33
		c0.06-0.51,0.13-1.02,0.19-1.53c14.46-3.72,28.76-8.1,42.79-13.21c2.58-0.94,5.15-1.9,7.72-2.88c14.1-5.42,27.92-11.58,41.31-18.57
		c1.11-0.58,2.22-1.17,3.32-1.76c0.27-0.15,0.53-0.29,0.8-0.44c3.64,1.56,7.38,2.85,11.17,4.02c1.97,0.58,3.96,1.13,5.95,1.64
		c-0.96,0.57-1.92,1.14-2.88,1.69c-3.07,1.78-6.17,3.49-8.92,4.98c-13.15,7.07-26.72,13.28-40.59,18.79
		c-15.61,6.21-31.56,11.58-47.75,16.06c-5.55,1.53-11.12,2.97-16.72,4.31c0.35-0.76,0.69-1.53,0.97-2.32L312.82,552.08z"/>
	<path d="M205.72,564.55c-8.06-0.8-16.12-2.06-23.92-4.25c-8.26-2.32-16.4-5.6-23.29-10.8c-3.56-2.68-6.65-5.93-9.05-9.68
		c-1.3-2.02-2.34-4.22-3.12-6.49c-0.82-2.37-1.24-4.8-1.46-7.28c-0.38-4.28,0.3-8.66,1.5-12.75c1.15-3.93,2.91-7.67,5-11.19
		c4.09-6.9,9.25-13.06,14.96-18.66c11.52-11.32,24.94-20.68,38.8-28.88c13.83-8.18,28.32-15.39,43.14-21.58
		c2.18-0.91,4.39-1.76,6.58-2.65c2.49-1.01,4.97-2.07,7.49-3c4.56-1.7,9.2-3.17,13.39-4.76c3.91-1.5,7.86-2.85,11.86-4.11
		c7.71-2.43,15.5-4.63,23.29-6.75c4.01-1.09,8.05-2.14,12.12-2.96c3.66-0.74,7.32-1.52,10.97-2.32c3.45-0.75,6.93-1.32,10.42-1.89
		c3.81-0.62,7.58-1.48,11.39-2.12c7.85-1.32,15.79-2.11,23.69-3.04c7.3-0.85,14.64-0.87,21.97-1.28c2.5-0.14,4.98-0.21,7.48-0.08
		c2.26,0.12,4.51,0.34,6.78,0.42c1.69,0,3.39,0,5.08,0.08c1.63,0.07,3.26,0.31,4.87,0.52c1.59,0.21,3.19,0.38,4.78,0.54
		c2.29,0.24,4.52,0.78,6.78,1.23c2.11,0.41,4.23,0.79,6.34,1.17c2.07,0.38,4.06,1.01,6.03,1.73c0,0-0.02,0-0.03,0.01
		c-0.48,0.28-0.95,0.56-1.43,0.84c-0.09,0.06-0.19,0.11-0.28,0.17c-0.24,0.15-0.48,0.29-0.72,0.44c-0.35,0.21-0.7,0.43-1.04,0.65
		c-0.18,0.11-0.35,0.23-0.53,0.34c-0.23,0.15-0.47,0.3-0.7,0.46c-0.05,0.03-0.1,0.07-0.15,0.1c-0.33,0.22-0.67,0.44-0.99,0.67
		c-0.96,0.65-1.91,1.33-2.84,2.03c-1.35,1.06-2.65,2.16-3.91,3.31c-2.15-0.26-4.3-0.39-6.45-0.57c-1.92-0.16-3.81-0.42-5.74-0.52
		c-1.87-0.09-3.75-0.09-5.62-0.25c-1.91-0.16-3.8-0.33-5.71-0.39c-1.59,0-3.17,0.12-4.75,0.18c-1.74,0.07-3.47,0.05-5.22,0.02
		c-0.57,0-1.15-0.02-1.61-0.03c-2.49-0.02-4.98,0-7.46,0.15c-2.37,0.15-4.73,0.37-7.1,0.56c-4.51,0.35-9.02,0.6-13.52,1.07
		c-3.86,0.43-7.71,0.96-11.55,1.52c-3.61,0.53-7.23,1.03-10.85,1.57c-3.58,0.54-7.09,1.34-10.62,2.11
		c-3.53,0.76-7.08,1.42-10.59,2.24c-3.54,0.87-7.04,1.87-10.57,2.75c-3.92,0.98-7.84,1.97-11.74,3.04
		c-3.85,1.06-7.67,2.22-11.48,3.42s-7.59,2.53-11.4,3.73c-3.78,1.19-7.56,2.35-11.27,3.74c-3.89,1.52-7.73,3.11-11.64,4.59
		c-3.11,1.22-6.18,2.57-9.25,3.89c-3.57,1.53-7.12,3.1-10.65,4.72c-6.61,3.04-13.14,6.28-19.54,9.73l0,0c0,0-0.01,0-0.02,0.01
		l-0.16,0.09c-9.79,5.32-19.33,11.13-28.39,17.61c-5.87,4.26-11.51,8.8-16.79,13.77c-3.21,3.08-6.25,6.33-9.08,9.77
		c-1.74,2.2-3.36,4.47-4.84,6.84c-1.02,1.74-1.96,3.52-2.79,5.35c-0.55,1.32-1.04,2.66-1.46,4.04c-0.27,1.01-0.49,2.03-0.68,3.06
		c-0.12,0.97-0.21,1.94-0.24,2.93c0,0.72,0.04,1.45,0.1,2.17c0.1,0.7,0.22,1.39,0.37,2.08c0.17,0.63,0.37,1.25,0.59,1.87
		c0.29,0.69,0.6,1.37,0.93,2.04c0.43,0.75,0.89,1.47,1.38,2.19c0.56,0.72,1.14,1.41,1.75,2.09c0.85,0.86,1.74,1.67,2.67,2.44
		c1.24,0.96,2.52,1.84,3.85,2.67c1.9,1.11,3.85,2.1,5.85,3.01c3.03,1.28,6.13,2.34,9.28,3.26c4.75,1.31,9.57,2.29,14.44,3.03
		c7.66,1.08,15.37,1.61,23.1,1.78c9.38,0.13,18.75-0.27,28.1-1.05c1.03,1.3,2.14,2.54,3.25,3.77c1.22,1.33,2.56,2.52,3.97,3.65
		c1.38,1.11,2.92,1.97,4.47,2.82c0.05,0.03,0.1,0.06,0.14,0.08c0.99,0.54,1.98,1.07,2.99,1.56c-11.78,1.48-23.64,2.39-35.51,2.54
		c-1.13,0.01-2.26,0.02-3.4,0.02c-6.94,0-13.88-0.27-20.78-0.95L205.72,564.55z"/>
	<path d="M472.15,474.62c-2.2,2.47-4.52,4.83-6.92,7.09c-4.18,3.94-8.57,7.65-13.13,11.15c-2.47-0.05-4.95-0.06-7.42-0.04
		c-1.3,0.05-2.59,0.1-3.5,0.09c-2.39-0.04-4.8,0.13-7.19,0.25c-0.43,0.02-0.86,0.05-1.29,0.07c-0.17,0.02-0.35,0.04-0.53,0.05
		c-0.46,0.03-0.91,0.06-1.37,0.08h-0.25c-1,0.07-2.01,0.14-3.02,0.23c4-2.51,7.92-5.13,11.77-7.88c5.74-4.18,11.29-8.61,16.46-13.47
		c0.95-0.91,1.89-1.84,2.81-2.77l0,0c1.32,0.6,2.65,1.18,3.99,1.74c3.16,1.25,6.35,2.38,9.58,3.42L472.15,474.62z"/>
	<path d="M311.84,554.43c0.36-0.77,0.7-1.55,0.99-2.35c0.31-0.87,0.64-1.74,0.9-2.62c0.28-0.95,0.54-1.88,0.77-2.84
		c0.42-1.76,0.76-3.54,0.98-5.33c0.11-0.92,0.23-1.83,0.35-2.75c0.06-0.51,0.11-1.01,0.13-1.51c0.01-0.26-0.02-0.52,0-0.78
		c0,0,0,0.01,0,0.02c0.01-0.45-0.03-0.9-0.29-1.3c-0.03-0.04-0.06-0.08-0.09-0.12c0.17-0.43,0.32-0.87,0.48-1.31
		c0.33-1.11,0.62-2.22,0.86-3.35c0.18-1.1,0.31-2.19,0.39-3.3c0.03-1.04,0.01-2.08-0.05-3.13c-0.11-1-0.25-1.98-0.44-2.96
		c-0.24-0.99-0.51-1.95-0.83-2.91c-0.36-0.93-0.75-1.83-1.17-2.72c-0.56-1.04-1.16-2.06-1.82-3.05c-0.69-0.95-1.43-1.87-2.2-2.76
		c-0.92-0.97-1.88-1.88-2.89-2.76c-1.14-0.91-2.31-1.76-3.53-2.56c-1.3-0.79-2.63-1.52-4-2.2l-0.33-0.15
		c-1.57-0.69-3.15-1.3-4.78-1.86c-1.95-0.58-3.92-1.08-5.92-1.47c-2.09-0.34-4.19-0.57-6.31-0.71c-2.43-0.09-4.85-0.06-7.28,0.09
		c-2.27,0.21-4.52,0.53-6.75,0.97c-2.53,0.55-5.01,1.23-7.45,2.06c-2.36,0.86-4.66,1.85-6.9,2.95c-1.96,1.03-3.85,2.17-5.69,3.41
		c-1.68,1.19-3.3,2.47-4.84,3.83c-1.37,1.28-2.67,2.63-3.9,4.05c-1.01,1.24-1.96,2.54-2.84,3.88c-0.72,1.18-1.4,2.39-2.01,3.63
		c-0.53,1.18-1,2.38-1.41,3.6c-0.33,1.1-0.61,2.21-0.83,3.34c-0.18,1.06-0.3,2.13-0.37,3.21c-0.02,0.42-0.02,0.84-0.02,1.26
		c0,0.08,0,0.17,0,0.25c0,0.23,0.02,0.46,0.02,0.69c0.28,3.13-1.81,6.21-4.91,7.07c-3.81,1.06-7.95-1.56-8.46-5.53
		c-0.08-0.68-0.09-1.37-0.11-2.05c0-0.37,0.02-0.74,0.07-1.1c0.02-1.59,0.07-3.19,0.32-4.77c0.54-3.41,1.48-6.74,2.82-9.92
		c2.59-6.17,6.53-11.82,11.39-16.42c11.42-10.78,26.68-16.9,42.3-17.83c17.14-1.02,36.01,4.61,46.74,18.73
		c2.73,3.59,4.76,7.56,6.15,11.85c1.46,4.48,1.77,9.25,1.46,13.93c-0.27,4.13-1.39,8.35-3,12.15c-0.83,1.97-1.78,3.89-2.89,5.72
		c-1.42,2.34-3.05,4.53-5.23,6.21c-0.74,0.57-1.49,1.12-2.23,1.68c-1.85,0.06-3.69,0.13-5.54,0.22c0.06-0.13,0.12-0.26,0.18-0.4
		L311.84,554.43z"/>
	<path d="M268.97,560.66c0.07,0.03,0.13,0.07,0.2,0.11C269.1,560.73,269.04,560.7,268.97,560.66z"/>
	<path d="M322.35,588.88c-8.47-0.79-16.92-1.85-25.3-3.28c-8.37-1.42-16.69-3.2-24.8-5.74c-3.96-1.24-7.9-2.74-11.53-4.75
		c-3.87-2.13-7.73-5.07-9.12-9.46c-0.39-1.22-0.54-2.51-0.47-3.79c0.08-1.49,0.52-2.82,1.13-4.16c0.43-0.96,1.06-1.86,1.79-2.67
		c1.16,1.24,2.44,2.36,3.76,3.43c1.38,1.11,2.91,1.96,4.45,2.81l0,0c0,0,0.02,0.01,0.03,0.02c0.01,0,0.02,0.01,0.04,0.02l0,0
		c1.36,0.75,2.73,1.47,4.14,2.12c0.72,0.33,1.45,0.67,2.19,0.96c0.4,0.16,0.81,0.32,1.23,0.47c0.23,0.08,0.48,0.15,0.73,0.18
		c3.27,1.34,6.61,2.42,10,3.4c8.33,2.26,16.82,3.81,25.35,5.07c15.92,2.28,32,3.44,48.08,3.79c1.06,0.02,2.12,0.04,2.32,0.05
		c14.06,0.2,28.14-0.23,42.13-1.76c5.88-0.69,11.74-1.57,17.5-2.94c2.49-0.62,4.96-1.33,7.37-2.22c0.96-0.39,1.9-0.8,2.82-1.27l0,0
		c-0.23-0.16-0.46-0.31-0.69-0.47c-1.33-0.74-2.68-1.42-4.07-2.04c-3.12-1.25-6.3-2.3-9.53-3.23c-8.47-2.31-17.12-3.91-25.79-5.2
		c-15.9-2.24-31.98-3.39-48.03-3.73c-0.71-0.02-1.42-0.03-1.64-0.03h-0.46c-8.11-0.13-16.23-0.03-24.34,0.36
		c0.06-0.13,0.12-0.27,0.19-0.4c0.36-0.77,0.7-1.55,0.99-2.35c0.31-0.87,0.64-1.74,0.9-2.62c0.28-0.95,0.54-1.88,0.77-2.84
		c0.42-1.76,0.76-3.54,0.98-5.33c15.66-0.55,31.37-0.16,47,1c7.82,0.58,15.6,1.43,23.36,2.52c8.48,1.2,16.93,2.6,25.25,4.65
		c4.15,1.02,8.32,2.18,12.32,3.68c2.19,0.82,4.38,1.69,6.47,2.75c3.2,1.63,6.45,3.62,8.61,6.56c1.74,2.36,2.76,5.15,2.41,8.11
		c-0.29,2.48-1.44,4.55-3.02,6.42c-1.7,2-4.16,3.38-6.47,4.53c-3.92,1.95-8.21,3.13-12.45,4.16c-7.86,1.92-15.99,2.92-24.04,3.67
		c-8.1,0.75-16.24,1.16-24.37,1.32c-2.7,0.05-5.41,0.08-8.11,0.08c-13.38,0-26.77-0.62-40.09-1.87L322.35,588.88z"/>
	<path d="M491.72,530.72c-8.22-0.33-16.42-0.92-24.6-1.81c-8.21-0.89-16.38-2.09-24.5-3.58s-16.16-3.33-24.06-5.73
		c-3.81-1.15-7.56-2.44-11.23-3.97c-3.85-1.61-7.81-3.46-11.1-6.07c-2.17-1.72-4.12-3.67-5.39-6.17c-1.13-2.22-1.53-4.74-1.07-7.19
		c0.39-2.08,1.41-3.99,2.81-5.56c3.01-3.36,7.5-5.16,11.69-6.52c4.17-1.35,8.52-2.15,12.84-2.8c4.15-0.62,8.35-1.04,12.54-1.32
		c0.22-0.04,0.44-0.06,0.66-0.08c0.45-0.04,0.91-0.06,1.37-0.09c0.22-0.01,0.43-0.01,0.65,0c2.67-0.16,5.34-0.29,8.01-0.31
		c0.93,0,1.86,0,2.8,0c3.36-0.03,6.73,0,10.09,0.07c8.61,0.17,17.22,0.66,25.79,1.5c14.75,1.45,29.53,3.59,43.92,7.2
		c7.13,1.78,14.29,3.86,21.04,6.79c3.8,1.65,7.69,3.48,10.92,6.12c1.77,1.44,3.44,3.05,4.58,5.06c0.69,1.22,1.2,2.48,1.49,3.85
		c0.31,1.45,0.22,2.86-0.02,4.32c-0.35,2.16-1.74,4.36-3.3,5.84c-1.79,1.71-3.84,3.02-6.07,4.08c-3.64,1.73-7.54,2.81-11.48,3.64
		c-7.72,1.64-15.64,2.34-23.52,2.72c-3.95,0.19-7.9,0.28-11.85,0.28C500.39,530.99,496.05,530.89,491.72,530.72L491.72,530.72z
		 M525.87,516.61c4.29-0.45,8.56-1.07,12.77-2.01c1.83-0.44,3.63-0.96,5.41-1.58c0.81-0.32,1.6-0.67,2.38-1.05
		c0.09-0.05,0.17-0.1,0.26-0.15c-0.59-0.45-1.19-0.88-1.81-1.29c-1.61-0.97-3.27-1.82-4.97-2.62c-3.86-1.7-7.84-3.09-11.87-4.33
		c-9.77-2.89-19.77-4.95-29.83-6.58c-14.41-2.26-28.94-3.59-42.66-4.06c-0.79-0.02-1.57-0.05-1.85-0.05
		c-3.01-0.07-6.02-0.1-9.02-0.07c-1.3,0.05-2.59,0.1-3.5,0.09c-2.39-0.04-4.8,0.13-7.19,0.25c-0.43,0.02-0.86,0.05-1.29,0.07
		c-0.17,0.02-0.35,0.04-0.53,0.05c-0.46,0.03-0.91,0.06-1.37,0.08l0,0c-0.08,0-0.16,0-0.25,0c-2.02,0.14-4.04,0.3-6.05,0.5
		c-4.17,0.46-8.32,1.06-12.42,1.98c-1.76,0.44-3.5,0.92-5.21,1.51c-0.87,0.34-1.72,0.7-2.56,1.11c-0.1,0.06-0.2,0.11-0.3,0.17
		c0.01,0.01,0.03,0.03,0.04,0.04c0.62,0.47,1.25,0.92,1.9,1.35c1.55,0.93,3.16,1.75,4.79,2.52c3.91,1.73,7.94,3.13,12.03,4.39
		c9.75,2.87,19.72,4.93,29.74,6.54c14.44,2.26,29.03,3.62,43.64,4.06c9.91,0.24,19.85,0.08,29.72-0.91L525.87,516.61z"/>
	<path d="M564.56,474.56c0.82-0.78,1.61-1.6,2.42-2.38c-0.73,1.25-1.58,2.44-2.53,3.54c-1.17,1.35-2.51,2.57-3.96,3.61
		c0.43-0.66,0.87-1.3,1.35-1.91C562.67,476.37,563.57,475.45,564.56,474.56L564.56,474.56z"/>
	<path d="M587.16,480.87c0-0.68,0-1.35-0.05-2.03c-0.05-0.43-0.12-0.86-0.2-1.29c-0.08-0.28-0.16-0.57-0.24-0.85
		c-0.08-0.19-0.16-0.37-0.24-0.55c-0.07-0.11-0.13-0.22-0.2-0.32c-0.05-0.07-0.1-0.13-0.15-0.19c-0.06-0.06-0.12-0.12-0.18-0.18
		c0,0-0.02,0-0.02-0.02c-0.03-0.01-0.05-0.03-0.08-0.04c-0.02,0-0.04-0.01-0.06-0.02c-0.05,0-0.09-0.02-0.14-0.03
		c-0.1,0-0.2-0.02-0.3-0.03c-0.15,0-0.29,0-0.44,0.02c-0.21,0.03-0.42,0.07-0.63,0.1c-0.16,0.04-0.33,0.09-0.49,0.14
		c-0.06,0.02-0.11,0.04-0.17,0.06c-0.05,0.02-0.11,0.04-0.16,0.05c-1.06,0.35-2.16,0.39-3.21,0.16c-0.36,0.24-0.72,0.47-1.08,0.71
		c-0.2,0.15-0.4,0.29-0.6,0.45c-0.02,0.03-0.05,0.05-0.08,0.08c-1.03,1.27-2.12,2.48-3.19,3.72c-0.27,0.34-0.53,0.7-0.77,1.06
		c-0.33,0.56-0.61,1.15-0.92,1.72c-0.48,0.88-1.05,1.71-1.58,2.55c-1.09,1.75-2.09,3.54-2.98,5.4c-0.7,1.58-1.32,3.19-1.86,4.84
		c-0.39,1.34-0.71,2.69-0.96,4.05c-0.13,0.93-0.23,1.85-0.29,2.79c0,0.68,0,1.37,0.05,2.06c0.06,0.46,0.13,0.92,0.22,1.37
		c0.08,0.28,0.15,0.55,0.24,0.83c0.08,0.18,0.15,0.36,0.24,0.54c0.07,0.12,0.14,0.23,0.21,0.35c0.05,0.07,0.1,0.12,0.15,0.19
		c0.05,0.05,0.09,0.09,0.14,0.14c0,0,0.02,0.01,0.03,0.02c0.02,0,0.04,0.02,0.07,0.03s0.06,0.02,0.09,0.04
		c0.05,0,0.09,0.02,0.14,0.03c0.09,0,0.17,0.02,0.25,0.03c0.15,0,0.31,0,0.46-0.02c0.21-0.03,0.41-0.06,0.61-0.1
		c0.32-0.09,0.63-0.18,0.95-0.28c0.43-0.17,0.86-0.36,1.28-0.56c0.65-0.36,1.28-0.74,1.89-1.14c0.85-0.62,1.67-1.29,2.46-1.98
		c1.03-0.98,2.01-2,2.94-3.07c1.12-1.37,2.15-2.79,3.12-4.26c0.98-1.6,1.87-3.23,2.67-4.91c0.69-1.56,1.29-3.14,1.81-4.76
		c0.37-1.3,0.69-2.61,0.94-3.94c0.14-0.98,0.25-1.95,0.3-2.94L587.16,480.87z M600.19,475.5c0.62,3.13,0.5,6.49,0,9.62
		c-1.3,8.18-4.68,15.89-9.56,22.57c-2.7,3.7-5.97,7.14-9.71,9.8c-2.91,2.07-6.08,3.67-9.59,4.42c-1.13,0.24-2.26,0.36-3.39,0.36
		c-2.36,0-4.68-0.53-6.84-1.58c-3.69-1.8-6.07-5.29-7.43-9.05c-1.34-3.7-1.38-7.9-0.92-11.77c0.48-4.01,1.6-8,3.14-11.72
		c0.99-2.38,2.12-4.69,3.42-6.91c0.31-0.54,0.64-1.07,0.97-1.6c3.93-0.73,7.83-1.59,11.7-2.58c5.6-1.5,11.09-3.28,16.47-5.44
		c2.87-1.19,5.68-2.5,8.44-3.92c0.83,1.1,1.53,2.27,2.06,3.56c0.57,1.38,0.95,2.78,1.24,4.23L600.19,475.5z"/>
	<path d="M540.27,421.68c-0.82-0.5-1.04-1.51-0.66-2.34c-0.02,0.03-0.03,0.06-0.05,0.09l0,0l0,0l0,0l0,0
		c-0.02,0.06-0.04,0.12-0.07,0.18c0.2-0.82,0.56-1.58,0.98-2.32c0.48-0.84,0.98-1.66,1.61-2.38c1.42-1.63,3.07-3.01,4.89-4.17
		c2.73-1.69,5.78-2.76,8.98-3.15c3.61-0.43,7.29,0.1,10.65,1.45c2.41,0.97,4.64,2.4,6.54,4.16c1.49,1.37,2.74,2.95,3.82,4.66
		c0,0,0,0,0,0.01l0,0l0,0l0,0c0,0,0.06,0.09,0.09,0.14c0.02,0.04,0.05,0.07,0.07,0.11c0.57,1.08,0.18,2.46-0.91,3.04
		c-1.06,0.57-2.47,0.18-3.04-0.9c-0.02-0.04-0.05-0.08-0.07-0.12c-0.02-0.03-0.04-0.06-0.05-0.09c-0.4-0.64-0.84-1.25-1.31-1.84
		c-0.49-0.58-1-1.13-1.55-1.65c-0.6-0.54-1.22-1.05-1.88-1.52c-0.61-0.42-1.24-0.8-1.9-1.16c-0.69-0.35-1.4-0.66-2.12-0.94
		c-0.74-0.26-1.49-0.47-2.26-0.65c-0.74-0.15-1.48-0.26-2.22-0.33c-0.73-0.05-1.45-0.06-2.18-0.04c-0.73,0.04-1.46,0.12-2.18,0.24
		c-0.73,0.14-1.44,0.31-2.15,0.52c-0.71,0.23-1.39,0.49-2.07,0.8c-0.67,0.32-1.31,0.66-1.94,1.05c-0.63,0.41-1.24,0.84-1.82,1.32
		c-0.6,0.51-1.17,1.05-1.71,1.62c-0.55,0.6-1.1,1.21-1.62,1.84c-0.51,0.63-0.97,1.29-1.52,1.9c-0.32,0.47-0.89,0.72-1.45,0.72
		c-0.33,0-0.65-0.08-0.93-0.25H540.27z"/>
	<path d="M486.9,426.83c-0.7-0.6-0.87-1.56-0.62-2.41c0.12-0.41,0.34-0.79,0.55-1.16c1.67-2.82,4.2-5.04,7.21-6.35
		c2.98-1.3,6.28-1.72,9.51-1.44c3.14,0.28,6.17,1.16,9.01,2.5c1.58,0.74,3.08,1.65,4.49,2.67c0.59,0.43,1.16,0.89,1.72,1.35
		c0.09,0.06,0.17,0.12,0.26,0.19c0.2,0.17,0.42,0.34,0.59,0.54c0.7,0.86,0.73,2.1-0.01,2.95c-0.79,0.9-2.26,1.03-3.15,0.21
		c-0.13-0.11-0.26-0.23-0.39-0.34c-0.04-0.03-0.08-0.07-0.11-0.1c-0.29-0.25-0.6-0.49-0.9-0.73c-0.93-0.7-1.89-1.34-2.89-1.92
		c-0.93-0.52-1.89-0.98-2.88-1.39c-0.93-0.36-1.87-0.68-2.83-0.93c-0.88-0.22-1.77-0.38-2.67-0.5c-0.76-0.08-1.53-0.12-2.3-0.12
		c-0.68,0.02-1.36,0.06-2.03,0.15c-0.62,0.09-1.24,0.22-1.85,0.37c-0.54,0.15-1.07,0.33-1.59,0.54c-0.46,0.2-0.91,0.42-1.34,0.66
		c-0.4,0.24-0.79,0.49-1.16,0.76c-0.4,0.32-0.79,0.65-1.16,1.01c-0.33,0.34-0.65,0.7-0.94,1.07c-0.25,0.34-0.48,0.69-0.7,1.04
		c-0.2,0.33-0.38,0.66-0.61,0.97c-0.25,0.3-0.5,0.52-0.86,0.71c-0.29,0.15-0.6,0.22-0.91,0.22
		C487.82,427.35,487.31,427.16,486.9,426.83L486.9,426.83z"/>
	<path d="M504.74,439.03c-0.85,0-1.7-0.08-2.55-0.17c-0.98-0.1-1.95-0.19-2.91-0.41c-0.66-0.15-1.29-0.38-1.94-0.56
		c-0.53-0.11-1.06-0.2-1.59-0.28c-1.14-0.16-2.23-0.43-3.21-1.06c-0.53-0.34-1.06-0.68-1.53-1.1c-0.28-0.25-0.54-0.52-0.76-0.82
		c-0.16-0.22-0.28-0.46-0.39-0.7c-0.21-0.15-0.41-0.3-0.58-0.52c-0.3-0.39-0.5-0.81-0.54-1.31c-0.06-0.75,0.31-1.41,0.9-1.84
		c0.75-0.55,1.84-0.52,2.62-0.07c0.38,0.22,0.74,0.43,1.03,0.77c0.27,0.3,0.44,0.64,0.55,0.91c0.02,0.06,0.05,0.11,0.06,0.14
		c0,0.01,0,0.02,0.01,0.03c0.07,0.06,0.15,0.13,0.22,0.19c0.3,0.22,0.61,0.43,0.93,0.63c0.06,0.03,0.12,0.06,0.18,0.09
		c0.06,0.02,0.11,0.04,0.17,0.06c0.8,0.18,1.62,0.27,2.43,0.42c0.75,0.14,1.48,0.4,2.21,0.62c0.45,0.1,0.89,0.19,1.35,0.25
		c1.17,0.12,2.33,0.25,3.51,0.28c0.19,0,0.37-0.02,0.56-0.03c0.79-0.13,1.57-0.32,2.35-0.52c0.29-0.09,0.57-0.18,0.85-0.28
		c0.08-0.04,0.17-0.08,0.25-0.12c0.04-0.03,0.09-0.06,0.13-0.08c0.03-0.03,0.06-0.05,0.09-0.08c0.03-0.04,0.07-0.08,0.1-0.12
		c0.16-0.23,0.32-0.47,0.47-0.72c0.18-0.36,0.34-0.72,0.5-1.09c0.36-0.93,0.7-1.86,0.97-2.82c0-0.02,0-0.03,0.01-0.05
		c-0.03-0.47,0.09-0.96,0.37-1.36c0.37-0.53,0.86-0.88,1.5-1.03c0.79-0.18,1.61,0.15,2.13,0.73c0.51,0.56,0.65,1.34,0.5,2.06
		c-0.07,0.32-0.15,0.63-0.23,0.94c-0.21,0.78-0.47,1.54-0.76,2.29c-0.35,0.92-0.7,1.85-1.2,2.7c-0.23,0.39-0.48,0.77-0.77,1.13
		c-0.65,0.81-1.47,1.4-2.43,1.78c-0.85,0.34-1.75,0.54-2.64,0.76c-0.93,0.22-1.85,0.38-2.8,0.38c-0.04,0-0.08,0-0.12,0V439.03z"/>
	<path d="M551.73,433.69c-2.09-1.33-3.94-3.28-4.92-5.58c-0.26-0.61-0.51-1.29-0.4-1.97c0.19-1.24,1.1-2.23,2.44-2.02
		c0.89,0.14,1.58,0.95,1.89,1.75c0.12,0.3,0.24,0.6,0.39,0.9c0.15,0.27,0.32,0.54,0.49,0.8c0.21,0.28,0.43,0.55,0.66,0.81
		c0.31,0.32,0.62,0.61,0.96,0.9c0.38,0.3,0.78,0.58,1.2,0.85c0.45,0.27,0.92,0.51,1.4,0.73c0.53,0.23,1.06,0.42,1.61,0.59
		c0.5,0.14,1.01,0.25,1.52,0.34c0.56,0.08,1.11,0.13,1.68,0.15c0.46,0,0.91-0.02,1.37-0.05c0.41-0.05,0.81-0.12,1.22-0.2
		c0.35-0.09,0.69-0.19,1.03-0.31c0.26-0.1,0.52-0.22,0.78-0.34c0.25-0.14,0.5-0.29,0.74-0.45c0.17-0.13,0.33-0.26,0.49-0.4
		c0.14-0.14,0.27-0.28,0.4-0.42c0.11-0.14,0.21-0.28,0.31-0.43c0.08-0.15,0.16-0.3,0.24-0.45c0.06-0.16,0.12-0.32,0.18-0.48
		c0.04-0.15,0.07-0.3,0.1-0.44c0.02-0.16,0.04-0.33,0.05-0.49c0-0.17,0-0.34-0.02-0.5c-0.02-0.18-0.05-0.35-0.09-0.52
		c0,0,0-0.01,0-0.02c-0.04-0.15-0.08-0.29-0.12-0.43c-0.35-1.05,0.23-2.25,1.23-2.69c1.11-0.5,2.47,0,2.96,1.13
		c0.1,0.22,0.17,0.46,0.23,0.7c0.03,0.12,0.05,0.23,0.07,0.35c0.21,0.96,0.3,1.94,0.16,2.93c-0.26,1.84-1.09,3.54-2.41,4.85
		c-2.21,2.19-5.32,3.09-8.37,3.17c-0.13,0-0.26,0-0.39,0c-3.19,0-6.36-1-9.04-2.71L551.73,433.69z"/>
	<path d="M541.69,444.85c0.55,0.83,0.45,1.98-0.22,2.72c-0.65,0.73-1.78,0.97-2.66,0.51c0,0-0.01,0-0.02,0
		c-0.18-0.08-0.35-0.16-0.52-0.24c-0.04-0.02-0.08-0.04-0.12-0.06c-0.07-0.03-0.13-0.06-0.2-0.08c-0.75-0.3-1.51-0.56-2.29-0.78
		c-0.85-0.22-1.71-0.38-2.58-0.51c-0.99-0.12-1.99-0.18-2.99-0.19c-1,0-1.99,0.07-2.98,0.19c-0.98,0.14-1.93,0.32-2.89,0.55
		c-1,0.27-1.99,0.59-2.95,0.97c-0.81,0.34-1.59,0.71-2.36,1.13c-0.68,0.39-1.33,0.81-1.97,1.26c-0.51,0.38-0.99,0.8-1.46,1.23
		c-0.11-0.23-0.23-0.45-0.35-0.68c-0.26-0.5-0.52-1-0.77-1.5c-0.31-0.61-0.66-1.21-0.91-1.84c-0.02-0.04-0.03-0.08-0.05-0.13
		c0.83-0.69,1.72-1.3,2.63-1.84c2.84-1.7,6.05-2.86,9.32-3.39c2.86-0.46,5.72-0.52,8.59-0.13c1.38,0.19,2.74,0.51,4.06,0.93
		c0.64,0.2,1.26,0.45,1.87,0.71c0.13,0.04,0.25,0.08,0.38,0.14c0.15,0.07,0.3,0.14,0.44,0.22c0.03,0.01,0.06,0.03,0.09,0.04l0,0
		c0.34,0.19,0.65,0.42,0.89,0.78L541.69,444.85z"/>
	<path d="M541.5,444.6c0.13,0.84,0.12,1.7-0.02,2.55c-0.14,0.85-0.38,1.68-0.58,2.52c-0.21,0.84-0.39,1.69-0.67,2.52
		c-0.55,1.62-1.17,3.24-1.85,4.81c-0.77,1.77-1.8,3.48-3.08,4.94c-0.8,0.9-1.71,1.76-2.69,2.46c-0.91,0.64-1.88,1.16-2.85,1.7
		c-0.76,0.45-1.52,0.95-2.43,0.95c-0.04,0-0.08,0-0.12,0c-0.5-0.03-1-0.24-1.38-0.57c-0.38-0.34-0.6-0.77-0.73-1.26
		c-0.14-0.56,0-1.11,0.26-1.61c0,0,0-0.02,0-0.03c0.02-0.05,0.03-0.1,0.05-0.15c0.02-0.08,0.05-0.17,0.07-0.26c0-0.01,0-0.03,0-0.04
		c0-0.02,0-0.05,0.02-0.07c0-0.04,0.02-0.08,0.03-0.12c0-0.02,0-0.04,0-0.06c0.01-0.07,0.03-0.13,0.05-0.19l0,0
		c0.35-1.09,1.41-1.81,2.58-1.59c0.29,0.06,0.56,0.17,0.8,0.34c0.37-0.22,0.73-0.46,1.08-0.7c0.46-0.37,0.89-0.75,1.32-1.15
		c0.31-0.32,0.6-0.65,0.9-0.98c0.49-0.67,0.92-1.36,1.34-2.06c0.35-0.65,0.65-1.32,0.93-1.99c0.62-1.55,1.25-3.1,1.7-4.71
		c0.3-1.19,0.62-2.38,0.83-3.59c0.02-0.19,0.03-0.37,0.04-0.55c0-0.09-0.01-0.17-0.02-0.26c-0.03-0.15-0.06-0.3-0.09-0.44
		c-0.08-0.27-0.18-0.53-0.27-0.8c-0.25-0.59-0.52-1.17-0.73-1.78c0.68,0.16,1.35,0.35,2.02,0.56c0.64,0.2,1.26,0.45,1.87,0.71
		c0.13,0.04,0.25,0.08,0.38,0.14c0.15,0.07,0.3,0.14,0.44,0.22c0.03,0.01,0.06,0.03,0.09,0.04l0,0c0.25,0.14,0.49,0.3,0.69,0.53
		L541.5,444.6z"/>
	<path d="M533.79,463.44c-0.38,0.34-0.78,0.66-1.18,0.95c-0.9,0.64-1.87,1.15-2.83,1.69c0.14,0.34,0.26,0.69,0.37,1.05
		c-0.59-0.15-1.17-0.32-1.75-0.51c-0.97-0.33-1.75-1.04-2.54-1.65c-1.25-0.97-2.49-1.94-3.73-2.91c-0.64-0.49-1.28-0.98-1.86-1.56
		c-0.8-0.79-1.23-1.93-1.73-2.93c-1.12-2.24-2.23-4.48-3.38-6.71c-0.26-0.5-0.52-1-0.77-1.5c-0.31-0.61-0.66-1.21-0.91-1.84
		c-0.02-0.04-0.03-0.08-0.05-0.13c0.83-0.69,1.72-1.3,2.63-1.84c0.46-0.28,0.94-0.54,1.42-0.78c0,0.03,0,0.06,0,0.09
		c0.03,0.31,0.07,0.61,0.13,0.91c0.02,0.06,0.03,0.12,0.05,0.19c0,0.02,0.02,0.03,0.02,0.05c0.79,1.57,1.63,3.11,2.41,4.68
		c0.51,1.03,1.02,2.06,1.54,3.08c0.28,0.56,0.56,1.12,0.84,1.68c0.31,0.63,0.61,1.28,0.96,1.88c0,0,0,0.01,0.02,0.02
		c0.07,0.07,0.14,0.15,0.22,0.22c0.95,0.8,1.95,1.55,2.94,2.31c1.06,0.82,2.11,1.65,3.17,2.46c0.01,0,0.03,0.02,0.04,0.02
		c0.1,0.04,0.21,0.08,0.31,0.12c1.21,0.37,2.45,0.66,3.68,0.96L533.79,463.44z"/>
	<path d="M546.34,483.77c-3.45-0.06-6.92-0.89-10.01-2.44c-2.85-1.43-5.41-3.41-7.47-5.84c-2.28-2.69-3.91-5.87-4.8-9.28
		c-0.24-0.95-0.27-1.91-0.24-2.89c0.02-0.78,0.19-1.67,0.81-2.21c0.54-0.47,1.27-0.45,1.86-0.11c0.42,0.25,0.7,0.75,0.89,1.19
		c0.2,0.45,0.34,0.92,0.5,1.38c0.47,1.27,0.78,2.59,1.27,3.86c0.31,0.74,0.65,1.46,1.04,2.16c0.41,0.72,0.86,1.41,1.35,2.08
		c0.53,0.69,1.09,1.35,1.62,1.91c0.03,0.03,0.06,0.06,0.09,0.09l0.02,0.02c0.55,0.55,1.13,1.06,1.74,1.55
		c0.73,0.57,1.5,1.08,2.3,1.56c0.7,0.39,1.42,0.74,2.16,1.07c0.79,0.32,1.6,0.59,2.37,0.81c0.86,0.23,1.74,0.39,2.63,0.51
		c0.77,0.09,1.54,0.13,2.31,0.14c0.8-0.01,1.6-0.07,2.4-0.16c0.82-0.12,1.64-0.28,2.44-0.48c0.74-0.21,1.48-0.45,2.2-0.72
		c0.75-0.31,1.48-0.66,2.19-1.05c0.74-0.43,1.46-0.9,2.16-1.4c0.68-0.52,1.33-1.08,1.94-1.68c0.6-0.61,1.16-1.24,1.69-1.91
		c0.49-0.65,0.94-1.32,1.36-2.02c0.42-0.74,0.79-1.5,1.13-2.28c0.32-0.78,0.58-1.58,0.81-2.38c0.21-0.82,0.37-1.64,0.49-2.48
		c0.09-0.8,0.15-1.6,0.16-2.41c0-0.5-0.02-0.99-0.06-1.49c-0.1-1.22,0.89-2.3,2.09-2.38c1.22-0.08,2.31,0.88,2.38,2.09
		c0.16,2.65-0.1,5.29-0.78,7.86c-0.94,3.41-2.61,6.58-4.93,9.25c-2.2,2.53-4.95,4.58-8,5.96c-3.04,1.38-6.36,2.1-9.69,2.1
		c-0.14,0-0.27,0-0.41,0L546.34,483.77z"/>
	<path d="M507.99,487.76c-3.39-0.51-6.72-1.68-9.73-3.32c-3.19-1.75-6.13-4.07-8.4-6.94c-2.36-2.98-4.03-6.48-4.45-10.29
		c-0.34-3.08,0.25-6.29,1.79-8.99c0.05-0.11,0.1-0.22,0.17-0.33c0.61-0.98,1.31-1.88,2.04-2.63c0.15-0.15,0.3-0.31,0.46-0.46
		c0.19-0.18,0.39-0.4,0.62-0.54c0.43-0.25,0.87-0.41,1.38-0.38c0.59,0.03,1.15,0.3,1.55,0.74c0.83,0.92,0.73,2.33-0.16,3.16
		c-0.19,0.18-0.38,0.36-0.56,0.55c-0.34,0.37-0.66,0.75-0.97,1.15c-0.26,0.37-0.51,0.76-0.74,1.15c-0.19,0.36-0.35,0.72-0.51,1.09
		c-0.15,0.41-0.29,0.83-0.4,1.25c-0.11,0.49-0.18,0.97-0.25,1.46c-0.03,0.37-0.04,0.73-0.05,1.09c0.02,0.53,0.05,1.05,0.11,1.58
		c0.09,0.54,0.2,1.07,0.33,1.61c0.18,0.6,0.38,1.19,0.61,1.77c0.32,0.72,0.67,1.42,1.06,2.1c0.43,0.7,0.9,1.38,1.4,2.03
		c0.58,0.71,1.2,1.39,1.85,2.03c0.77,0.73,1.57,1.41,2.41,2.04c0.87,0.63,1.78,1.21,2.71,1.74c1.05,0.57,2.13,1.07,3.24,1.52
		c1,0.37,2.01,0.69,3.05,0.96c1,0.23,2,0.42,3.01,0.55c0.98,0.1,1.96,0.17,2.94,0.16c0.85-0.02,1.7-0.08,2.55-0.19
		c0.79-0.12,1.56-0.28,2.33-0.48c0.71-0.2,1.4-0.44,2.08-0.72c0.56-0.25,1.1-0.52,1.63-0.82c0.48-0.3,0.95-0.61,1.4-0.95
		c0.42-0.34,0.82-0.7,1.2-1.09c0.32-0.35,0.62-0.71,0.91-1.08c0.23-0.33,0.45-0.67,0.65-1.02c0.19-0.37,0.37-0.75,0.53-1.13
		c0.16-0.44,0.3-0.88,0.43-1.33c0.1-0.42,0.17-0.85,0.23-1.28c0.04-0.44,0.07-0.89,0.07-1.33c-0.01-0.49-0.05-0.98-0.11-1.47
		c-0.09-0.59-0.21-1.18-0.36-1.76c-0.2-0.68-0.44-1.33-0.67-2c-0.26-0.76-0.49-1.7-0.23-2.49c0.3-0.94,1.33-1.48,2.27-1.18
		c0.89,0.28,1.51,1.11,1.94,1.89c0.4,0.73,0.68,1.54,0.91,2.34c0.5,1.74,0.74,3.54,0.69,5.35c-0.09,3.43-1.47,6.8-3.79,9.33
		c-2.37,2.59-5.53,4.23-8.9,5.14c-1.93,0.52-3.91,0.74-5.89,0.74c-1.47,0-2.94-0.12-4.39-0.34L507.99,487.76z"/>
	<path d="M606.98,341.88c0.17,0.64,0.31,1.3,0.43,1.96c-5.33,4.79-10.24,10.09-15.43,15.06c-5.5,5.99-11.73,11.4-16.7,17.83
		c-2.76,4.28-6.3,8.08-8.33,12.79c-0.4,0.88-0.95,1.67-1.5,2.46l0,0c-1.23-0.29-2.46-0.58-3.69-0.86c0.48-0.95,1.09-1.82,1.68-2.7
		c1.67-3.55,3.54-6.99,5.83-10.18c4.65-7.45,11.08-13.5,17.25-19.67c2.79-3.29,5.76-6,8.74-9.04c1.71-1.92,3.53-3.74,5.47-5.42
		c1.67-1.44,3.03-3.33,4.83-4.57c0.16-0.12,0.33-0.22,0.49-0.3c0.05,0.13,0.1,0.26,0.15,0.39
		C606.5,340.37,606.78,341.11,606.98,341.88L606.98,341.88z"/>
	<path d="M608.29,351.96c0.43,6.8,0.35,13.64-0.11,20.43c-0.48,7.11-1.3,14.2-2.7,21.19c-0.64,3.17-1.44,6.31-2.44,9.39
		c-0.51,1.55-1.08,3.12-1.87,4.56c-0.97-0.61-1.95-1.2-2.94-1.78c-0.3-0.17-0.61-0.34-0.91-0.5c0.36-0.64,0.68-1.3,0.97-1.98
		c0.6-1.49,1.09-3.02,1.54-4.57c1.32-4.94,2.18-9.99,2.86-15.05c0.89-6.84,1.37-13.74,1.46-20.64c0-0.85,0.01-1.7,0-2.25
		c-0.02-4.84-0.21-9.69-0.83-14.19c-0.2-1.46-0.48-2.9-0.7-4.36c0.92-0.97,1.84-1.94,2.92-2.68c0.16-0.12,0.33-0.22,0.49-0.3
		c0.05,0.13,0.1,0.26,0.15,0.39c0.3,0.74,0.58,1.48,0.79,2.25c0.44,1.63,0.65,3.34,0.85,5.02c0.2,1.68,0.35,3.37,0.46,5.06
		L608.29,351.96z"/>
	<path d="M450.01,358.94c0.02,1.71-0.08,3.43-0.15,5.13c-0.07,1.62-0.14,3.24-0.21,4.86c-0.3,7.17-0.62,14.34-0.92,21.52
		c-0.2,4.7-0.37,9.41-0.56,14.12c-1.5,0.91-2.98,1.85-4.42,2.84c-0.11-0.26-0.16-0.55-0.15-0.86c0.06-1.09,0.07-2.19,0.15-3.28
		c0.1-1.44,0.14-2.88,0.2-4.33c0.08-1.75,0.15-3.5,0.23-5.25c0.15-3.58,0.3-7.16,0.45-10.73c0.29-6.91,0.56-13.83,0.86-20.74
		c0.1-2.24,0.31-4.48,0.54-6.71c0.16-1.52,0.2-3.14,0.92-4.52c0.11-0.6,0.62-1.06,1.25-1.06c0.64,0,1.21,0.54,1.24,1.18
		c0.42,0.98,0.46,2.06,0.49,3.11c0.05,1.58,0.07,3.15,0.09,4.73L450.01,358.94z"/>
	<path d="M479.02,389.41c0.21,0.91,0.39,1.85,0.5,2.79c-1.46,0.35-2.93,0.71-4.39,1.08c-0.02-0.36-0.06-0.72-0.1-1.09
		c-0.18-1.14-0.43-2.26-0.73-3.34c-0.02-0.08-0.05-0.17-0.07-0.25c-0.61-2-1.35-3.95-2.18-5.87c-1.45-3.27-3.13-6.42-4.83-9.23
		c-1.99-3.25-4.16-6.38-6.52-9.38c-0.01-0.02-0.03-0.04-0.05-0.06c-0.02-0.03-0.05-0.05-0.07-0.08c-1.16-1.45-2.37-2.85-3.64-4.21
		c-0.55-0.59-1.11-1.16-1.69-1.73c-1.15-1.11-2.36-2.17-3.63-3.14c-0.72-0.53-1.46-1.01-2.23-1.46c-0.47-0.25-0.95-0.48-1.44-0.69
		c-0.27-0.1-0.54-0.21-0.81-0.33c-0.23-0.11-0.43-0.24-0.64-0.37c-0.05-0.03-0.09-0.05-0.14-0.07c-0.07-0.02-0.13-0.05-0.14-0.05
		c-0.33-0.09-0.63-0.2-0.9-0.42c-0.79-0.67-0.74-1.83-0.04-2.52c0.53-0.53,1.48-0.58,2.02-0.66c0.43-0.06,0.85-0.08,1.28,0
		c0.39,0.07,0.76,0.19,1.13,0.33c0.94,0.36,1.84,0.85,2.69,1.39c1.7,1.06,3.25,2.33,4.73,3.67c2.5,2.26,4.75,4.8,6.86,7.42
		c0.07,0.07,0.13,0.15,0.19,0.23l0,0c0.22,0.27,0.43,0.54,0.64,0.81c2.4,3.06,4.56,6.31,6.56,9.65c1.95,3.26,3.68,6.63,5.16,10.12
		c1.02,2.4,1.88,4.89,2.47,7.44L479.02,389.41z"/>
</g>
</svg>
