<?xml version="1.0" encoding="UTF-8"?><svg xmlns="http://www.w3.org/2000/svg" viewBox="0 0 1920 1080"><g id="Vector_layer"><path d="M42017.44-9985.99c210.38-223.03,858.94-375.75,728.72,131.06-404.72,533.25-1198.97,619.88-1771.03,925.88-392.34,177.47-765.56,390.66-1135.12,610.03V-1182.87h-22419.84c237.94,248.34,458.44,511.88,653.06,795.94,280.41,327.09,442.12,1184.62-243,851.34-524.81-647.44-1042.31-1186.59-1564.31-1647.28-1948.22-1718.72-3962.53-2344.5-6679.97-3436.31-1434.38-539.72-2961.56-839.81-4440.09-1218.38-1245.09-99.84-2373.47,480.66-3603.94,558.56,116.16,406.69-433.69,575.16-427.78,115.88-51.75,4.78-102.94,4.5-154.12.56-51.19,3.94-102.38,4.22-154.12-.56,5.62,459.56-543.94,290.53-427.78-115.88-1230.47-77.91-2358.84-658.41-3603.94-558.56-1478.53,378.56-3005.72,678.66-4440.09,1218.66-2314.97,977.06-4804.88,1670.34-6665.91,3436.03-79.03,74.81-156.94,151.59-233.44,230.34-495,428.34-925.88,916.59-1344.94,1416.66-673.03,328.78-535.5-506.25-243-851.06,203.06-279.84,424.41-544.5,660.38-795.94h-22427.16v-7135.31c-19.69-13.5-39.38-27.28-59.06-41.06-750.38-473.06-1590.19-764.16-2393.72-1128.66-717.19-255.38-567.28-1118.81,275.34-498.09,658.97,252.56,1459.97,403.03,2077.59,725.06,33.47,14.62,66.66,29.81,99.84,45.56,481.78,229.22,914.62,562.5,1432.41,710.72,1398.94,334.97,2826,546.19,4166.72,1102.5,3728.81,1616.62,7816.22,1672.59,11817.28,1622.53,2143.12-350.16,4269.66-877.22,6343.59-1488.94,896.34-407.81,1754.16-883.97,2718.84-1123.88,1099.41-415.12,2065.78-1104.19,3130.03-1591.88,1078.88-407.53,2098.12-964.97,3185.44-1343.81,800.72-234.84,1642.22-316.97,2407.22-662.06,720.84-157.22,1471.78-31.22,2203.03-106.59,1713.38-18.84,3452.06-64.41,5153.91,106.59,890.72,400.78,1886.62,448.59,2798.44,792.56,1744.31,759.66,3488.62,1502.72,5138.72,2457.28,670.22,372.38,1431,511.31,2131.59,807.47,639.28,314.44,1261.97,685.41,1962,838.41,1899.56,530.16,3812.34,1002.38,5754.38,1314.84,1189.12,45.56,2379.66-24.75,3568.5-45.28,1895.34,23.62,3760.59-257.06,5607.28-650.81,1353.38-440.72,2677.22-967.5,4035.09-1395.28,1429.31-411.47,2941.88-477.56,4205.53-1331.72,18.28-12.38,36.56-25.03,54.84-37.69,671.91-346.22,1420.03-481.22,2122.59-745.59Z" fill="#ff8b00"/><path d="M7933.88-340.24c96.19,60.19,114.75,200.25,52.31,290.25-39.66,56.81-106.03,89.44-173.25,89.44-32.06,0-64.12-7.31-93.38-23.06-206.16-109.41-399.94-240.47-593.44-370.69-159.75-107.16-318.38-216.84-470.81-334.12-82.97-63.84-169.03-125.16-248.91-192.38-75.94-64.12-152.16-127.41-228.38-190.97-43.59-36.56-86.91-73.69-129.66-111.09H-4128.37c-42.75,37.41-86.06,74.53-129.66,111.09-76.22,63.56-152.44,126.84-228.38,190.97-79.88,67.22-165.94,128.53-248.91,192.38-152.44,117.28-311.06,226.97-470.81,334.12-193.5,130.22-387.28,261.28-593.44,370.69-91.12,48.38-208.12,17.44-266.62-66.38-62.44-90-43.88-230.06,52.31-290.25,125.16-78.47,250.59-156.09,375.47-234.84,96.47-60.75,190.69-125.44,285.75-188.72,53.16-35.16,105.19-72.56,157.78-109.12,44.44-30.66,90.28-59.91,133.31-92.25,96.19-72.84,192.38-145.12,288.56-217.69,9-6.75,18.28-13.78,27.28-20.53,124.31-100.69,249.47-200.81,370.41-305.44,153.28-132.75,306-266.06,458.16-399.94,121.22-106.88,242.44-214.88,367.88-316.97,79.59-64.97,157.78-131.62,238.78-194.34,73.97-57.38,148.22-114.47,222.19-171.56,191.25-148.22,405.28-279.28,639.84-345.38,129.38-36.56,262.12-52.03,395.16-70.03,188.16-25.31,376.31-51.19,564.19-78.19,170.16-24.47,340.03-47.25,511.03-64.97,43.31-4.5,87.47-5.91,131.06-8.72,40.22-2.81,80.44-6.47,120.66-7.88,90.28-3.38,180.56-9.28,270.84-9h56.53c53.72-.28,107.16-.28,160.88,2.25,82.97,3.66,165.94,7.59,249.19,12.66,64.97,3.94,129.94,10.69,194.91,14.34,73.97,4.22,147.38,7.31,221.34,8.16,44.72-1.69,88.88-3.66,133.31-7.31,62.44-5.34,130.22-17.16,191.25.84,41.06,12.09,75.09,33.47,104.34,64.69,27.56,29.53,47.53,68.62,66.38,104.06,13.5,25.59,25.59,51.75,37.41,78.19,11.81-26.44,23.91-52.59,37.41-78.19,18.84-35.44,38.81-74.53,66.38-104.06,29.25-31.22,63.28-52.59,104.34-64.69,61.03-18,128.81-6.19,191.25-.84,44.44,3.66,88.59,5.62,133.31,7.31,73.97-.84,147.38-3.94,221.34-8.16,64.97-3.66,129.94-10.41,194.91-14.34,83.25-5.06,166.22-9,249.19-12.66,53.44-2.53,107.16-2.53,160.59-2.25h56.81c90.28-.28,180.56,5.62,270.84,9,40.22,1.41,80.44,5.06,120.66,7.88,43.59,2.81,87.75,4.22,131.06,8.72,171,17.72,340.88,40.5,511.03,64.97,187.88,27,376.03,52.88,564.19,78.19,133.03,18,265.78,33.47,395.16,70.03,234.56,66.09,448.59,197.16,639.84,345.38,73.97,57.09,148.22,114.19,222.19,171.56,81,62.72,159.19,129.38,238.78,194.34,125.44,102.09,246.66,210.09,367.88,316.97,152.16,133.88,304.88,267.19,458.16,399.94,120.94,104.62,246.09,204.75,370.41,305.44,9,6.75,18.28,13.78,27.28,20.53,96.19,72.56,192.38,144.84,288.56,217.69,43.03,32.34,88.88,61.59,133.31,92.25,52.59,36.56,104.62,73.97,157.78,109.12,95.06,63.28,189.28,127.97,285.75,188.72,124.88,78.75,250.31,156.38,375.47,234.84Z" fill="#ff8c01"/></g><g id="Vector_layer-3"><path d="M42017.44,7664.08c210.38,226.14,858.94,381,728.72-132.9-404.72-540.69-1198.97-628.53-1771.03-938.81-392.34-179.95-765.56-396.11-1135.12-618.55V-1262.04h-22419.84c237.94-251.82,458.44-519.03,653.06-807.06,280.41-331.66,442.12-1201.17-243-863.24-524.81,656.49-1042.31,1203.18-1564.31,1670.3-1948.22,1742.73-3962.53,2377.26-6679.97,3484.33-1434.38,547.26-2961.56,851.55-4440.09,1235.4-1245.09,101.23-2373.47-487.37-3603.94-566.37,116.16-412.37-433.69-583.2-427.78-117.49-51.75-4.85-102.94-4.57-154.12-.57-51.19-4-102.38-4.28-154.12.57,5.62-465.99-543.94-294.59-427.78,117.49-1230.47,79-2358.84,667.6-3603.94,566.37-1478.53-383.85-3005.72-688.14-4440.09-1235.69-2314.97-990.71-4804.88-1693.68-6665.91-3484.04-79.03-75.86-156.94-153.71-233.44-233.56-495-434.33-925.88-929.4-1344.94-1436.45-673.03-333.38-535.5,513.33-243,862.95,203.06,283.75,424.41,552.1,660.38,807.06h-22427.16v7235.01c-19.69,13.69-39.38,27.67-59.06,41.64-750.38,479.67-1590.19,774.83-2393.72,1144.42-717.19,258.94-567.28,1134.45,275.34,505.05,658.97-256.1,1459.97-408.67,2077.59-735.2,33.47-14.83,66.66-30.23,99.84-46.2,481.78-232.43,914.62-570.37,1432.41-720.65,1398.94-339.65,2826-553.83,4166.72-1117.91,3728.81-1639.21,7816.22-1695.96,11817.28-1645.2,2143.12,355.04,4269.66,889.47,6343.59,1509.74,896.34,413.51,1754.16,896.32,2718.84,1139.57,1099.41,420.93,2065.78,1119.62,3130.03,1614.12,1078.88,413.23,2098.12,978.45,3185.44,1362.59,800.72,238.13,1642.22,321.4,2407.22,671.31,720.84,159.42,1471.78,31.66,2203.03,108.09,1713.38,19.11,3452.06,65.3,5153.91-108.09,890.72-406.37,1886.62-454.85,2798.44-803.64,1744.31-770.26,3488.62-1523.71,5138.72-2491.61,670.22-377.58,1431-518.45,2131.59-818.75,639.28-318.83,1261.97-694.99,1962-850.12,1899.56-537.57,3812.34-1016.38,5754.38-1333.21,1189.12-46.2,2379.66,25.09,3568.5,45.91,1895.34-23.96,3760.59,260.65,5607.28,659.9,1353.38,446.88,2677.22,981.02,4035.09,1414.78,1429.31,417.22,2941.88,484.24,4205.53,1350.33,18.28,12.55,36.56,25.38,54.84,38.21,671.91,351.06,1420.03,487.94,2122.59,756.02Z" fill="#ff8b00"/><path d="M16265.91-1262.04H6693c-9,6.85-18.28,13.97-27.28,20.82-124.31,102.09-249.47,203.62-370.41,309.7-153.28,134.6-306,269.78-458.16,405.53-121.22,108.37-242.44,217.88-367.88,321.4-79.59,65.87-157.78,133.46-238.78,197.06-73.97,58.17-148.22,116.07-222.19,173.96-191.25,150.28-405.28,283.18-639.84,350.2-129.38,37.07-262.12,52.75-395.16,71.01-188.16,25.66-376.31,51.9-564.19,79.28-170.16,24.81-340.03,47.91-511.03,65.88-43.31,4.56-87.47,5.99-131.06,8.83-40.22,2.86-80.44,6.57-120.66,7.99-90.28,3.42-180.56,9.41-270.84,9.12h-56.81c-53.44.29-107.16.29-160.59-2.28-82.97-3.71-165.94-7.7-249.19-12.83-64.97-4-129.94-10.84-194.91-14.55-73.97-4.28-147.38-7.42-221.34-8.27-44.72,1.71-88.88,3.71-133.31,7.41-62.44,5.42-130.22,17.4-191.25-.85-41.06-12.26-75.09-33.93-104.34-65.59-27.56-29.94-47.53-69.58-66.38-105.51-13.5-25.95-25.59-52.47-37.41-79.28-11.81,26.81-23.91,53.32-37.41,79.28-18.84,35.93-38.81,75.57-66.38,105.51-29.25,31.66-63.28,53.33-104.34,65.59-61.03,18.25-128.81,6.28-191.25.85-44.44-3.7-88.59-5.7-133.31-7.41-73.97.85-147.38,3.99-221.34,8.27-64.97,3.71-129.94,10.55-194.91,14.55-83.25,5.13-166.22,9.12-249.19,12.83-53.72,2.57-107.16,2.57-160.88,2.28h-56.53c-90.28.29-180.56-5.7-270.84-9.12-40.22-1.42-80.44-5.13-120.66-7.99-43.59-2.85-87.75-4.27-131.06-8.83-171-17.97-340.88-41.07-511.03-65.88-187.88-27.38-376.03-53.61-564.19-79.28-133.03-18.25-265.78-33.93-395.16-71.01-234.56-67.02-448.59-199.92-639.84-350.2-73.97-57.89-148.22-115.79-222.19-173.96-81-63.6-159.19-131.19-238.78-197.06-125.44-103.52-246.66-213.03-367.88-321.4-152.16-135.75-304.88-270.92-458.16-405.53-120.94-106.08-246.09-207.61-370.41-309.7-9-6.85-18.28-13.97-27.28-20.82h-9558.84c1861.03,1790.36,4350.94,2493.33,6665.91,3484.04,1434.38,547.55,2961.56,851.84,4440.09,1235.69,1245.09,101.23,2373.47-487.37,3603.94-566.37-116.16-412.08,433.41-583.48,427.78-117.49,51.75-4.85,102.94-4.57,154.12-.57,51.19-4,102.38-4.28,154.12.57-5.91-465.71,543.94-294.88,427.78,117.49,1230.47,79,2358.84,667.6,3603.94,566.37,1478.53-383.85,3005.72-688.14,4440.09-1235.4,2717.44-1107.07,4731.75-1741.6,6679.97-3484.33Z" fill="#ff0047"/><path d="M7933.88-2116.44c96.19-61.03,114.75-203.05,52.31-294.31-39.66-57.6-106.03-90.69-173.25-90.69-32.06,0-64.12,7.42-93.38,23.39-206.16,110.94-399.94,243.83-593.44,375.86-159.75,108.65-318.38,219.88-470.81,338.79-82.97,64.74-169.03,126.91-248.91,195.06-75.94,65.02-152.16,129.18-228.38,193.63-43.59,37.08-86.91,74.72-129.66,112.65H-4128.37c-42.75-37.92-86.06-75.57-129.66-112.65-76.22-64.45-152.44-128.61-228.38-193.63-79.88-68.16-165.94-130.32-248.91-195.06-152.44-118.92-311.06-230.14-470.81-338.79-193.5-132.04-387.28-264.93-593.44-375.86-91.12-49.05-208.12-17.68-266.62,67.3-62.44,91.26-43.88,233.28,52.31,294.31,125.16,79.56,250.59,158.27,375.47,238.12,96.47,61.59,190.69,127.19,285.75,191.36,53.16,35.65,105.19,73.57,157.78,110.65,44.44,31.09,90.28,60.75,133.31,93.54,96.19,73.86,192.38,147.16,288.56,220.73,9,6.85,18.28,13.97,27.28,20.82,124.31,102.09,249.47,203.62,370.41,309.7,153.28,134.6,306,269.78,458.16,405.53,121.22,108.37,242.44,217.88,367.88,321.4,79.59,65.87,157.78,133.46,238.78,197.06,73.97,58.17,148.22,116.07,222.19,173.96,191.25,150.28,405.28,283.18,639.84,350.2,129.38,37.07,262.12,52.75,395.16,71.01,188.16,25.66,376.31,51.9,564.19,79.28,170.16,24.81,340.03,47.91,511.03,65.88,43.31,4.56,87.47,5.99,131.06,8.83,40.22,2.86,80.44,6.57,120.66,7.99,90.28,3.42,180.56,9.41,270.84,9.12h56.53c53.72.29,107.16.29,160.88-2.28,82.97-3.71,165.94-7.7,249.19-12.83,64.97-4,129.94-10.84,194.91-14.55,73.97-4.28,147.38-7.42,221.34-8.27,44.72,1.71,88.88,3.71,133.31,7.41,62.44,5.42,130.22,17.4,191.25-.85,41.06-12.26,75.09-33.93,104.34-65.59,27.56-29.94,47.53-69.58,66.38-105.51,13.5-25.95,25.59-52.47,37.41-79.28,11.81,26.81,23.91,53.32,37.41,79.28,18.84,35.93,38.81,75.57,66.38,105.51,29.25,31.66,63.28,53.33,104.34,65.59,61.03,18.25,128.81,6.28,191.25.85,44.44-3.7,88.59-5.7,133.31-7.41,73.97.85,147.38,3.99,221.34,8.27,64.97,3.71,129.94,10.55,194.91,14.55,83.25,5.13,166.22,9.12,249.19,12.83,53.44,2.57,107.16,2.57,160.59,2.28h56.81c90.28.29,180.56-5.7,270.84-9.12,40.22-1.42,80.44-5.13,120.66-7.99,43.59-2.85,87.75-4.27,131.06-8.83,171-17.97,340.88-41.07,511.03-65.88,187.88-27.38,376.03-53.61,564.19-79.28,133.03-18.25,265.78-33.93,395.16-71.01,234.56-67.02,448.59-199.92,639.84-350.2,73.97-57.89,148.22-115.79,222.19-173.96,81-63.6,159.19-131.19,238.78-197.06,125.44-103.52,246.66-213.03,367.88-321.4,152.16-135.75,304.88-270.92,458.16-405.53,120.94-106.08,246.09-207.61,370.41-309.7,9-6.85,18.28-13.97,27.28-20.82,96.19-73.57,192.38-146.87,288.56-220.73,43.03-32.79,88.88-62.46,133.31-93.54,52.59-37.07,104.62-75,157.78-110.65,95.06-64.17,189.28-129.76,285.75-191.36,124.88-79.85,250.31-158.56,375.47-238.12Z" fill="#ff8c01"/></g><g id="Vector_layer-4"><path d="M16262.44-1135.03H6689.53c-9,6.85-18.28,13.97-27.28,20.82-124.31,102.09-249.47,203.62-370.41,309.7-153.28,134.6-306,269.78-458.16,405.53-121.22,108.37-242.44,217.88-367.88,321.4-79.59,65.87-157.78,133.46-238.78,197.06-73.97,58.17-148.22,116.07-222.19,173.96-191.25,150.28-405.28,283.18-639.84,350.2-129.38,37.07-262.12,52.76-395.16,71.01-188.16,25.66-376.31,51.91-564.19,79.28-170.16,24.81-340.03,47.92-511.03,65.88-43.31,4.56-87.47,5.99-131.06,8.84-40.22,2.85-80.44,6.56-120.66,7.98-90.28,3.43-180.56,9.41-270.84,9.12h-56.81c-53.44.29-107.16.29-160.59-2.28-82.97-3.71-165.94-7.7-249.19-12.83-64.97-4-129.94-10.84-194.91-14.55-73.97-4.28-147.38-7.42-221.34-8.27-44.72,1.71-88.88,3.71-133.31,7.42-62.44,5.41-130.22,17.39-191.25-.86-41.06-12.26-75.09-33.93-104.34-65.59-27.56-29.94-47.53-69.58-66.38-105.51-13.5-25.95-25.59-52.47-37.41-79.28-11.81,26.81-23.91,53.32-37.41,79.28-18.84,35.93-38.81,75.57-66.38,105.51-29.25,31.66-63.28,53.33-104.34,65.59-61.03,18.25-128.81,6.28-191.25.86-44.44-3.71-88.59-5.7-133.31-7.42-73.97.85-147.38,3.99-221.34,8.27-64.97,3.71-129.94,10.55-194.91,14.55-83.25,5.13-166.22,9.12-249.19,12.83-53.72,2.57-107.16,2.57-160.88,2.28h-56.53c-90.28.29-180.56-5.7-270.84-9.12-40.22-1.42-80.44-5.13-120.66-7.98-43.59-2.86-87.75-4.28-131.06-8.84-171-17.96-340.88-41.07-511.03-65.88-187.88-27.37-376.03-53.61-564.19-79.28-133.03-18.25-265.78-33.93-395.16-71.01-234.56-67.02-448.59-199.92-639.84-350.2-73.97-57.89-148.22-115.79-222.19-173.96-81-63.6-159.19-131.19-238.78-197.06-125.44-103.52-246.66-213.03-367.88-321.4-152.16-135.75-304.88-270.92-458.16-405.53-120.94-106.08-246.09-207.61-370.41-309.7-9-6.85-18.28-13.97-27.28-20.82h-9558.84c1861.03,1790.36,4350.94,2493.33,6665.91,3484.05,1434.38,547.54,2961.56,851.83,4440.09,1235.68,1245.09,101.24,2373.47-487.37,3603.94-566.37-116.16-412.08,433.41-583.48,427.78-117.49,51.75-4.85,102.94-4.56,154.12-.57,51.19-3.99,102.38-4.28,154.12.57-5.91-465.7,543.94-294.88,427.78,117.49,1230.47,79,2358.84,667.61,3603.94,566.37,1478.53-383.85,3005.72-688.14,4440.09-1235.4,2717.44-1107.07,4731.75-1741.59,6679.97-3484.33Z" fill="#ff5d00"/></g></svg>