<?xml version="1.0" encoding="UTF-8"?><svg xmlns="http://www.w3.org/2000/svg" viewBox="0 0 2260.4 916.83"><g id="text-shadow"><path d="M63.31,866.93C14.04,821.68.34,726.81,7.15,653.04c12.02-130.67,58.05-303.47,150.12-335.91,19.35-1.62,39.75-.26,53.07,30.15,15.62,51.96,5.08,103.35-13.05,142.26-6.12,2.92-17.36,6.55-20.61-7.57,1.14-43.86,24.13-94.88-7.02-136.36-41.09-4.75-64.1,55.63-86.08,104.44-33.66,101.39-68.14,220.59-22.06,342.22,9.78,14.26,14.22,41.74,30.5,41.58,19.66,24.35,47.47,22.61,70.22,17.4,30.95-7.38,51.56-42.47,82.28-46.7,2.98,2.71,5.11,8.66,3.75,13.01-19.97,35.01-58.43,25.73-80.52,54.78-10.39,7.76-22.06,12.25-34.18,13.91-3.67.51-7.38.75-11.11.75-20.38-.01-41.34-7.38-59.15-20.07Z"/><path d="M235.55,717.7c-23.71-65.88-25.98-131.54-23.81-197.29,2.39-3.62,5.24-7.38,8.44-9.99l8.77,11.06c15.95,30.05,27.81,62.98,41.14,94.24l5.47,1.68c-6.96,9.96,1.47,23.19,5.7,32.3,3.98,23.27,22.79,39.61,28.27,61.19-2.86-4.54-7.87-1.37-11.51-5.26-.91.27-2.4.3-2.63,1.2-16.53-22-26.1-48.99-35.78-76.35l-2.28-.98c-8.77,5.53-18.81,11.85-24.73,20.26,2.96,23.16,15.04,48.57,17.55,70.21-.8.12-1.59.16-2.36.16-4.3.01-8.19-1.53-12.24-2.43ZM232.13,634.97c8.66-4.25,14.93-9.86,22.34-14.98-9.23-19.21-15.27-41.04-25.76-59.46-1.7,24.14-2.05,49.54,3.42,74.44Z"/><path d="M373.94,646.36c-20.82-41.77-30.48-84.21-43.62-126.73l-3.92-1.02c-6.92,2.34-13.73,6.1-20.62,9.89-10.34,5.7-20.89,11.49-32.33,12.75-2.72,1.52-5.5,2.66-8.33,3.31l-.65-1.03-.77-1.24-.8-1.29-.85-1.34-.88-1.41-.91-1.47-.89-1.48-.29-.49c4.44-2.13,18.86-9.04,65.82-31.55-2.57-28.58-13.75-55.98-12.84-84.49l13-19.87,3.92,1.02c-.74,31.29,5.73,62.06,13.35,92.85,12.5.99,24.56-8.7,37.11-10.02,1.93.69,3.97.06,5.94-.59,2.94-.96,5.72-1.92,7.72,1.61-4.71,12.39-15.64,15.82-26.98,19.44-5.91,1.88-11.93,3.82-17.25,7.12,9.14,44.97,21.95,91.66,42.02,135.51-.14,1.72-1.04,2.63-2.28,3.21-1.79.84-4.26,1.01-6.19,1.92t-8.48-4.61Z"/><path d="M452.45,569.43c-6.15-47.58-14.18-96.31-16.73-137.83,3.94-5.76,8.89-9.61,14.06-12.46,14.58,62.61,25.37,127.21,28.13,189.48-.54,3.33-2.65,4.5-5.17,5.11-.9.22-1.85.36-2.8.51-1.71.26-3.41.52-4.78,1.19-10.85-11.78-8.44-30.5-12.71-46Z"/><path d="M423.13,372.78c-8.04-.19-14.65-7.67-20.01-12.24.83-9.8-6.52-18.16-8.95-28.24-.04-11.19-3.68-26.31,8.83-34.13,15.3-9.55,38.38-17.79,53.46-1.7,15.09,16.09,1.35,34.33,4.6,52.22-4.97,11.95-15.65,20.15-27.46,23-3.02.73-6.11,1.1-9.2,1.1-.43.01-.85,0-1.27,0ZM413.11,306.93c-5.31,2.34-6.73,7.49-9.28,12.37.74,16.35,11.06,30.4,24.08,37.92,6.65,1.06,18.11-.1,22.05-5.86l-9.28-3.09c-.33-5.79,4.36-10.65,5.16-16.18,2.21-8.53-.85-18.99-7.85-23.7-3.95-1.98-7.98-2.62-12.12-2.62-4.12,0-8.36.63-12.76,1.16Z"/><path d="M425.78,341.73c-2.89-.9-1.58-6.55-4.97-7.34-2.91,1.24-6.31,2.59-7.79-1.32-1.24-2.9-.33-5.78,2.19-6.39s5.91.17,7.56-1.83c1.04-4.52,2.14-15.45,9.12-8.6,1.24,2.9-1.3,5.65.94,8.31.92.29,2.13.18,3.35.07,2.61-.23,5.29-.46,5.43,3.14-1.01,1.64-2.93,1.89-4.97,2.17-1.86.25-3.81.53-5.25,1.9-1.94,3.18-.12,9.27-3.33,10.05-.22.06-.47.09-.73.09-.44,0-.96-.08-1.55-.25Z"/><path d="M553.9,575.22c-23.47-19.99-26.35-58.82-23.87-88.41,4.05-41.81,29.83-85.36,64.07-99.68,14.32-6.54,33.02-11.55,48.72-7.29l1.35,2.44c-26.51,17.51-65.86,16.28-77.37,56.95-13.73,31.55-14.38,71.36-2.9,103.86,9.15,26.53,35.88,39.31,58.84,38.98,20.94-7.91,38.76-23.78,51.82-44.27,3.46-26.06,27-46.32,15.85-76.25-2.55-11.7-9.65-22.29-16.63-31.85-15.19-4.33-29.14-23.45-45.17-9.89-1.99.78-4.18.02-5.47-1.91l.82-5.85c19.57-14.53,44.28-9.33,63.42,5.46,7.93,8.92,13.88,18.61,17.97,30.1,3.14,40.89-11.73,75.72-28.15,110.76-13.37,22.1-30.23,41.5-52.85,44.4-4.42.56-8.93.89-13.46.89-20.72,0-41.77-6.8-56.99-28.44Z"/><path d="M596.03,516.51c.1-7.33,2.33-14.41,1.86-22.19-4.26-4.68-16.9,2.68-13.27-9.8,1.47-2.97,4.41-3.2,7.35-3.43,2.02-.16,4.05-.31,5.62-1.36,5.38-6.96,2.64-20.2,12.99-21.01,2.84,1.73,7.72-.99,7.34,4.29-5.19,4.32-4.27,11.52-3.03,17.11,3.03,3.28,7.59,2.16,10.63,5.43-22.91-3.34-8.09,26.65-20.02,35.5-.8.36-1.55.57-2.24.66-.25.03-.5.05-.73.05-3.08,0-4.95-2.62-6.5-5.25Z"/><path d="M745.62,569.32c-9.66-7.36-25.59-9.67-28.42-24.39-5.06-14.53-1.95-29.79,2.85-42.95,9.13-15.06,22.65-23.02,37.1-28.82,11.54,3.45,21.2,10.81,28.9,21.35-.68,9.05,5.26,16.76-5.55,21.47-5.47-2.5.68-9.04-4.12-12.35-3.57-6.43-5.73-13.72-14.25-16.69-15.19-2.37-20.26,16.07-25.34,26.26-5.21,16.95,6.8,33.84,22.95,38.37,28.1,4.2,47.28-15.51,65.8-34.41,41.37-72.65-15.46-146.17-47.11-206.23-31.39-40.61-65.74-80.95-77.07-131.6-20.32-25.88-9.36-62.08-10.56-91.93,4.81-29.64,25.69-63.75,57.11-72.58,29.52-13.15,68.49-12.93,95.49,4.1,2.63,4.25,7.36,6.82,7.77,11.28-16.59,5-33.41,4.66-51.01,4.39-12.57-.19-25.54-.34-39.1,1.51-16.75-2.98-17.3,15.8-23.25,24.58-34.91,119.26,58.12,203.73,99,299.66,17.07,39.65,38.93,90.87,20.4,134.49-22.1,31.4-47.68,72.39-88.91,76.12h-.01c-2,.18-4.03.27-6.1.27-5.25-.01-10.78-.6-16.57-1.9Z"/><path d="M968.27,522.87c-24.78-2.23-50.42-12.35-62.84-42.1-18.6-24.58-13.05-63.12-4.24-91.47,12.97-39.96,47.54-76.92,84.05-83.52,15.39-3.3,34.73-4.16,49.15,3.39l.8,2.67c-29.65,11.38-67.82,1.69-87.83,38.93-20.21,27.85-29.43,66.58-25.23,100.8,3.22,27.88,26.56,46.12,49.05,50.75,22.15-3.21,42.98-14.86,60.14-32.05,9-24.7,36.35-39.41,31.92-71.04.04-11.97-4.62-23.84-9.37-34.68-13.9-7.5-23.4-29.18-41.98-19.4-2.11.33-4.08-.89-4.93-3.05l2.06-5.54c22.24-9.96,45.25.44,60.75,19.01,5.83,10.42,9.55,21.16,11.06,33.27-5.75,40.6-27.79,71.41-51.38,102.08-16.74,17.56-35.97,32.15-57.08,32.15-1.36-.02-2.73-.08-4.1-.2Z"/><path d="M965.17,439.15c-3.53-.32-4.91-3.49-5.93-6.63,1.68-7.13,5.39-13.57,6.6-21.26-3.15-5.49-17.08-1.02-10.85-12.43,2.08-2.59,5-2.18,7.92-1.77,2.01.28,4.03.57,5.79-.12,6.75-5.64,6.93-19.16,17.21-17.71,2.39,2.3,7.74.7,6.24,5.77-6,3.1-6.65,10.33-6.65,16.06,2.26,3.85,6.95,3.75,9.21,7.6-21.64-8.2-13.64,24.28-27.2,30.34-.63.13-1.21.19-1.74.19-.21-.01-.41-.02-.6-.04Z"/><path d="M1221.12,515.27c-9.87-1.48-19.57-2.97-28.38-2.39l-77.37-5.08c-1.06-3.31-4.62-7.53-.91-11.16,10.37-9.42,3.04-29.95,13.84-38.79,19.94-40.99,25.37-83.17,41.53-126.84,4.85-7.65,13.05-13.2,21.32-19.27l2.96,4.65c-18.32,54.36-32.19,110.46-53.87,162.72l-1.34,8.71c46.2,6.58,89.56,4.33,137.13,12.17.79-.86,1.61-.69,2.53-.51.55.1,1.12.22,1.73.12,2.8,5.68-6.34,10.57-10.92,13.01-7.09,3.9-14.99,5.19-23.24,5.19-8.16,0-16.64-1.27-25.01-2.53Z"/><path d="M1364.99,510.65c-10.14-.92-23.19-3.46-27.72-14.79-10.97-43.36.99-81.65,12.36-120.36,3.39-7.93,9.61-14.76,17.53-17.67l2.39,1.71c-10.26,39.05-15.74,81.51-2.9,123.5,7.51,7.15,17.83,5.94,26.68,2.35,8.34-6.66,15.24-15.71,20.51-25-5.67-27.44,2.39-51.4,12.08-75.11,5.37-5.63,9.53-12.12,16.69-13.32l2.99,2.13c-4.81,33.94-29.3,75.9,3.04,105.69l13.13,3.05c-.76,4.86-5.01,10.83-9.36,13.14-14.91,1.98-26.44-13.43-35.57-23.99-13.29,13.71-22.49,35.12-42.39,38.46-1.73.29-3.54.44-5.44.44-1.29-.01-2.63-.08-4.02-.23Z"/><path d="M2169.19,574.98c-4.94,0-10.14-.79-15.6-2.54-6.22-5.7-17.11-8.29-18.15-18.66-2.59-10.37.52-20.74,4.66-29.55,7.26-9.85,17.11-14.52,27.48-17.62,7.78,3.11,14,8.81,18.67,16.59-1.04,6.22,2.59,11.93-5.18,14.52-3.63-2.07,1.03-6.22-2.08-8.81-2.08-4.67-3.11-9.85-8.81-12.44-10.37-2.59-15.03,9.85-19.18,16.59-4.67,11.41,2.59,23.85,13.48,27.99,19.18,4.67,33.7-7.78,47.7-19.7,33.18-47.69-1.56-102.13-19.71-145.68-19.18-30.07-40.44-60.14-45.1-95.91-12.45-19.18-2.59-43.55-1.55-64.29,5.18-20.22,21.77-42.51,44.06-46.66,21.26-7.26,48.22-4.66,65.85,8.81,1.55,3.11,4.67,5.18,4.67,8.29-11.8,2.42-23.42,1.13-35.58-.15-8.68-.92-17.65-1.84-27.15-1.4-11.4-3.11-12.96,9.85-17.62,15.55-31.62,80.36,27.48,144.65,49.77,213.6,9.33,28.52,21.25,65.33,5.71,94.36-17.29,20.34-37.56,47.11-66.34,47.11h0Z"/><path d="M1686.72,542.86c-1.72-.15-3.43-.3-4.93.04-7.78-13.99-1.04-31.62-1.56-47.69,5.18-47.7,8.81-96.95,16.08-137.91,5.18-4.67,10.89-7.26,16.59-8.81-.52,64.29-5.18,129.61-17.11,190.79-1.3,3.11-3.63,3.76-6.23,3.76-.93,0-1.89-.09-2.84-.18Z"/><path d="M1565.13,505.57l-5.7-7.78c-1.04-46.66,8.29-89.18,14.52-133.24l-3.11-2.59c-7.26-.83-15.01-.33-22.87.17-11.78.74-23.79,1.49-34.68-2.24-7.26.52-14-1.04-19.18-5.71l6.74-6.22,75.18-.52c9.85-26.96,11.41-56.51,24.36-81.92l20.22-12.44,3.11,2.59c-13.99,27.99-21.25,58.58-27.48,89.69,10.89,6.22,25.92,2.59,37.85,6.74,3.63,3.63,11.41,0,11.93,6.74-9.55,9.2-20.89,7.65-32.69,6.09-6.15-.81-12.43-1.62-18.64-.91-10.89,44.59-19.18,92.28-19.7,140.5-.86,1.5-2.06,1.94-3.44,1.94-1.97.01-4.28-.89-6.42-.89Z"/><path d="M1779.78,454.24c-20.74-22.81-18.66-61.69-12.44-90.73,9.33-40.96,40.44-80.88,76.21-90.73,15.04-4.67,34.22-7.26,49.25-1.04l1.04,2.59c-28.52,14-67.4,7.78-83.99,46.66-17.62,29.55-23.33,68.95-16.07,102.65,5.7,27.48,30.59,43.55,53.4,46.14,21.78-5.18,41.48-18.66,57.03-37.32,6.74-25.41,32.66-42.52,25.4-73.62-1.03-11.92-6.74-23.33-12.44-33.7-14.52-6.22-25.92-26.96-43.55-15.55-2.07.52-4.15-.52-5.18-2.59l1.56-5.7c21.26-11.92,45.1-3.63,62.21,13.48,6.74,9.85,11.41,20.22,14,32.15-2.08,40.95-21.25,73.62-41.99,106.28-16.08,20.22-35.25,37.32-58.07,37.32-24.89,0-51.33-7.77-66.37-36.29Z"/><path d="M2074.78,466.17c-1.04-4.15,0-11.41-.52-15.55-2.07-10.37,0-20.74,1.04-30.59-7.26-12.44-16.07-24.37-20.22-38.36-7.78-6.74-9.33-16.08-14-24.37-10.37-18.67-18.67-37.85-31.11-54.95l-2.08,1.55c-3.11,46.66-2.59,95.91-7.26,141.54-2.59,4.66-8.3,5.7-13.48,6.22l-8.29-5.18-2.08-11.4,3.63-115.1c3.63-20.74-2.59-45.62,11.41-62.21,5.18-2.07,10.89-4.66,17.11-3.63,2.08,2.59-1.04,6.22,1.04,9.33,24.36,39.92,44.07,82.43,65.32,123.91,3.63-5.18,1.04-13.48,3.11-19.7,5.18-32.66,4.15-68.44,10.37-100.58,5.71-4.15,5.18-15.03,14.52-12.96l1.04,2.59c-5.7,31.62-2.07,66.36-8.81,96.95-1.03,35.78-7.26,69.99-7.78,106.28-2.74,3.21-6.7,6.4-11.15,6.4-.6,0-1.2-.07-1.81-.19Z"/><path d="M1829.03,401.36c1.04-7.26,4.15-14,4.67-21.78-3.63-5.18-17.11.52-11.93-11.41,1.84-2.76,4.78-2.62,7.73-2.47,2.03.1,4.06.2,5.75-.64,6.22-6.22,5.18-19.7,15.55-19.18,2.59,2.08,7.78,0,6.74,5.18-5.7,3.63-5.7,10.89-5.18,16.59,2.59,3.63,7.26,3.11,9.85,6.74-22.3-6.22-11.41,25.41-24.37,32.66-.85.25-1.61.37-2.3.37-3.55.01-5.21-3.03-6.51-6.06Z"/><path d="M1697.85,297.15c-7.78-2.08-12.44-10.89-16.59-16.59,3.11-9.33-2.07-19.18-2.07-29.55,2.59-10.89,2.59-26.44,16.59-31.11,17.11-5.7,41.48-8.29,52.37,10.89s-6.74,33.69-7.78,51.84c-7.64,10.45-19.94,15.92-32.09,15.92-3.53,0-7.04-.46-10.43-1.4ZM1691.63,240.64c-3.11,16.08,3.63,32.15,14.52,42.51,6.22,2.59,17.63,4.15,22.81-.52l-8.3-5.18c1.04-5.7,6.74-9.33,8.81-14.52,4.15-7.78,3.63-18.66-2.07-24.89-6.74-5.7-15.04-6.22-23.85-7.26-5.7,1.04-8.29,5.71-11.92,9.86Z"/><path d="M1707.72,267.6c-2.59-1.55,0-6.74-3.11-8.3-3.11.52-6.74,1.04-7.25-3.11-.52-3.11,1.03-5.7,3.62-5.7s5.71,1.55,7.78,0c2.08-4.15,5.71-14.52,10.89-6.22.52,3.11-2.59,5.18-1.04,8.29,2.59,1.56,8.81,0,7.78,5.18-1.36,1.36-3.29,1.15-5.34.94-1.86-.19-3.82-.37-5.55.61-2.63,2.64-2.29,8.99-5.58,8.99-.61.01-1.33-.2-2.2-.68Z"/></g><g id="text-face"><path d="M379.88,476.69c2.94-.96,5.71-1.92,7.71,1.61-4.71,12.39-15.64,15.82-26.97,19.44-5.91,1.88-11.94,3.82-17.25,7.12,9.14,44.98,21.95,91.66,42.02,135.51-.14,1.72-1.04,2.63-2.29,3.21-1.79.84-4.26,1.01-6.19,1.92l-8.47-4.61c-20.82-41.78-30.48-84.21-43.62-126.73l-3.92-1.02c-6.92,2.35-13.73,6.1-20.62,9.89-10.34,5.7-20.89,11.49-32.33,12.75-2.72,1.52-5.5,2.66-8.33,3.3l-.65-1.03-.78-1.23-.8-1.29-.84-1.34-.88-1.41-.91-1.47-.89-1.48-.3-.49c4.44-2.12,18.87-9.04,65.82-31.55-2.57-28.58-13.75-55.98-12.84-84.49l13-19.87,3.92,1.02c-.74,31.29,5.73,62.06,13.35,92.85,12.5.99,24.55-8.7,37.11-10.03,1.95.7,3.99.06,5.95-.58Z" fill="#ff8b00"/><path d="M440.37,326.61c2.21-8.53-.84-18.99-7.85-23.7-3.95-1.98-7.98-2.62-12.12-2.62s-8.36.62-12.77,1.16c-5.3,2.34-6.73,7.49-9.28,12.37.75,16.36,11.06,30.4,24.09,37.92,6.65,1.06,18.11-.1,22.05-5.86l-9.28-3.09c-.33-5.79,4.36-10.65,5.16-16.18ZM450.97,290.99c15.09,16.09,1.35,34.33,4.6,52.22-4.97,11.95-15.65,20.15-27.46,23-3.02.73-6.11,1.11-9.2,1.11-.42,0-.84,0-1.26-.02-8.04-.19-14.65-7.67-20.02-12.24.83-9.8-6.52-18.16-8.95-28.24-.04-11.19-3.68-26.31,8.83-34.13,15.3-9.56,38.38-17.79,53.46-1.7Z" fill="#ff8b00"/><path d="M430.7,319.16c2.61-.23,5.29-.46,5.43,3.14-1.01,1.64-2.93,1.89-4.97,2.17-1.86.25-3.81.53-5.25,1.9-1.95,3.18-.12,9.27-3.33,10.04-.21.06-.46.09-.73.09-.44,0-.96-.07-1.55-.24-2.89-.9-1.58-6.55-4.97-7.34-2.91,1.23-6.31,2.59-7.79-1.32-1.24-2.9-.33-5.78,2.19-6.39s5.91.17,7.56-1.83c1.04-4.52,2.14-15.45,9.12-8.6,1.24,2.9-1.3,5.65.94,8.31.92.29,2.13.18,3.35.07Z" fill="#ff8b00"/><path d="M472.43,603.15c-.54,3.32-2.65,4.5-5.17,5.11-.9.22-1.86.37-2.8.51-1.71.26-3.41.52-4.79,1.19-10.84-11.78-8.43-30.5-12.7-46-6.15-47.58-14.18-96.31-16.73-137.83,3.94-5.75,8.89-9.61,14.06-12.46,14.58,62.6,25.37,127.2,28.13,189.48Z" fill="#ff8b00"/><path d="M699.86,442.14c3.14,40.89-11.73,75.72-28.15,110.76-13.37,22.1-30.23,41.5-52.85,44.41-4.43.56-8.93.89-13.46.89-20.71,0-41.77-6.81-56.98-28.46-23.47-19.99-26.36-58.82-23.87-88.41,4.05-41.81,29.83-85.36,64.07-99.68,14.32-6.54,33.02-11.55,48.72-7.29l1.35,2.44c-26.51,17.51-65.86,16.28-77.38,56.96-13.73,31.55-14.38,71.36-2.9,103.86,9.16,26.53,35.88,39.31,58.84,38.98,20.93-7.91,38.76-23.78,51.82-44.27,3.46-26.06,27-46.32,15.84-76.25-2.55-11.7-9.65-22.29-16.62-31.84-15.19-4.33-29.14-23.45-45.17-9.89-1.99.78-4.18.02-5.47-1.91l.82-5.85c19.57-14.53,44.28-9.33,63.42,5.46,7.93,8.9,13.88,18.6,17.97,30.09Z" fill="#ff8b00"/><path d="M620.04,480.07c-22.9-3.34-8.09,26.65-20.02,35.5-.8.36-1.55.57-2.24.66-.25.03-.5.05-.73.05-3.07,0-4.94-2.61-6.49-5.24.1-7.33,2.34-14.42,1.86-22.19-4.26-4.68-16.9,2.68-13.27-9.8,1.47-2.97,4.41-3.2,7.35-3.43,2.02-.16,4.05-.31,5.62-1.36,5.38-6.96,2.64-20.2,12.99-21.01,2.84,1.73,7.72-.99,7.34,4.29-5.19,4.32-4.27,11.52-3.03,17.11,3.02,3.26,7.59,2.14,10.62,5.42Z" fill="#ff8b00"/><path d="M226.66,629.49c8.66-4.25,14.93-9.86,22.34-14.98-9.23-19.21-15.27-41.04-25.75-59.46-1.72,24.14-2.07,49.54,3.41,74.44ZM304.05,705.41c-2.86-4.54-7.87-1.37-11.51-5.26-.91.27-2.39.3-2.63,1.2-16.52-22-26.09-48.98-35.78-76.35l-2.28-.98c-8.77,5.53-18.81,11.85-24.73,20.25,2.96,23.16,15.04,48.57,17.55,70.21-.8.12-1.59.16-2.36.16-4.29,0-8.18-1.54-12.23-2.43-23.7-65.88-25.98-131.54-23.8-197.29,2.39-3.62,5.24-7.37,8.43-9.99l8.77,11.06c15.95,30.05,27.81,62.98,41.14,94.24l5.47,1.68c-6.96,9.96,1.47,23.19,5.7,32.3,3.98,23.28,22.79,39.62,28.26,61.2Z" fill="#ff8b00"/><path d="M831.36,354.85c17.07,39.65,38.93,90.87,20.41,134.49-22.1,31.39-47.68,72.39-88.91,76.12t-.02.01c-2,.18-4.03.27-6.1.27-5.28,0-10.8-.6-16.59-1.89-9.66-7.36-25.59-9.67-28.42-24.39-5.06-14.52-1.95-29.79,2.85-42.95,9.13-15.06,22.65-23.02,37.1-28.82,11.55,3.45,21.21,10.81,28.9,21.35-.68,9.05,5.26,16.76-5.55,21.47-5.47-2.5.68-9.04-4.12-12.36-3.57-6.42-5.73-13.71-14.25-16.69-15.2-2.38-20.26,16.07-25.34,26.26-5.21,16.95,6.8,33.84,22.95,38.37,28.1,4.2,47.29-15.52,65.8-34.41,41.37-72.65-15.46-146.16-47.11-206.23-31.39-40.61-65.75-80.95-77.07-131.6-20.32-25.88-9.36-62.08-10.56-91.94,4.81-29.64,25.69-63.75,57.11-72.58,29.52-13.15,68.49-12.93,95.49,4.1,2.63,4.25,7.36,6.82,7.77,11.28-16.59,5-33.41,4.66-51.01,4.39-12.57-.19-25.54-.34-39.1,1.51-16.75-2.98-17.3,15.8-23.25,24.57-34.89,119.27,58.13,203.74,99.02,299.67Z" fill="#ff8b00"/><path d="M1064.29,350.07c5.83,10.42,9.55,21.16,11.06,33.28-5.75,40.6-27.79,71.41-51.38,102.08-16.74,17.57-35.97,32.15-57.07,32.15-1.36,0-2.73-.06-4.1-.19-24.79-2.23-50.43-12.36-62.84-42.11-18.6-24.58-13.05-63.12-4.24-91.47,12.97-39.96,47.54-76.93,84.05-83.52,15.39-3.3,34.73-4.16,49.15,3.39l.79,2.67c-29.65,11.38-67.82,1.69-87.83,38.93-20.21,27.85-29.43,66.58-25.23,100.8,3.21,27.88,26.56,46.12,49.05,50.75,22.14-3.21,42.98-14.86,60.14-32.05,9-24.7,36.35-39.41,31.92-71.04.04-11.97-4.62-23.84-9.37-34.68-13.9-7.5-23.4-29.18-41.98-19.4-2.11.34-4.08-.88-4.93-3.05l2.06-5.54c22.24-9.98,45.25.43,60.75,19Z" fill="#ff8b00"/><path d="M980.43,373.74c2.39,2.3,7.74.7,6.24,5.77-6,3.1-6.65,10.33-6.65,16.06,2.26,3.85,6.95,3.75,9.21,7.6-21.64-8.2-13.64,24.28-27.2,30.34-.63.13-1.21.19-1.74.19-.21,0-.4,0-.59-.02-3.53-.32-4.91-3.5-5.93-6.63,1.68-7.14,5.39-13.57,6.6-21.27-3.15-5.5-17.08-1.02-10.85-12.43,2.08-2.59,5-2.18,7.92-1.77,2.01.29,4.02.57,5.79-.12,6.74-5.65,6.91-19.16,17.2-17.72Z" fill="#ff8b00"/><path d="M1274.8,494.11c2.8,5.68-6.34,10.57-10.92,13.01-7.09,3.9-14.99,5.2-23.24,5.2s-16.63-1.27-25-2.53c-9.87-1.48-19.57-2.97-28.39-2.39l-77.37-5.08c-1.06-3.31-4.62-7.53-.91-11.16,10.37-9.42,3.04-29.95,13.84-38.79,19.94-40.99,25.37-83.17,41.53-126.84,4.85-7.64,13.05-13.2,21.32-19.28l2.96,4.65c-18.32,54.36-32.19,110.46-53.87,162.72l-1.34,8.71c46.2,6.58,89.55,4.34,137.13,12.17.79-.86,1.61-.69,2.53-.51.55.11,1.12.23,1.73.12Z" fill="#ff8b00"/><path d="M1456.3,477.34c-.76,4.86-5.02,10.84-9.36,13.14-14.91,1.98-26.44-13.43-35.57-23.99-13.29,13.7-22.49,35.12-42.39,38.46-1.73.29-3.54.45-5.44.45-1.3,0-2.64-.07-4.02-.22-10.14-.92-23.19-3.46-27.72-14.79-10.97-43.36.99-81.65,12.36-120.36,3.39-7.93,9.61-14.76,17.53-17.67l2.39,1.71c-10.26,39.05-15.74,81.51-2.9,123.5,7.52,7.15,17.83,5.95,26.68,2.35,8.34-6.66,15.24-15.7,20.51-25-5.66-27.44,2.39-51.4,12.08-75.11,5.37-5.63,9.53-12.12,16.69-13.32l2.99,2.12c-4.81,33.94-29.3,75.9,3.04,105.69t13.13,3.04Z" fill="#ff8b00"/><path d="M1628.61,346.63c3.63,3.63,11.41,0,11.93,6.74-9.55,9.2-20.88,7.64-32.69,6.09-6.14-.81-12.43-1.62-18.64-.91-10.89,44.59-19.18,92.29-19.7,140.5-.86,1.5-2.06,1.94-3.44,1.94-1.96-.01-4.28-.9-6.41-.9l-5.7-7.78c-1.04-46.66,8.29-89.18,14.52-133.25l-3.11-2.59c-7.26-.83-15.01-.34-22.87.17-11.78.74-23.79,1.49-34.68-2.24-7.26.52-14-1.04-19.18-5.71l6.74-6.22,75.18-.52c9.85-26.96,11.41-56.51,24.36-81.91l20.22-12.44,3.11,2.59c-13.99,27.99-21.25,58.58-27.48,89.69,10.88,6.23,25.91,2.6,37.84,6.75Z" fill="#ff8b00"/><path d="M1690.83,351.81c5.19-4.67,10.89-7.26,16.59-8.81-.52,64.29-5.18,129.61-17.11,190.79-1.3,3.11-3.64,3.76-6.23,3.76-.93,0-1.89-.08-2.84-.17-1.71-.15-3.43-.3-4.93.04-7.78-14-1.04-31.62-1.56-47.7,5.19-47.7,8.82-96.95,16.08-137.91Z" fill="#ff8b00"/><path d="M1724,257.45c4.15-7.78,3.63-18.66-2.07-24.89-6.74-5.7-15.04-6.22-23.85-7.25-5.7,1.03-8.29,5.7-11.92,9.85-3.11,16.07,3.63,32.14,14.52,42.51,6.22,2.59,17.63,4.15,22.81-.52l-8.3-5.18c1.03-5.71,6.74-9.34,8.81-14.52ZM1742.67,225.31c10.89,19.18-6.74,33.7-7.78,51.84-7.63,10.45-19.94,15.92-32.09,15.92-3.53,0-7.04-.46-10.42-1.4-7.78-2.07-12.45-10.89-16.59-16.59,3.11-9.33-2.07-19.18-2.07-29.55,2.59-10.89,2.59-26.44,16.59-31.11,17.1-5.7,41.46-8.29,52.36,10.89Z" fill="#ff8b00"/><path d="M1713.12,247.08c2.59,1.56,8.82,0,7.78,5.19-1.36,1.36-3.29,1.15-5.34.94-1.86-.19-3.82-.38-5.55.61-2.63,2.64-2.29,8.98-5.59,8.98-.59,0-1.32-.21-2.19-.69-2.59-1.55,0-6.74-3.11-8.3-3.11.52-6.74,1.04-7.25-3.11-.52-3.11,1.03-5.7,3.62-5.7s5.71,1.55,7.78,0c2.07-4.14,5.71-14.52,10.89-6.22.52,3.12-2.59,5.2-1.04,8.3Z" fill="#ff8b00"/><path d="M1926.72,309.3c6.74,9.86,11.41,20.22,14,32.15-2.08,40.95-21.26,73.61-42,106.28-16.07,20.22-35.25,37.32-58.07,37.32-24.89,0-51.32-7.77-66.36-36.29-20.74-22.81-18.66-61.7-12.44-90.73,9.33-40.96,40.44-80.88,76.21-90.73,15.04-4.67,34.22-7.26,49.25-1.04l1.04,2.59c-28.52,14-67.4,7.78-83.99,46.66-17.62,29.55-23.33,68.95-16.07,102.66,5.7,27.48,30.59,43.55,53.4,46.14,21.77-5.18,41.48-18.66,57.03-37.32,6.74-25.41,32.66-42.52,25.4-73.62-1.03-11.92-6.74-23.33-12.44-33.7-14.52-6.22-25.92-26.96-43.55-15.55-2.07.52-4.14-.52-5.18-2.59l1.56-5.7c21.26-11.93,45.1-3.64,62.21,13.47Z" fill="#ff8b00"/><path d="M1845.33,340.41c2.59,2.07,7.78,0,6.74,5.18-5.7,3.63-5.7,10.89-5.18,16.59,2.59,3.63,7.26,3.11,9.85,6.74-22.3-6.22-11.41,25.41-24.37,32.66-.85.25-1.61.37-2.3.37-3.55,0-5.21-3.04-6.51-6.07,1.04-7.26,4.15-14,4.67-21.78-3.63-5.18-17.11.52-11.93-11.41,1.84-2.77,4.78-2.62,7.73-2.47,2.02.1,4.06.2,5.75-.64,6.22-6.21,5.18-19.69,15.55-19.17Z" fill="#ff8b00"/><path d="M2097.81,248.65l1.04,2.59c-5.7,31.62-2.07,66.36-8.82,96.95-1.03,35.77-7.25,69.99-7.78,106.28-2.74,3.21-6.7,6.41-11.15,6.41-.6,0-1.2-.06-1.81-.18-1.04-4.15,0-11.41-.52-15.55-2.07-10.37,0-20.74,1.04-30.59-7.26-12.45-16.07-24.37-20.22-38.36-7.78-6.74-9.33-16.07-14-24.37-10.37-18.67-18.67-37.85-31.11-54.95l-2.08,1.55c-3.11,46.66-2.59,95.91-7.25,141.54-2.59,4.66-8.3,5.7-13.48,6.22l-8.29-5.18-2.07-11.4,3.63-115.1c3.63-20.74-2.59-45.62,11.41-62.21,5.19-2.07,10.89-4.66,17.11-3.62,2.08,2.59-1.04,6.21,1.04,9.33,24.36,39.92,44.07,82.43,65.32,123.91,3.63-5.18,1.04-13.48,3.11-19.7,5.19-32.66,4.15-68.44,10.37-100.59,5.71-4.18,5.18-15.06,14.51-12.98Z" fill="#ff8b00"/><path d="M2250.24,192.12c1.55,3.11,4.67,5.18,4.67,8.29-11.8,2.42-23.41,1.13-35.58-.15-8.68-.92-17.65-1.84-27.15-1.4-11.4-3.11-12.96,9.85-17.62,15.55-31.62,80.36,27.48,144.65,49.77,213.61,9.33,28.52,21.25,65.33,5.71,94.36-17.26,20.35-37.53,47.12-66.3,47.12h-.01c-4.94,0-10.14-.79-15.6-2.54-6.22-5.7-17.11-8.29-18.15-18.66-2.59-10.37.52-20.74,4.66-29.55,7.26-9.85,17.11-14.52,27.48-17.62,7.78,3.11,14,8.81,18.67,16.59-1.04,6.22,2.59,11.93-5.18,14.52-3.63-2.07,1.03-6.21-2.08-8.81-2.07-4.67-3.11-9.85-8.81-12.45-10.37-2.59-15.04,9.86-19.18,16.59-4.67,11.41,2.59,23.85,13.48,27.99,19.18,4.67,33.7-7.78,47.7-19.7,33.18-47.7-1.56-102.13-19.7-145.68-19.18-30.07-40.44-60.14-45.1-95.91-12.45-19.18-2.59-43.55-1.55-64.29,5.18-20.21,21.77-42.52,44.06-46.66,21.22-7.27,48.18-4.68,65.81,8.8Z" fill="#ff8b00"/><path d="M688.93,738.76c.26-.21.52-.41.77-.62-2.96-1.51-5.89-3.09-8.79-4.76-6.14-3.54-12-7.62-17.47-12.12-5.29-4.35-10.25-9.22-14.45-14.63-4.3-5.52-7.95-11.51-10.46-18.06-2.63-6.88-3.84-14.02-3.78-21.37.05-7.2,1.97-14.33,4.75-20.92,2-4.73,4.77-9.05,7.92-13.07-.77-.04-1.53-.09-2.29-.15-2.96-.25-5.9-.51-8.86-.61-2.46.01-4.92.18-7.37.28-2.71.11-5.39.07-8.1.02-.89-.02-1.78-.03-2.5-.04-3.86-.04-7.73-.01-11.57.23-3.68.23-7.35.58-11.02.87-7,.55-14,.94-20.98,1.66-5.99.68-11.96,1.5-17.93,2.37-5.61.81-11.23,1.6-16.84,2.44-5.55.84-11,2.09-16.49,3.27-5.47,1.18-10.98,2.2-16.43,3.48-5.49,1.35-10.93,2.9-16.41,4.27-6.09,1.52-12.16,3.06-18.21,4.71-5.98,1.64-11.9,3.45-17.82,5.3-5.92,1.86-11.78,3.92-17.7,5.79-5.87,1.85-11.74,3.64-17.49,5.81-6.03,2.35-12.01,4.82-18.06,7.12-4.83,1.89-9.58,3.98-14.35,6.03-5.54,2.38-11.05,4.81-16.53,7.33-10.26,4.71-20.39,9.74-30.33,15.1h-.01s-.02.01-.04.02l-.25.14c-15.2,8.26-30,17.27-44.07,27.34-9.11,6.61-17.86,13.66-26.06,21.37-4.98,4.79-9.7,9.82-14.08,15.17-2.7,3.41-5.21,6.94-7.52,10.62-1.58,2.7-3.04,5.46-4.33,8.3-.86,2.05-1.61,4.14-2.26,6.27-.29,1.1-.55,2.21-.77,3.32,2.02,3.05,3.17,7.56,2.08,11.03-.54.95-1.09,1.86-1.66,2.75.18.57.36,1.12.56,1.68.45,1.07.93,2.13,1.45,3.16.67,1.16,1.39,2.29,2.15,3.39.86,1.12,1.77,2.19,2.72,3.24,1.32,1.33,2.7,2.59,4.14,3.79,1.92,1.48,3.91,2.86,5.97,4.15,2.95,1.71,5.97,3.26,9.08,4.67,4.7,1.98,9.51,3.63,14.41,5.06,7.37,2.04,14.85,3.55,22.4,4.7,11.88,1.67,23.86,2.5,35.86,2.76,14.57.2,29.11-.41,43.61-1.63,1.6,2.02,3.32,3.95,5.05,5.85.21.23.43.46.64.68.04.04.09.09.13.13.16.17.33.34.5.51l.38.38c.18.18.37.36.56.54.22.21.44.42.66.62.05.04.1.09.15.14.24.22.48.44.73.65.04.04.09.08.14.12.74.65,1.5,1.28,2.27,1.9.67.54,1.36,1.04,2.07,1.51.27.18.55.36.82.54,1.21.76,2.46,1.46,3.72,2.15.1.06.2.11.3.16.01.01.02.01.02.02s.01.01.02.01c.02.01.04.02.05.03h.01s.1.06.14.09c.38.21.77.42,1.15.62.36.2.73.39,1.09.58.41.21.82.43,1.23.63.26.13.52.27.78.39.13.07.26.13.39.2h-.01c.55.27,1.1.53,1.65.79,1.12.52,2.25,1.04,3.39,1.5.63.25,1.26.5,1.9.73.36.13.75.24,1.14.27,5.07,2.08,10.26,3.76,15.52,5.27,12.93,3.51,26.11,5.91,39.35,7.88,24.71,3.54,49.67,5.34,74.62,5.88,1.64.04,3.29.07,3.6.07,21.83.32,43.68-.36,65.39-2.73,9.13-1.07,18.21-2.44,27.17-4.56,3.87-.97,7.7-2.07,11.44-3.45,1.49-.6,2.95-1.24,4.38-1.97h.01c-.36-.24-.71-.49-1.07-.73-2.06-1.15-4.16-2.2-6.32-3.16-4.85-1.94-9.78-3.56-14.79-5.02-13.15-3.59-26.57-6.07-40.03-8.07-24.67-3.48-49.63-5.27-74.54-5.79-1.1-.03-2.2-.04-2.54-.05h-.72c-9.72-.15-19.45-.1-29.18.21-.59.02-1.19.04-1.78.06-1.09.04-2.18.08-3.28.12-.06,0-.11,0-.17.01-1.09.05-2.18.09-3.28.15h-.09c.1-.21.19-.41.29-.62.21-.45.41-.9.61-1.35,0-.01,0-.02.01-.02.1-.22.2-.45.29-.68.08-.19.15-.38.23-.57.04-.09.08-.19.11-.28.07-.17.13-.34.19-.51.03-.08.05-.15.08-.23.24-.68.49-1.35.73-2.02h0c.06-.17.12-.34.18-.5h0c.06-.17.12-.34.17-.5.06-.17.11-.34.17-.51.05-.17.11-.34.16-.51.43-1.47.84-2.92,1.2-4.41h0c.16-.68.32-1.37.46-2.05.13-.62.26-1.25.38-1.87,0-.02.01-.04.01-.05.05-.25.09-.5.14-.75.07-.39.14-.79.2-1.18.04-.25.08-.5.12-.75s.07-.5.11-.75c.04-.29.08-.59.12-.88h0c.09-.72.18-1.44.27-2.15.01-.08.02-.16.03-.23h0c.08-.63.16-1.27.24-1.9.1-.79.18-1.56.21-2.35.02-.41-.03-.8-.02-1.21v.03c.02-.7-.05-1.4-.45-2.02-.04-.07-.09-.13-.13-.19.25-.68.5-1.35.73-2.04.52-1.72.96-3.45,1.33-5.21.27-1.7.48-3.39.61-5.12.04-1.62.02-3.23-.07-4.86-.17-1.54-.39-3.07-.68-4.59-.36-1.53-.79-3.03-1.29-4.52-.55-1.44-1.16-2.84-1.82-4.23-.87-1.62-1.81-3.19-2.82-4.73-1.08-1.48-2.21-2.89-3.42-4.28-1.43-1.5-2.91-2.92-4.48-4.28-1.77-1.41-3.59-2.73-5.48-3.98-2.02-1.23-4.09-2.36-6.21-3.42l-.5-.23c-2.44-1.07-4.9-2.02-7.42-2.88-3.04-.91-6.08-1.68-9.19-2.28-3.25-.52-6.5-.89-9.79-1.1-3.77-.14-7.54-.09-11.3.15-3.52.32-7.01.81-10.48,1.5-3.92.86-7.77,1.91-11.57,3.19-3.66,1.33-7.23,2.87-10.71,4.58-3.04,1.6-5.98,3.36-8.83,5.29-2.61,1.84-5.12,3.82-7.51,5.95-2.13,1.99-4.15,4.08-6.05,6.29-1.57,1.93-3.04,3.94-4.41,6.02-1.12,1.84-2.17,3.71-3.12,5.64-.82,1.83-1.55,3.69-2.19,5.59-.51,1.71-.95,3.43-1.29,5.18-.27,1.65-.46,3.31-.58,4.98-.02.65-.04,1.3-.04,1.95.01.13.01.26.01.39.01.36.02.72.04,1.08.43,4.86-2.82,9.64-7.62,10.97-5.91,1.64-12.34-2.42-13.13-8.58-.13-1.05-.15-2.13-.17-3.18,0-.58.03-1.15.12-1.7.04-2.48.11-4.95.5-7.4.85-5.29,2.3-10.45,4.38-15.39,4.02-9.57,10.13-18.35,17.68-25.48,17.73-16.74,41.42-26.23,65.66-27.67,26.59-1.59,55.89,7.15,72.54,29.07,4.24,5.58,7.38,11.73,9.55,18.39,2.26,6.96,2.75,14.36,2.27,21.61-.25,3.73-.93,7.51-1.96,11.18,15.25-4.4,30.36-9.3,45.28-14.73,4-1.46,7.99-2.95,11.97-4.47,16.32-6.27,32.39-13.18,48.12-20.79-.5-.36-1-.73-1.49-1.12-3.37-2.67-6.39-5.69-8.36-9.57-1.75-3.45-2.37-7.35-1.66-11.16.6-3.23,2.18-6.19,4.36-8.62,4.67-5.21,11.64-8.01,18.15-10.11,6.46-2.09,13.22-3.34,19.93-4.34,6.45-.97,12.95-1.61,19.45-2.06.34-.05.68-.1,1.03-.12.7-.06,1.42-.1,2.12-.14.34-.02.67-.02,1-.01,4.14-.26,8.29-.45,12.43-.48,1.45-.01,2.89-.01,4.34.01,2.17-.03,4.37-.04,6.58-.02ZM726.95,587.99c-2.2-4.87-4.71-9.56-7.25-13.77-3.08-5.05-6.46-9.91-10.12-14.55-.02-.03-.05-.07-.07-.1-.04-.04-.07-.08-.11-.12-1.8-2.25-3.69-4.43-5.66-6.54-.85-.92-1.73-1.81-2.62-2.68-1.79-1.72-3.66-3.37-5.63-4.88-.87-.63-1.75-1.23-2.67-1.79.01.24.02.48.02.73.07,2.45.11,4.89.14,7.34.03,2.66-.12,5.32-.24,7.97-.11,2.52-.22,5.03-.33,7.54-.47,11.14-.96,22.27-1.43,33.4v.05c2.16-1,4.34-1.96,6.52-2.91,5.33-2.31,10.82-4.01,16.36-5.76,4.34-1.38,8.7-2.7,13.09-3.93ZM826.86,692.68c.33-1.31.68-2.62.96-3.94-.62-.21-1.24-.41-1.88-.59-1.32-.33-2.66-.59-4-.79-1.55-.19-3.09-.29-4.64-.3-1.55.01-3.09.11-4.63.29-1.51.21-3,.5-4.48.86-1.55.41-3.08.91-4.58,1.5-1.11.46-2.2.97-3.26,1.54.48.92.95,1.84,1.41,2.76.79,1.6,1.59,3.19,2.38,4.79.43.87.87,1.74,1.3,2.6.49.98.95,1.98,1.49,2.92l.03.03c.11.12.22.23.33.34,1.48,1.24,3.04,2.41,4.56,3.59.8.62,1.59,1.24,2.39,1.86.03,0,.06.01.09.02.45.09.86.27,1.24.52.57-.34,1.14-.71,1.68-1.09.71-.57,1.39-1.16,2.05-1.78.48-.5.94-1,1.4-1.52.76-1.04,1.43-2.11,2.08-3.21.55-1.01,1.02-2.04,1.45-3.09.97-2.4,1.95-4.81,2.63-7.31ZM830.27,743.02c-1.12-.42-2.22-.9-3.29-1.44-3.49-1.75-6.7-4.04-9.47-6.78-1,3.01-2.62,5.82-4.76,8.16-.21.23-.42.45-.63.66h.18c5.99-.05,11.99-.24,17.97-.6ZM842.64,789.12c.14-.07.27-.15.4-.23-.91-.7-1.85-1.37-2.81-2-2.5-1.5-5.08-2.83-7.72-4.06-5.99-2.63-12.17-4.8-18.43-6.71-15.16-4.48-30.69-7.68-46.29-10.21-22.36-3.5-44.92-5.57-66.2-6.3-1.22-.04-2.44-.07-2.87-.08-.83-.02-1.65-.04-2.48-.05h0c-.7-.01-1.39-.02-2.08-.04-1.39-.02-2.78-.04-4.17-.04-1.76-.01-3.52-.01-5.27.01-.34.02-.67.03-1.01.04h-.03c-.56.02-1.11.04-1.63.06-1.04.03-1.99.05-2.76.04-1.19-.02-2.39,0-3.59.03-.63.02-1.26.04-1.89.07-.63.03-1.27.06-1.89.09-1.27.07-2.53.14-3.79.2-.66.04-1.33.07-2,.11-.27.04-.54.07-.82.08-.71.04-1.42.09-2.12.12h-.38c-1.4.09-2.8.2-4.21.31-.16.01-.32.03-.48.04-1.57.12-3.14.27-4.71.42-6.47.71-12.91,1.65-19.27,3.07-2.73.68-5.43,1.43-8.09,2.34-1.35.53-2.68,1.09-3.98,1.72-.16.09-.31.18-.47.27.02.02.05.04.07.06.96.73,1.94,1.43,2.95,2.09,2.41,1.44,4.9,2.71,7.44,3.91.45.2.89.39,1.34.58.38.16.76.32,1.14.48.3.12.61.25.92.38.38.16.76.31,1.14.46.02.01.04.01.05.02.39.15.77.3,1.16.45.39.15.77.3,1.16.45.39.15.78.29,1.16.43.39.14.78.29,1.17.43.39.14.78.28,1.17.42.37.13.73.26,1.1.39.43.15.87.3,1.3.45.37.12.75.25,1.12.37.84.28,1.69.56,2.54.83.73.23,1.46.46,2.2.68.77.23,1.54.45,2.3.67.42.12.84.24,1.26.36.51.14,1.02.29,1.53.42.52.14,1.04.29,1.55.43.17.04.34.09.51.14.69.18,1.39.37,2.08.55,12.17,3.17,24.52,5.6,36.93,7.6,22.42,3.5,45.06,5.61,67.74,6.3,15.38.38,30.81.12,46.13-1.41,6.66-.7,13.29-1.66,19.82-3.12,2.84-.69,5.64-1.48,8.39-2.46,1.23-.53,2.46-1.07,3.67-1.66ZM852.5,770c.36-2.86.93-5.72,1.68-8.54-4.95.66-9.91,1.21-14.89,1.65,4.52,1.98,9.09,4.13,13.21,6.89ZM903.94,751.55c.15-.54.3-1.07.44-1.6-8.73,3-17.63,5.44-26.64,7.41-.02.03-.03.05-.04.08-1.09,2.46-2.05,4.96-2.89,7.52-.6,2.07-1.1,4.17-1.48,6.29-.21,1.44-.36,2.88-.45,4.33-.01,1.06.01,2.12.08,3.19.09.72.2,1.43.34,2.13.12.44.24.86.38,1.29.12.28.24.56.36.84.11.18.22.37.33.54.08.1.15.19.23.29.07.07.14.14.21.21.02.01.03.02.05.04.04.02.07.04.1.05.05.02.09.04.14.06.07.01.14.03.21.04.13.02.26.03.39.04.24-.01.47-.01.71-.03.32-.05.63-.09.95-.15.5-.13.98-.28,1.47-.44.67-.27,1.34-.56,1.99-.88,1.01-.55,1.98-1.14,2.94-1.78,1.32-.96,2.59-1.99,3.82-3.08,1.61-1.51,3.12-3.1,4.56-4.76,1.73-2.12,3.34-4.32,4.84-6.61,1.52-2.48,2.89-5.01,4.15-7.62,1.06-2.43,2-4.89,2.81-7.4ZM932.22,557.93c.02-1.32.02-2.64.02-3.49-.03-6.97-.29-13.96-1.09-20.52-6,5.8-11.78,11.86-17.8,17.63-8.53,9.3-18.2,17.7-25.92,27.68-1.96,3.05-4.18,5.94-6.31,8.88,1.47.4,2.94.83,4.4,1.28,1.83-.76,3.88-1.02,5.94-.65,1.1.2,2.21.61,3.29.95.47.14.91.32,1.34.54,1.06.32,2.12.64,3.15,1,2.58.88,5.15,1.8,7.69,2.79,6.29,2.44,12.53,5.06,18.55,8.11.78.39,1.56.79,2.34,1.2.86-4.42,1.55-8.88,2.15-13.35,1.38-10.64,2.11-21.35,2.25-32.05ZM960.63,676.47c.15-1.47.24-2.93.27-4.41-.04-1.41-.14-2.8-.3-4.2-.22-1.38-.49-2.73-.81-4.09-.45-1.56-.97-3.1-1.55-4.62-.81-1.84-1.68-3.64-2.64-5.41-1.22-2.04-2.53-4.01-3.93-5.93-1.81-2.28-3.71-4.46-5.73-6.56-2.9-2.84-5.95-5.49-9.15-7.99-2.97-2.21-6.04-4.29-9.17-6.25-.11-.07-.21-.14-.32-.2-.27-.17-.54-.34-.81-.5-.14-.09-.29-.18-.44-.27-.36-.22-.71-.44-1.07-.65-.11-.07-.22-.14-.34-.2-.53-.31-1.05-.62-1.59-.93-.32-.18-.64-.36-.96-.53-.06-.04-.13-.07-.19-.11-.09-.05-.18-.09-.26-.14h0c-5.71-3.09-11.55-5.89-17.56-8.36-3.02-1.19-6.06-2.32-9.13-3.39-1.88-.66-3.76-1.32-5.67-1.93-.37-.07-.74-.17-1.11-.29-.54-.17-1.08-.34-1.61-.52h-.02c-.54-.19-1.07-.39-1.61-.61,0-.01.01-.02.02-.04-1.6-.76-2.98-1.88-4.03-3.38-2.91-.7-5.82-1.39-8.73-2.07-.01,0-.02,0-.03-.01h0c-1.91-.45-3.82-.89-5.73-1.34-5.28-1.22-10.58-2.38-15.95-3.14-6.32-.74-12.69-1.16-19.03-1.69-7.06-.59-14.15-1.14-21.25-1.18-7.99.05-16,.3-23.98.72-7.94.41-15.88,1.23-23.49,2.19-.09.01-.19.02-.28.04h-.01c-5.14.7-10.28,1.52-15.32,2.75-2.77.68-5.54,1.33-8.31,2h0c-.41.1-.82.2-1.23.3-.73.18-1.45.35-2.18.53-.91.22-1.81.45-2.72.68-.23.06-.46.11-.68.17-.06.02-.13.04-.19.05-5.3,1.43-10.58,3-15.69,5.02-8.09,3.34-16.1,6.83-23.74,11.11-.01,0-.03.01-.04.02-.5.29-1.01.59-1.51.89-.23.14-.47.28-.7.42-.15.09-.29.18-.44.27-.16.1-.32.2-.48.3-.05.03-.11.06-.16.1-.11.06-.21.12-.31.19-.05.04-.11.07-.16.11-.11.07-.23.14-.34.21-.11.07-.23.14-.34.21-.15.09-.3.19-.45.28-.03.02-.07.04-.1.06-.13.08-.26.16-.39.24-.14.09-.27.17-.41.26-.1.07-.2.13-.3.2-.15.09-.3.19-.46.3-.06.04-.13.08-.19.12-.1.06-.2.13-.3.2-.08.05-.16.1-.24.16-.04.03-.08.05-.12.08-.03.02-.05.03-.07.05-.1.06-.2.13-.3.2-.43.29-.87.58-1.29.87-.62.42-1.25.85-1.86,1.29-.27.19-.54.38-.8.57-.08.05-.15.11-.23.16-.51.37-1.02.74-1.52,1.12-.15.12-.3.24-.45.36-.34.26-.66.53-.99.8-.09.07-.17.14-.26.21-.47.38-.93.76-1.39,1.15-.49.41-.97.83-1.45,1.25-.02.02-.04.03-.05.05-.5.44-.98.88-1.47,1.32h-.01c-.95.87-1.88,1.74-2.8,2.64-1.64,1.71-3.19,3.53-4.66,5.39-1.55,2.09-2.96,4.28-4.29,6.52-1.04,1.88-1.99,3.79-2.84,5.76-.6,1.55-1.12,3.13-1.58,4.73-.34,1.43-.62,2.86-.84,4.3-.14,1.44-.24,2.88-.27,4.32.04,1.28.13,2.55.25,3.84.25,1.61.56,3.19.94,4.77.42,1.43.89,2.84,1.41,4.24.79,1.84,1.65,3.64,2.61,5.4,1.21,2.04,2.52,4,3.93,5.92,1.94,2.46,4,4.8,6.19,7.05,2.86,2.75,5.84,5.32,8.95,7.76,4.31,3.2,8.79,6.12,13.43,8.81,4.28,2.37,8.64,4.55,13.09,6.57h0c.43.2.85.39,1.28.58.16.07.31.14.46.21.45.2.89.4,1.34.59.3.13.6.26.9.39.43.19.87.37,1.3.55.3.13.61.25.91.38.55.22,1.1.43,1.66.65,2.22.86,4.46,1.68,6.7,2.47.5.18,1,.35,1.5.52,1.66.57,3.33,1.13,5.01,1.66,4,1.28,8.02,2.46,12.09,3.55,6,1.52,12.03,2.84,18.11,3.96-.95-.96-1.86-1.98-2.7-3.04-3.66-4.63-6.26-10.05-6.91-15.96-.52-4.78.39-9.76,2.78-13.95.07-.18.16-.34.26-.51.95-1.52,2.04-2.92,3.16-4.08.23-.24.47-.48.71-.71.29-.29.61-.62.96-.84.67-.39,1.35-.64,2.14-.6.92.05,1.79.46,2.41,1.14,1.28,1.42,1.14,3.62-.25,4.91-.3.28-.59.56-.87.85-.53.57-1.03,1.16-1.51,1.78-.41.58-.79,1.17-1.15,1.79-.29.55-.55,1.11-.79,1.69-.24.64-.45,1.29-.62,1.95-.17.75-.29,1.51-.38,2.27-.04.57-.07,1.12-.08,1.69.02.82.08,1.64.18,2.46.14.84.31,1.67.51,2.5.28.93.59,1.84.95,2.75.49,1.12,1.03,2.2,1.64,3.26.67,1.09,1.39,2.14,2.17,3.15.9,1.11,1.86,2.15,2.87,3.16,1.19,1.13,2.43,2.18,3.74,3.17,1.36.98,2.76,1.87,4.21,2.7.58.31,1.16.61,1.75.9.44.06.89.12,1.33.18,8.59,1.04,17.21,1.73,25.84,2.08.3-.11.59-.22.89-.34.87-.38,1.71-.8,2.53-1.27.75-.46,1.47-.95,2.17-1.48.66-.53,1.28-1.09,1.87-1.69.5-.54.96-1.1,1.41-1.68.36-.52.7-1.04,1.01-1.59.3-.57.57-1.16.82-1.76.26-.68.48-1.37.66-2.07.15-.66.27-1.32.36-1.98.07-.69.11-1.37.11-2.06v-.12c-1.67-2.88-2.95-5.98-3.79-9.21-.37-1.44-.42-2.91-.38-4.39-.88-.69-1.77-1.38-2.65-2.07-.98-.76-1.99-1.53-2.88-2.41-1.23-1.22-1.91-3-2.68-4.54-1.55-3.13-3.11-6.25-4.7-9.36-.18-.35-.36-.7-.54-1.05-.4-.77-.8-1.55-1.2-2.33-.49-.94-1.03-1.88-1.41-2.86-.02-.07-.05-.13-.07-.2,1.29-1.07,2.67-2.02,4.08-2.86.54-.32,1.09-.63,1.64-.93.18-.1.37-.2.55-.29,3.84-1.98,8.02-3.36,12.27-4.05,4.43-.72,8.88-.8,13.33-.2,1.07.14,2.12.34,3.18.58h.01c.18.04.36.09.54.13.36.09.71.18,1.06.28.18.05.35.1.53.15.34.1.67.2,1,.3.99.31,1.95.7,2.9,1.1.2.06.39.12.58.21.23.11.46.21.69.33.05.02.09.04.14.06h0c.33.2.64.4.92.67.05.05.11.1.16.16h0c.11.13.21.26.3.4.86,1.29.69,3.07-.34,4.21-.05.06-.11.11-.16.16-.21,1.04-.49,2.05-.74,3.08-.32,1.31-.61,2.63-1.04,3.91-.85,2.52-1.81,5.02-2.87,7.46-1.2,2.76-2.79,5.41-4.78,7.66-.72.82-1.51,1.62-2.34,2.35-.1.1-.21.19-.31.27-.09.08-.18.16-.28.23-.09.08-.19.16-.29.23-.13.11-.26.21-.39.31l-.57.42c-.73.52-1.5.98-2.27,1.43-.31.18-.62.35-.93.53-.05.03-.11.06-.17.09-.34.19-.68.38-1.03.57.11.27.2.54.3.8.05.14.09.27.14.41s.09.27.13.41c.07.22.13.43.2.65.46,1.62.79,3.27.95,4.94.32.5.66.99,1.01,1.47.82,1.07,1.7,2.09,2.52,2.96.04.04.09.09.13.13l.03.03c.86.84,1.76,1.65,2.7,2.41,1.14.88,2.33,1.68,3.57,2.42,1.09.61,2.21,1.15,3.35,1.65,1.23.49,2.48.92,3.68,1.26,1.34.36,2.71.61,4.08.79,1.2.13,2.39.21,3.59.22,1.25-.02,2.48-.1,3.72-.24,1.28-.18,2.54-.43,3.79-.74,1.16-.32,2.29-.69,3.41-1.12,1.16-.49,2.3-1.03,3.41-1.63,1.16-.66,2.27-1.39,3.35-2.17,1.05-.81,2.06-1.68,3.02-2.6.93-.94,1.8-1.93,2.62-2.96.75-1.01,1.46-2.05,2.11-3.13.65-1.15,1.23-2.32,1.76-3.54.49-1.21.91-2.45,1.27-3.7.32-1.27.57-2.55.76-3.85.14-1.24.23-2.49.25-3.74-.01-.77-.03-1.54-.09-2.3-.16-1.89,1.39-3.58,3.25-3.7,1.89-.12,3.58,1.36,3.7,3.25.26,4.12-.16,8.21-1.21,12.2-.91,3.32-2.27,6.48-4.05,9.41-.21.36-.44.72-.68,1.07-.12.18-.23.35-.35.53-.13.2-.27.39-.41.59-.03.05-.07.1-.11.15-.11.16-.22.31-.34.46-.07.1-.14.2-.22.29-.13.18-.27.36-.41.53-.02.02-.03.04-.04.05-.16.21-.33.42-.51.63-.18.22-.36.43-.54.65-.06.07-.11.13-.17.2-.16.18-.32.36-.48.53-.06.06-.12.12-.18.18-.19.21-.39.42-.59.62-.24.25-.49.49-.74.73-.25.25-.5.48-.76.71-.26.24-.52.47-.78.69-.22.2-.45.38-.67.57-.1.09-.2.17-.3.25-.19.15-.38.3-.57.44-.05.04-.11.08-.16.12-.25.2-.5.38-.75.56-.28.21-.56.4-.84.59.18-.03.35-.06.53-.09,2.12-.39,4.23-.81,6.34-1.25,1.2-.25,2.41-.52,3.61-.78.27-.06.53-.12.8-.18.5-.11,1.01-.23,1.52-.35.66-.15,1.31-.31,1.96-.46.66-.16,1.31-.32,1.96-.48s1.31-.33,1.96-.5c1.63-.44,3.25-.89,4.87-1.36.54-.16,1.08-.31,1.61-.47,2.15-.64,4.29-1.31,6.42-2.01,1.6-.52,3.19-1.07,4.78-1.63,1.06-.38,2.11-.76,3.16-1.15,1.58-.59,3.15-1.2,4.71-1.82.5-.21,1-.42,1.49-.63,1.03-.44,2.05-.88,3.07-1.34.36-.16.71-.32,1.07-.48.77-.35,1.54-.71,2.3-1.07.38-.18.75-.35,1.12-.54.37-.18.74-.36,1.11-.54.98-.48,1.96-.98,2.93-1.48,1.6-.83,3.18-1.68,4.75-2.56,4.33-2.54,8.51-5.29,12.53-8.29,2.85-2.25,5.57-4.62,8.17-7.14,1.86-1.93,3.65-3.92,5.32-6.02,1.51-2.03,2.9-4.11,4.19-6.29.85-1.59,1.62-3.2,2.34-4.85.57-1.48,1.07-2.98,1.51-4.51.31-1.34.6-2.77.82-4.21ZM980.56,661.35c1.36,6.36,1.37,12.88.44,19.29-1.04,7.18-3.8,14.07-7.38,20.34-6.74,11.81-17,21.22-28.07,28.91-5.95,4.13-12.28,7.74-18.82,10.93-.06,2.25-.29,4.48-.63,6.65-2.02,12.7-7.26,24.66-14.84,35.03-4.2,5.75-9.27,11.08-15.08,15.21-4.51,3.21-9.44,5.69-14.88,6.86-1.75.38-3.51.56-5.27.56-3.66,0-7.27-.82-10.62-2.45-1.36-.66-2.61-1.47-3.74-2.41-.52.64-1.06,1.23-1.62,1.76-2.79,2.65-5.96,4.69-9.43,6.34-5.65,2.69-11.7,4.35-17.81,5.65-11.99,2.55-24.27,3.63-36.5,4.23-6.12.3-12.26.43-18.39.43-6.73,0-13.47-.16-20.19-.43-12.76-.51-25.49-1.43-38.18-2.81-12.74-1.38-25.43-3.24-38.03-5.56-12.6-2.32-25.09-5.18-37.35-8.89-3.19-.96-6.36-1.99-9.49-3.11-18.23,9.47-36.97,17.91-56.06,25.5-10.79,4.29-21.68,8.32-32.66,12.09,3.73.21,7.45.46,11.16.74,12.13.89,24.22,2.22,36.26,3.92,13.16,1.86,26.28,4.04,39.2,7.22,6.45,1.59,12.91,3.38,19.12,5.72,3.4,1.27,6.8,2.62,10.05,4.26,4.97,2.53,10,5.62,13.36,10.18,2.7,3.66,4.29,8,3.74,12.58-.45,3.84-2.23,7.06-4.7,9.96-2.64,3.1-6.45,5.25-10.04,7.04-6.09,3.03-12.74,4.86-19.32,6.46-12.2,2.98-24.81,4.54-37.3,5.7-12.57,1.17-25.2,1.81-37.83,2.05-4.2.07-8.39.12-12.58.12-20.77,0-41.54-.97-62.23-2.9-13.14-1.22-26.26-2.88-39.27-5.08-12.99-2.2-25.91-4.97-38.49-8.91-6.14-1.92-12.26-4.26-17.9-7.37-6.01-3.31-12-7.86-14.15-14.68-.2-.63-.36-1.27-.48-1.92-11.04.93-22.11,1.5-33.19,1.63-1.76.02-3.52.03-5.28.03-10.76,0-21.54-.42-32.26-1.47-12.51-1.24-25.01-3.2-37.13-6.6-12.83-3.59-25.45-8.7-36.15-16.77-5.52-4.16-10.31-9.2-14.04-15.02-.32-.5-.63-1-.93-1.52-20.38,13.99-46.55,13.97-63.32,36.01-10.39,7.75-22.06,12.25-34.18,13.91-3.67.5-7.38.75-11.11.75-20.4,0-41.36-7.38-59.17-20.06C8.53,816.2-5.18,721.33,1.63,647.56c12.03-130.67,58.05-303.47,150.12-335.91,19.35-1.62,39.75-.26,53.07,30.15,15.62,51.96,5.08,103.35-13.05,142.26-6.12,2.92-17.36,6.55-20.61-7.57,1.14-43.86,24.12-94.88-7.02-136.36-41.09-4.75-64.1,55.62-86.08,104.43-33.66,101.39-68.14,220.59-22.06,342.22,9.78,14.26,14.22,41.75,30.5,41.58,19.66,24.35,47.47,22.61,70.23,17.39,23.85-5.68,41.56-27.83,62.49-39.62.12-5.06,1.08-10.13,2.49-14.95,1.79-6.11,4.52-11.91,7.75-17.37,6.35-10.7,14.36-20.26,23.23-28.96,17.88-17.57,38.71-32.09,60.22-44.83,21.46-12.7,43.95-23.89,66.96-33.5,3.39-1.41,6.81-2.73,10.21-4.11,3.87-1.56,7.71-3.2,11.62-4.66,7.08-2.63,14.27-4.93,20.78-7.39,6.07-2.33,12.2-4.43,18.4-6.38,11.96-3.77,24.05-7.19,36.15-10.48,6.22-1.7,12.49-3.32,18.81-4.6,5.69-1.16,11.36-2.37,17.03-3.6,5.36-1.17,10.76-2.04,16.17-2.93,5.92-.97,11.77-2.3,17.68-3.3,12.18-2.05,24.51-3.28,36.77-4.71,11.33-1.32,22.73-1.35,34.11-1.98,3.87-.21,7.73-.32,11.61-.12,3.51.18,7.01.52,10.52.65,2.63.02,5.26.01,7.89.13,2.52.12,5.05.48,7.56.81,2.47.32,4.95.58,7.42.85,1.18.12,2.36.3,3.53.51,4.71-3.49,9.68-6.64,14.77-9.52,1.01-.57,2.02-1.12,3.05-1.66.21-5.04.42-10.08.63-15.12.46-10.73.88-21.46,1.34-32.19.15-3.48.48-6.95.84-10.42.18-1.77.27-3.63.77-5.35,0,0-.01,0-.01-.01-.07-.04-.15-.08-.22-.11-.1-.04-.21-.07-.22-.07-.51-.14-.98-.31-1.4-.66-1.22-1.03-1.15-2.84-.05-3.91.83-.82,2.3-.89,3.13-1.02.66-.09,1.31-.12,1.98,0,.6.11,1.18.29,1.76.51,1.46.56,2.86,1.32,4.18,2.16,2.63,1.64,5.05,3.61,7.34,5.7,3.88,3.52,7.37,7.44,10.64,11.52.1.11.2.23.29.36.01,0,.01.01.02.02.34.42.66.84.99,1.26,3.72,4.75,7.08,9.8,10.18,14.98,2.8,4.69,5.33,9.54,7.52,14.55,2.8-.7,5.61-1.34,8.46-1.8,2.83-.46,5.66-.94,8.49-1.43,6.59-1.13,13.22-2.21,19.87-2.95,6.07-.67,12.17-1.13,18.26-1.45,6.56-.36,13.13-.38,19.69-.17,6.34.2,12.68.38,19,.77,3.88.25,7.73.64,11.59,1.12,5.82.76,11.54,1.93,17.34,2.83,6.15.96,12.33,1.96,18.4,3.38,1.03-1.69,2.11-3.34,3.27-4.95,7.21-11.57,17.2-20.95,26.77-30.52,4.33-5.11,8.94-9.32,13.57-14.04,2.64-2.99,5.47-5.8,8.48-8.41,1.04-.9,2.01-1.92,2.97-2.94.23-.24.46-.48.7-.73.13-.13.25-.27.38-.39l.07-.07c.15-.16.3-.31.46-.46.15-.16.3-.3.46-.45.04-.04.07-.07.11-.1.28-.26.56-.52.84-.77.16-.14.32-.28.49-.41.16-.14.33-.27.5-.39s.34-.25.52-.37c.25-.19.5-.34.76-.46.07.2.16.4.24.61.46,1.15.9,2.29,1.22,3.5.07.25.13.5.19.75.06.23.11.45.16.68,0,.02.01.05.02.07.05.25.11.51.16.76s.1.51.14.77c.28,1.57.48,3.17.66,4.75.31,2.61.55,5.23.71,7.85.67,10.55.54,21.16-.17,31.7-.75,11.03-2.02,22.05-4.19,32.89-.09.45-.18.89-.28,1.34,9.01,5.17,17.52,11.18,25.02,18.41,10.3,9.85,18.57,22.13,21.57,36.2Z" fill="#ff8b00"/><path d="M890.33,643.46c.89,1.68.27,3.81-1.41,4.72-1.64.88-3.83.27-4.71-1.4-.04-.06-.07-.12-.11-.18-.03-.05-.05-.09-.08-.14-.62-.99-1.31-1.93-2.04-2.85-.76-.9-1.56-1.75-2.4-2.57-.92-.84-1.89-1.63-2.91-2.36-.95-.65-1.93-1.25-2.95-1.79-1.07-.55-2.17-1.03-3.29-1.45-1.15-.4-2.32-.74-3.5-1.01-1.14-.23-2.29-.4-3.45-.51-1.13-.07-2.26-.09-3.39-.05-1.14.07-2.27.19-3.39.37-1.13.21-2.24.48-3.34.81-1.09.36-2.16.77-3.21,1.24-1.03.49-2.03,1.03-3.01,1.62-.98.63-1.92,1.31-2.83,2.04-.93.79-1.82,1.63-2.66,2.52-.86.93-1.71,1.88-2.51,2.86-.8.97-1.51,2.01-2.36,2.94-.5.73-1.38,1.12-2.25,1.12-.5,0-1.01-.13-1.44-.39-1.28-.78-1.62-2.34-1.02-3.63-.03.05-.05.1-.08.14h0c-.04.09-.07.19-.11.28.31-1.28.86-2.46,1.52-3.6.74-1.3,1.52-2.57,2.5-3.7,2.2-2.53,4.77-4.68,7.6-6.48,4.24-2.62,8.97-4.29,13.94-4.88,5.6-.67,11.31.15,16.54,2.25,3.73,1.5,7.2,3.72,10.16,6.45,2.31,2.13,4.25,4.58,5.94,7.23,0,0,.01.01.01.02.05.07.09.14.14.21.03.06.06.11.1.17Z" fill="#ff8b00"/><path d="M801.02,650.61c1.09,1.34,1.14,3.26-.02,4.58-1.22,1.39-3.5,1.59-4.89.32-.2-.17-.4-.35-.6-.53-.06-.05-.12-.11-.18-.16-.45-.39-.92-.76-1.39-1.12-1.43-1.09-2.93-2.08-4.49-2.99-1.45-.8-2.93-1.52-4.46-2.16-1.44-.56-2.9-1.05-4.39-1.45-1.37-.34-2.75-.59-4.14-.77-1.18-.12-2.38-.19-3.56-.19-1.06.03-2.11.09-3.15.23-.96.14-1.92.34-2.86.58-.84.24-1.66.52-2.46.84-.71.31-1.4.65-2.08,1.02-.62.37-1.22.76-1.8,1.18-.62.49-1.23,1.01-1.8,1.56-.52.53-1,1.08-1.46,1.66-.39.52-.75,1.06-1.09,1.61-.31.52-.59,1.03-.95,1.51-.38.46-.77.81-1.33,1.1-.45.23-.93.34-1.42.34-.8,0-1.6-.29-2.21-.82-1.09-.93-1.35-2.42-.96-3.74.18-.64.52-1.23.85-1.8,2.59-4.38,6.52-7.83,11.19-9.86,4.62-2.02,9.75-2.67,14.75-2.23,4.88.44,9.57,1.8,13.99,3.88,2.45,1.16,4.78,2.57,6.97,4.14.92.66,1.8,1.38,2.67,2.1.14.09.27.19.4.3.26.3.61.56.87.87Z" fill="#ff8b00"/><path d="M794.17,657.25c.79.87,1,2.08.77,3.2-.11.49-.23.97-.36,1.45-.32,1.2-.73,2.38-1.18,3.55-.54,1.43-1.08,2.87-1.86,4.19-.36.61-.75,1.2-1.2,1.76-1,1.26-2.29,2.17-3.78,2.77-1.33.53-2.71.85-4.1,1.18-1.44.34-2.87.58-4.35.58h-.18c-1.32-.02-2.64-.13-3.96-.26-1.51-.16-3.03-.3-4.52-.64-1.02-.23-2-.59-3.01-.87-.82-.18-1.64-.31-2.48-.43-1.77-.25-3.46-.67-4.98-1.64-.83-.52-1.65-1.06-2.38-1.71-.44-.38-.84-.8-1.18-1.27-.25-.35-.45-.71-.61-1.09-.32-.23-.64-.47-.89-.8-.46-.61-.78-1.25-.84-2.03-.1-1.17.48-2.19,1.4-2.86,1.16-.85,2.86-.8,4.07-.11.59.34,1.14.67,1.6,1.2.41.47.68.99.86,1.41.04.09.07.18.09.22.01.02.01.03.02.05.11.1.23.2.35.29.47.34.95.66,1.44.97.09.05.19.1.29.14.09.04.18.07.27.09,1.25.29,2.52.41,3.78.65,1.17.21,2.29.61,3.43.95.7.16,1.39.29,2.09.39,1.81.19,3.62.39,5.45.43.29-.01.57-.02.86-.05,1.23-.21,2.44-.5,3.65-.8.45-.13.88-.27,1.31-.43.13-.07.26-.13.39-.19.07-.04.13-.09.2-.13.05-.04.1-.09.15-.13.05-.06.11-.12.16-.18.26-.36.5-.73.73-1.11.28-.56.53-1.12.77-1.7.57-1.44,1.09-2.89,1.51-4.38,0-.03.01-.05.02-.08-.05-.73.13-1.48.57-2.12.58-.82,1.34-1.37,2.33-1.6,1.21-.28,2.48.23,3.3,1.14Z" fill="#ff8b00"/><path d="M882,654.85c.32,1.49.46,3.01.24,4.55-.4,2.85-1.68,5.5-3.74,7.52-3.44,3.4-8.26,4.8-13,4.92-.2,0-.4.01-.6.01-4.95,0-9.87-1.55-14.03-4.21-3.25-2.07-6.12-5.08-7.64-8.66-.4-.95-.79-2.01-.62-3.05.3-1.93,1.71-3.46,3.79-3.13,1.39.22,2.45,1.48,2.93,2.71.18.47.38.93.6,1.39.23.43.49.84.76,1.24.32.43.66.85,1.02,1.25.48.49.97.95,1.49,1.39.6.47,1.22.91,1.86,1.31.71.41,1.43.79,2.18,1.14.82.35,1.65.66,2.5.91.78.21,1.56.39,2.36.53.86.13,1.73.2,2.6.24.71,0,1.42-.03,2.12-.09.64-.08,1.27-.18,1.89-.32.54-.14,1.07-.29,1.59-.48.41-.16.81-.34,1.2-.54.39-.21.77-.45,1.14-.7.26-.2.52-.41.77-.63.21-.21.42-.43.62-.66.17-.21.33-.44.48-.67.13-.23.25-.46.37-.69.1-.25.19-.5.27-.75.06-.23.11-.46.15-.69.03-.25.05-.51.07-.76,0-.26-.02-.52-.04-.78-.04-.27-.08-.54-.14-.81,0-.01,0-.02-.01-.03-.05-.23-.12-.45-.19-.68-.54-1.63.36-3.49,1.9-4.18,1.72-.78,3.83.01,4.6,1.75.16.34.27.72.36,1.09.1.2.13.37.15.56Z" fill="#ff8b00"/></g><g id="cat-face"><path d="M485.55,856.87c.48-1.35.99-2.69,1.4-4.07.44-1.47.84-2.92,1.19-4.41.65-2.73,1.17-5.5,1.52-8.28.1-.79.2-1.58.29-2.37,22.44-5.77,44.64-12.58,66.41-20.5,4.01-1.46,7.99-2.95,11.97-4.47,21.88-8.41,43.33-17.97,64.11-28.82,1.72-.9,3.44-1.81,5.16-2.73.42-.23.83-.45,1.25-.68,5.65,2.42,11.46,4.43,17.33,6.23,3.06.9,6.15,1.75,9.23,2.55-1.49.89-2.98,1.76-4.48,2.63-4.76,2.76-9.57,5.42-13.85,7.73-20.4,10.97-41.48,20.61-63,29.16-24.23,9.64-48.98,17.98-74.12,24.93-8.61,2.38-17.26,4.62-25.94,6.7.57-1.18,1.1-2.38,1.53-3.6Z"/><path d="M802.38,769.42c-13.56-.58-27.12-2.04-40.48-4.39-13.29-2.34-26.44-5.59-39.23-9.9-12.61-4.24-24.75-9.63-36.28-16.27-6.14-3.54-11.99-7.62-17.47-12.13-5.29-4.35-10.25-9.22-14.46-14.63-4.29-5.52-7.95-11.51-10.46-18.06-2.63-6.88-3.84-14.02-3.78-21.37.06-7.2,1.97-14.33,4.75-20.92,2.65-6.28,6.67-11.85,11.14-16.94,8.53-9.7,19.11-17.32,30.3-23.64,5.34-3.02,10.95-5.56,16.56-8,5.33-2.31,10.83-4.01,16.35-5.76,6.15-1.94,12.33-3.8,18.59-5.39,3.22-.82,6.43-1.58,9.71-2.12,2.83-.46,5.66-.94,8.49-1.42,6.59-1.13,13.22-2.21,19.87-2.95,6.07-.67,12.17-1.13,18.26-1.45,6.56-.35,13.13-.37,19.69-.17,6.34.2,12.68.37,19.01.77,3.88.25,7.73.64,11.59,1.12,5.82.76,11.55,1.93,17.34,2.83,6.32.98,12.68,2.01,18.91,3.49,3.43.81,6.83,1.72,10.19,2.75,1.83-.76,3.88-1.02,5.94-.65,1.1.2,2.21.61,3.29.95.47.15.91.33,1.34.53,1.06.33,2.12.64,3.15,1,2.58.88,5.15,1.8,7.69,2.79,6.29,2.44,12.53,5.06,18.55,8.11,12.16,6.15,23.73,13.53,33.57,23.02,10.25,9.87,18.52,22.16,21.52,36.23,1.36,6.35,1.37,12.88.44,19.28-1.04,7.18-3.8,14.07-7.38,20.34-6.74,11.81-17,21.22-28.07,28.92-10.74,7.46-22.74,13.23-34.96,17.83-23.86,8.99-49.05,13.62-74.4,15.67-7.78.63-15.59.9-23.39.9-5.28-.02-10.58-.14-15.88-.37ZM817.78,749.1c12.8-.11,25.58-.87,38.28-2.5,10.68-1.43,21.28-3.49,31.72-6.17,8.69-2.33,17.22-5.1,25.56-8.44,6.12-2.55,12.07-5.41,17.85-8.64,4.33-2.54,8.51-5.29,12.53-8.29,2.85-2.25,5.57-4.62,8.17-7.14,1.86-1.93,3.65-3.92,5.32-6.02,1.51-2.03,2.9-4.11,4.19-6.29.85-1.59,1.63-3.2,2.34-4.85.57-1.49,1.07-2.99,1.51-4.51.34-1.42.63-2.85.85-4.29.15-1.47.24-2.93.27-4.41-.04-1.41-.14-2.8-.3-4.2-.22-1.38-.49-2.74-.82-4.09-.45-1.56-.97-3.1-1.55-4.62-.81-1.85-1.68-3.65-2.64-5.42-1.22-2.04-2.53-4.01-3.93-5.93-1.81-2.28-3.71-4.46-5.73-6.56-2.9-2.84-5.95-5.49-9.15-7.99-4.4-3.28-9-6.26-13.74-9.01-6.15-3.4-12.47-6.46-18.97-9.14-3.02-1.19-6.06-2.32-9.13-3.39-1.88-.66-3.76-1.32-5.67-1.93-.37-.07-.74-.17-1.11-.29-.54-.17-1.08-.34-1.61-.52h-.02c-.54-.19-1.07-.39-1.61-.61.01-.01.01-.03.02-.04-1.6-.76-2.98-1.88-4.03-3.38-2.91-.7-5.82-1.39-8.73-2.07-7.2-1.68-14.39-3.44-21.71-4.49-6.32-.74-12.69-1.17-19.03-1.69-7.06-.59-14.15-1.14-21.25-1.18-7.99.06-16,.31-23.98.72-7.94.41-15.88,1.23-23.49,2.19-.09.01-.19.03-.28.04h-.01c-5.13.7-10.28,1.52-15.31,2.75-5.1,1.25-10.23,2.43-15.32,3.74-5.3,1.43-10.58,3-15.69,5.02-8.11,3.34-16.13,6.84-23.78,11.13-4.66,2.72-9.16,5.63-13.48,8.86-3.11,2.43-6.04,5.03-8.88,7.77-1.65,1.71-3.19,3.53-4.66,5.39-1.55,2.09-2.96,4.28-4.29,6.52-1.04,1.88-1.99,3.8-2.83,5.76-.6,1.56-1.12,3.13-1.58,4.73-.34,1.43-.62,2.86-.85,4.3-.14,1.44-.24,2.88-.27,4.32.04,1.28.13,2.56.26,3.83.24,1.61.56,3.19.94,4.78.42,1.43.89,2.84,1.41,4.24.79,1.84,1.65,3.64,2.6,5.4,1.22,2.04,2.52,4,3.93,5.92,1.94,2.46,4.01,4.8,6.19,7.05,2.86,2.75,5.84,5.32,8.96,7.76,4.31,3.2,8.79,6.12,13.43,8.81,6.26,3.46,12.68,6.53,19.29,9.27,8.81,3.48,17.79,6.4,26.95,8.85,11.4,2.9,22.95,5.03,34.61,6.57,12.69,1.58,25.45,2.36,38.25,2.38Z"/><path d="M319.33,876.21c-12.51-1.24-25.01-3.2-37.13-6.6-12.82-3.59-25.45-8.69-36.15-16.76-5.52-4.17-10.31-9.2-14.04-15.02-2.01-3.13-3.63-6.55-4.84-10.07-1.27-3.67-1.92-7.45-2.27-11.31-.6-6.64.47-13.44,2.33-19.79,1.79-6.11,4.52-11.91,7.76-17.37,6.35-10.7,14.36-20.26,23.22-28.97,17.88-17.56,38.71-32.09,60.22-44.83,21.46-12.7,43.95-23.89,66.95-33.5,3.39-1.41,6.81-2.73,10.21-4.11,3.87-1.56,7.71-3.21,11.62-4.66,7.08-2.63,14.27-4.93,20.78-7.39,6.08-2.33,12.2-4.43,18.4-6.39,11.96-3.77,24.05-7.19,36.15-10.48,6.22-1.7,12.49-3.32,18.81-4.6,5.69-1.15,11.36-2.36,17.03-3.6,5.36-1.17,10.76-2.05,16.17-2.93,5.92-.97,11.77-2.3,17.68-3.3,12.18-2.06,24.51-3.28,36.77-4.71,11.33-1.32,22.73-1.35,34.1-1.98,3.87-.21,7.73-.32,11.61-.13,3.51.18,7.01.52,10.53.65,2.63.02,5.26.01,7.88.13,2.53.12,5.05.49,7.56.81,2.47.32,4.95.58,7.42.85,3.56.38,7.02,1.22,10.52,1.9,3.28.64,6.56,1.22,9.85,1.82,3.21.59,6.3,1.56,9.36,2.69-.01.01-.03.02-.04.02-.74.43-1.48.87-2.21,1.31-.15.09-.29.18-.44.27-.37.23-.75.46-1.12.69-.54.33-1.08.67-1.61,1.01-.27.18-.55.35-.82.53-.36.23-.73.47-1.09.71-.08.05-.16.11-.24.16-.52.34-1.03.69-1.54,1.04-1.49,1.01-2.96,2.06-4.42,3.14-2.1,1.64-4.11,3.36-6.08,5.14-3.33-.41-6.67-.61-10.01-.89-2.98-.25-5.92-.66-8.91-.8-2.91-.15-5.82-.14-8.72-.39-2.96-.25-5.9-.51-8.87-.61-2.46.01-4.92.18-7.37.28-2.7.11-5.39.07-8.1.02-.89-.02-1.78-.03-2.5-.04-3.86-.04-7.73-.01-11.57.23-3.68.23-7.35.58-11.02.87-7,.55-14,.94-20.99,1.67-5.99.67-11.96,1.49-17.93,2.36-5.61.82-11.22,1.6-16.83,2.44-5.55.84-11,2.09-16.49,3.27-5.47,1.18-10.98,2.2-16.43,3.48-5.49,1.35-10.93,2.9-16.41,4.27-6.09,1.52-12.17,3.06-18.22,4.71-5.97,1.64-11.9,3.45-17.82,5.31-5.92,1.86-11.78,3.92-17.7,5.79-5.87,1.85-11.74,3.65-17.49,5.81-6.03,2.35-12,4.82-18.06,7.12-4.83,1.89-9.58,3.98-14.35,6.03-5.54,2.38-11.05,4.82-16.53,7.33-10.26,4.72-20.39,9.74-30.33,15.1h-.01s-.02.02-.04.02l-.25.14c-15.2,8.26-30,17.27-44.07,27.34-9.1,6.61-17.86,13.67-26.06,21.37-4.98,4.78-9.71,9.82-14.09,15.17-2.69,3.41-5.21,6.94-7.51,10.62-1.58,2.7-3.04,5.46-4.33,8.3-.86,2.06-1.61,4.14-2.26,6.27-.42,1.57-.76,3.15-1.05,4.75-.19,1.51-.32,3.02-.38,4.54.02,1.12.07,2.24.15,3.36.15,1.08.33,2.15.57,3.23.27.98.57,1.94.91,2.9.45,1.07.93,2.13,1.45,3.16.67,1.16,1.39,2.29,2.15,3.39.87,1.12,1.77,2.19,2.72,3.24,1.32,1.33,2.7,2.59,4.14,3.79,1.92,1.48,3.91,2.86,5.97,4.15,2.95,1.72,5.97,3.26,9.08,4.67,4.7,1.98,9.51,3.64,14.4,5.06,7.37,2.03,14.85,3.55,22.4,4.7,11.88,1.68,23.86,2.51,35.86,2.76,14.56.2,29.1-.42,43.61-1.63,1.6,2.02,3.32,3.95,5.05,5.85,1.89,2.07,3.98,3.91,6.16,5.67,2.15,1.72,4.53,3.06,6.94,4.38.07.04.15.09.22.12,1.53.84,3.08,1.66,4.65,2.43-18.29,2.29-36.69,3.71-55.11,3.94-1.76.02-3.51.03-5.28.03-10.74.03-21.52-.39-32.23-1.45Z"/><path d="M732.83,736.64c-3.42,3.83-7.02,7.49-10.74,11.01-6.48,6.12-13.3,11.87-20.37,17.31-3.84-.07-7.69-.1-11.52-.07-2.01.08-4.02.15-5.43.14-3.71-.06-7.45.2-11.16.39-.66.04-1.33.07-2,.11-.27.04-.54.07-.81.08-.71.04-1.42.09-2.13.13h-.39c-1.56.1-3.12.22-4.68.35,6.2-3.9,12.3-7.97,18.26-12.23,8.91-6.49,17.53-13.36,25.55-20.91,1.48-1.41,2.94-2.85,4.36-4.3h.01c2.05.94,4.11,1.84,6.2,2.7,4.89,1.93,9.85,3.69,14.85,5.29Z"/><path d="M484.03,860.51c.55-1.19,1.09-2.41,1.53-3.65.48-1.35.99-2.69,1.4-4.07.44-1.47.84-2.92,1.19-4.41.65-2.73,1.17-5.5,1.52-8.28.18-1.42.35-2.85.54-4.27.1-.78.18-1.56.21-2.35.02-.4-.03-.8-.02-1.2v.03c.02-.7-.05-1.4-.45-2.01-.04-.07-.09-.13-.14-.19.26-.67.5-1.35.74-2.04.52-1.72.96-3.45,1.33-5.2.27-1.7.48-3.4.61-5.12.04-1.62.02-3.24-.07-4.86-.17-1.54-.4-3.07-.68-4.59-.36-1.53-.79-3.03-1.29-4.52-.55-1.44-1.16-2.84-1.82-4.23-.87-1.62-1.81-3.19-2.82-4.73-1.08-1.48-2.21-2.9-3.42-4.28-1.43-1.5-2.92-2.92-4.48-4.28-1.77-1.41-3.59-2.73-5.48-3.98-2.03-1.23-4.09-2.36-6.21-3.42l-.51-.23c-2.44-1.07-4.9-2.03-7.42-2.88-3.03-.91-6.08-1.68-9.18-2.28-3.25-.53-6.5-.89-9.79-1.1-3.77-.15-7.53-.1-11.31.15-3.52.32-7.01.82-10.48,1.5-3.92.86-7.77,1.91-11.57,3.19-3.66,1.33-7.23,2.87-10.71,4.58-3.04,1.6-5.98,3.36-8.83,5.29-2.61,1.85-5.12,3.83-7.51,5.95-2.13,1.98-4.15,4.08-6.05,6.28-1.57,1.93-3.04,3.94-4.41,6.02-1.12,1.84-2.17,3.71-3.12,5.64-.81,1.83-1.55,3.69-2.19,5.59-.51,1.71-.95,3.43-1.29,5.18-.27,1.65-.47,3.31-.58,4.98-.03.65-.04,1.3-.04,1.95,0,.13.01.26.01.4.01.36.03.72.03,1.08.43,4.86-2.81,9.63-7.62,10.97-5.91,1.64-12.34-2.42-13.13-8.58-.13-1.05-.15-2.13-.17-3.18-.01-.58.03-1.15.12-1.7.04-2.48.11-4.95.5-7.4.85-5.29,2.3-10.46,4.38-15.4,4.02-9.57,10.13-18.35,17.68-25.48,17.73-16.74,41.42-26.23,65.66-27.67,26.6-1.58,55.89,7.15,72.54,29.07,4.24,5.58,7.38,11.73,9.55,18.39,2.26,6.96,2.74,14.35,2.27,21.61-.42,6.41-2.16,12.96-4.65,18.86-1.3,3.06-2.77,6.04-4.49,8.89-2.2,3.63-4.73,7.04-8.12,9.64-1.15.88-2.31,1.74-3.47,2.6-2.87.09-5.73.2-8.59.34.1-.19.2-.39.3-.6Z"/><path d="M417.49,870.18c.1.05.2.11.3.17-.1-.06-.2-.11-.3-.17Z"/><path d="M500.34,913.98c-13.14-1.22-26.26-2.88-39.27-5.08-12.99-2.2-25.91-4.97-38.49-8.91-6.14-1.92-12.26-4.26-17.9-7.37-6.01-3.31-12-7.86-14.15-14.68-.6-1.9-.83-3.89-.73-5.88.12-2.31.81-4.37,1.75-6.46.67-1.49,1.65-2.88,2.78-4.14,1.8,1.92,3.78,3.67,5.84,5.32,2.14,1.72,4.51,3.05,6.91,4.36h0s.03.02.05.03.04.02.05.03h.01c2.11,1.17,4.24,2.28,6.43,3.29,1.12.52,2.25,1.03,3.39,1.49.63.25,1.26.5,1.9.73.36.13.75.24,1.14.27,5.07,2.08,10.26,3.76,15.52,5.27,12.93,3.51,26.11,5.91,39.35,7.87,24.71,3.53,49.67,5.34,74.62,5.88,1.65.04,3.29.07,3.6.07,21.83.31,43.68-.36,65.38-2.73,9.13-1.07,18.22-2.44,27.17-4.56,3.87-.97,7.7-2.07,11.44-3.45,1.49-.6,2.95-1.25,4.38-1.97,0-.01.01-.01.01-.01-.35-.24-.71-.49-1.07-.72-2.06-1.15-4.16-2.2-6.32-3.16-4.85-1.94-9.78-3.56-14.79-5.02-13.15-3.58-26.57-6.08-40.03-8.08-24.67-3.48-49.63-5.27-74.54-5.79-1.1-.03-2.2-.04-2.54-.05h-.72c-12.59-.2-25.19-.05-37.77.56.1-.21.19-.41.29-.62.55-1.19,1.09-2.41,1.53-3.65.48-1.35.99-2.69,1.4-4.07.44-1.47.84-2.92,1.19-4.41.65-2.73,1.17-5.49,1.52-8.27,24.31-.86,48.69-.24,72.94,1.55,12.13.9,24.22,2.22,36.26,3.92,13.16,1.86,26.28,4.04,39.19,7.22,6.44,1.59,12.91,3.38,19.13,5.72,3.4,1.28,6.8,2.62,10.05,4.26,4.97,2.53,10,5.62,13.36,10.18,2.69,3.66,4.28,8,3.74,12.58-.45,3.84-2.23,7.06-4.69,9.96-2.64,3.1-6.45,5.25-10.04,7.04-6.09,3.03-12.74,4.86-19.32,6.46-12.2,2.98-24.81,4.54-37.3,5.7-12.58,1.17-25.2,1.81-37.83,2.05-4.19.08-8.39.12-12.58.12-20.78.05-41.55-.92-62.24-2.85Z"/><path d="M763.21,823.71c-12.76-.51-25.49-1.43-38.18-2.81-12.74-1.38-25.43-3.24-38.03-5.56-12.6-2.31-25.09-5.17-37.35-8.89-5.91-1.79-11.74-3.78-17.43-6.17-5.98-2.5-12.12-5.38-17.23-9.42-3.37-2.67-6.39-5.69-8.36-9.57-1.75-3.45-2.37-7.35-1.66-11.16.6-3.22,2.18-6.19,4.36-8.62,4.67-5.21,11.64-8.01,18.15-10.12,6.47-2.09,13.22-3.34,19.93-4.34,6.45-.97,12.95-1.61,19.46-2.06.34-.05.68-.1,1.03-.13.7-.06,1.42-.1,2.12-.14.34-.02.67-.02,1-.01,4.14-.26,8.29-.45,12.43-.48,1.45-.01,2.89-.01,4.34.01,5.22-.05,10.44,0,15.66.11,13.36.26,26.72,1.02,40.02,2.33,22.9,2.24,45.84,5.58,68.17,11.17,11.07,2.77,22.18,5.98,32.66,10.54,5.9,2.57,11.93,5.41,16.96,9.5,2.75,2.24,5.35,4.74,7.11,7.85,1.07,1.89,1.86,3.85,2.31,5.98.48,2.25.34,4.44-.03,6.7-.54,3.35-2.7,6.76-5.13,9.07-2.78,2.65-5.96,4.69-9.43,6.34-5.65,2.69-11.71,4.35-17.81,5.65-11.99,2.55-24.27,3.63-36.5,4.23-6.12.3-12.26.43-18.4.43-6.72,0-13.45-.16-20.17-.43ZM816.22,801.81c6.66-.7,13.28-1.66,19.82-3.12,2.84-.69,5.64-1.48,8.39-2.46,1.25-.5,2.48-1.04,3.69-1.63.13-.08.27-.15.4-.23-.91-.71-1.85-1.37-2.81-2-2.49-1.51-5.08-2.83-7.72-4.06-5.99-2.63-12.17-4.8-18.43-6.71-15.16-4.48-30.69-7.68-46.29-10.21-22.36-3.51-44.92-5.57-66.21-6.3-1.22-.03-2.44-.07-2.87-.08-4.67-.1-9.34-.15-14.01-.11-2.01.08-4.03.16-5.43.14-3.71-.06-7.45.2-11.15.39-.67.03-1.34.07-2,.11-.27.04-.54.06-.82.08-.71.04-1.42.09-2.13.13h0c-.13,0-.25.01-.38.01-3.13.21-6.26.47-9.39.77-6.48.71-12.92,1.65-19.28,3.07-2.73.68-5.43,1.43-8.09,2.34-1.35.53-2.68,1.09-3.98,1.72-.16.09-.31.18-.47.27.02.02.04.04.07.06.96.74,1.94,1.43,2.95,2.09,2.41,1.44,4.9,2.71,7.44,3.91,6.07,2.68,12.33,4.86,18.67,6.81,15.13,4.46,30.6,7.65,46.16,10.15,22.42,3.51,45.06,5.61,67.74,6.3,15.38.35,30.81.1,46.13-1.44Z"/><path d="M876.26,736.54c1.28-1.21,2.49-2.49,3.75-3.7-1.13,1.94-2.45,3.78-3.93,5.49-1.82,2.1-3.89,3.99-6.14,5.61.66-1.02,1.36-2.01,2.1-2.97,1.28-1.63,2.69-3.06,4.22-4.43Z"/><path d="M911.35,746.34c.02-1.05,0-2.1-.08-3.15-.08-.67-.18-1.34-.31-2-.12-.44-.24-.88-.38-1.32-.12-.29-.25-.57-.37-.86-.1-.17-.2-.33-.3-.5-.08-.1-.15-.2-.23-.29-.1-.1-.19-.19-.28-.28-.02,0-.03-.02-.04-.03-.04-.02-.08-.04-.12-.06-.03-.01-.06-.02-.09-.04-.08-.01-.15-.03-.22-.05-.16-.01-.31-.03-.47-.05-.23.01-.46.02-.68.03-.33.05-.65.1-.97.16-.25.07-.51.14-.76.21-.09.03-.17.06-.26.09-.08.03-.17.06-.25.08-1.65.55-3.36.6-4.98.25-.56.36-1.12.73-1.67,1.1-.31.23-.63.46-.93.7-.04.04-.08.08-.12.13-1.6,1.96-3.29,3.85-4.95,5.77-.42.53-.82,1.08-1.19,1.65-.51.88-.95,1.78-1.43,2.67-.74,1.36-1.62,2.65-2.45,3.96-1.7,2.71-3.24,5.5-4.62,8.38-1.09,2.46-2.05,4.96-2.89,7.51-.6,2.08-1.1,4.17-1.49,6.29-.21,1.44-.36,2.88-.45,4.33-.02,1.06,0,2.13.08,3.19.09.72.2,1.43.34,2.13.12.44.24.86.37,1.29.12.28.24.56.36.84.11.18.22.36.33.54.08.1.15.19.23.29.07.07.14.14.22.21.02.01.03.02.05.04.04.02.07.04.1.05.05.02.09.04.14.06.07.02.14.03.21.05.13.02.26.03.4.04.24,0,.48-.01.71-.03.32-.05.63-.1.95-.15.5-.13.98-.28,1.47-.44.67-.27,1.34-.56,1.99-.88,1.01-.55,1.98-1.14,2.94-1.78,1.33-.97,2.59-2,3.82-3.08,1.61-1.51,3.12-3.1,4.56-4.76,1.73-2.12,3.34-4.32,4.84-6.61,1.52-2.48,2.9-5.01,4.15-7.62,1.06-2.42,2-4.87,2.81-7.38.58-2.02,1.07-4.05,1.45-6.12.21-1.5.37-3.02.46-4.56ZM931.57,738.01c.96,4.86.77,10.08,0,14.94-2.02,12.7-7.26,24.66-14.83,35.03-4.2,5.75-9.27,11.08-15.08,15.21-4.51,3.21-9.44,5.69-14.88,6.86-1.75.37-3.51.56-5.27.56-3.66,0-7.27-.81-10.62-2.45-5.73-2.79-9.42-8.22-11.53-14.05-2.09-5.75-2.15-12.26-1.43-18.26.75-6.22,2.49-12.41,4.88-18.19,1.53-3.69,3.3-7.28,5.31-10.73.49-.83.99-1.66,1.51-2.48,6.1-1.13,12.15-2.47,18.16-4.01,8.69-2.33,17.21-5.1,25.56-8.44,4.45-1.85,8.82-3.87,13.1-6.09,1.29,1.7,2.37,3.52,3.2,5.52.88,2.14,1.47,4.31,1.92,6.58Z"/><path d="M838.57,654.47c-1.28-.78-1.62-2.34-1.02-3.63-.03.05-.05.1-.08.15h0c-.03.09-.07.19-.1.28.31-1.28.86-2.46,1.52-3.6.74-1.3,1.52-2.57,2.51-3.7,2.2-2.53,4.76-4.68,7.6-6.47,4.24-2.62,8.97-4.29,13.94-4.88,5.6-.67,11.32.15,16.54,2.25,3.74,1.5,7.2,3.72,10.16,6.45,2.31,2.13,4.25,4.58,5.94,7.23,0,.01.01.01.01.02h0c.05.07.09.14.14.21.04.06.07.11.1.17.89,1.68.27,3.81-1.41,4.72-1.65.88-3.83.28-4.71-1.4-.04-.06-.07-.12-.11-.18-.03-.05-.05-.09-.08-.14-.62-.99-1.31-1.93-2.04-2.85-.76-.9-1.56-1.75-2.4-2.56-.92-.85-1.89-1.63-2.91-2.36-.95-.65-1.93-1.25-2.94-1.79-1.07-.55-2.17-1.03-3.29-1.45-1.15-.4-2.32-.74-3.51-1.01-1.14-.23-2.29-.4-3.45-.51-1.13-.08-2.26-.09-3.39-.06-1.14.07-2.26.19-3.39.37-1.13.21-2.24.48-3.34.81-1.1.36-2.16.77-3.22,1.24-1.03.49-2.03,1.03-3.01,1.63-.98.63-1.92,1.31-2.83,2.04-.93.79-1.82,1.63-2.66,2.51-.86.93-1.71,1.88-2.51,2.86s-1.51,2.01-2.35,2.94c-.5.74-1.37,1.12-2.25,1.12-.53,0-1.03-.14-1.46-.41Z"/><path d="M783.41,681.4c-1.32-.01-2.64-.13-3.96-.26-1.51-.16-3.03-.29-4.52-.64-1.02-.24-2.01-.59-3.01-.87-.82-.18-1.64-.31-2.47-.43-1.77-.25-3.46-.67-4.98-1.65-.82-.52-1.65-1.06-2.38-1.71-.44-.38-.84-.81-1.18-1.28-.25-.35-.44-.71-.61-1.09-.33-.23-.64-.47-.89-.8-.46-.61-.78-1.26-.85-2.03-.1-1.17.48-2.19,1.4-2.86,1.16-.85,2.86-.8,4.07-.11.59.34,1.14.67,1.6,1.2.41.47.68.99.86,1.41.04.09.07.17.09.22.01.02.01.03.02.05.11.1.23.19.35.29.47.34.95.66,1.44.97.09.05.19.1.29.15.09.03.18.06.27.09,1.25.29,2.52.41,3.78.65,1.17.22,2.29.62,3.43.96.69.16,1.39.29,2.09.39,1.81.19,3.62.39,5.44.43.29-.01.57-.02.86-.05,1.23-.21,2.44-.5,3.65-.8.44-.13.88-.27,1.31-.43.13-.07.26-.13.39-.19.07-.04.14-.09.2-.13.05-.04.1-.08.15-.13.05-.06.11-.12.16-.18.26-.36.5-.73.73-1.11.28-.56.53-1.12.77-1.69.57-1.44,1.09-2.89,1.51-4.38.01-.03.01-.05.02-.08-.05-.73.13-1.48.58-2.12.58-.82,1.34-1.37,2.33-1.6,1.22-.28,2.5.23,3.31,1.14.78.87,1,2.08.77,3.19-.11.49-.23.97-.36,1.45-.32,1.21-.73,2.39-1.18,3.55-.54,1.43-1.08,2.87-1.86,4.19-.36.61-.75,1.2-1.2,1.76-1,1.26-2.29,2.17-3.78,2.77-1.33.53-2.71.85-4.1,1.17-1.44.34-2.87.58-4.35.58-.07.01-.13.01-.19.01Z"/><path d="M755.73,662.46c-1.09-.93-1.35-2.42-.97-3.74.18-.64.52-1.22.85-1.8,2.59-4.38,6.52-7.83,11.19-9.86,4.62-2.02,9.75-2.67,14.75-2.23,4.88.44,9.57,1.8,13.99,3.88,2.45,1.15,4.78,2.57,6.97,4.14.92.66,1.8,1.38,2.67,2.1.14.09.27.19.4.3.31.26.65.53.91.84,1.09,1.34,1.14,3.26-.02,4.58-1.23,1.39-3.51,1.59-4.89.32-.21-.17-.4-.35-.6-.53-.06-.05-.12-.11-.17-.16-.46-.39-.92-.76-1.39-1.13-1.44-1.09-2.93-2.08-4.49-2.99-1.45-.8-2.94-1.52-4.46-2.16-1.44-.56-2.9-1.05-4.39-1.45-1.37-.34-2.75-.59-4.14-.77-1.18-.13-2.37-.19-3.56-.19-1.06.03-2.1.1-3.15.23-.96.14-1.92.34-2.86.58-.83.24-1.66.52-2.46.84-.71.31-1.41.65-2.08,1.02-.62.37-1.22.76-1.8,1.18-.63.49-1.23,1.01-1.8,1.56-.51.53-1,1.09-1.46,1.66-.39.52-.74,1.06-1.09,1.62-.31.51-.59,1.03-.94,1.51-.38.46-.77.81-1.33,1.1-.45.23-.93.34-1.42.34-.85.03-1.65-.27-2.26-.79Z"/><path d="M856.36,673.11c-3.25-2.07-6.12-5.08-7.64-8.66-.4-.95-.78-2.01-.62-3.05.3-1.93,1.71-3.46,3.79-3.13,1.39.22,2.45,1.48,2.93,2.71.19.47.38.94.6,1.39.23.43.49.84.76,1.24.32.43.67.85,1.02,1.26.47.49.97.95,1.49,1.39.6.47,1.22.91,1.86,1.31.71.41,1.43.79,2.18,1.14.82.35,1.65.66,2.51.91.77.22,1.56.39,2.35.53.86.13,1.73.2,2.6.24.71,0,1.42-.03,2.12-.08.64-.08,1.26-.18,1.89-.32.54-.14,1.07-.29,1.59-.48.41-.16.81-.34,1.21-.54.39-.22.77-.45,1.14-.7.26-.2.52-.41.77-.63.22-.21.42-.43.62-.66.17-.22.33-.44.48-.67.13-.23.25-.46.37-.69.1-.25.19-.5.27-.75.06-.23.11-.46.15-.69.03-.25.05-.51.07-.76,0-.26-.01-.52-.03-.78-.04-.27-.08-.54-.14-.81,0-.01-.01-.02-.01-.03-.06-.23-.12-.45-.19-.67-.54-1.64.35-3.49,1.9-4.18,1.72-.77,3.83.02,4.6,1.75.16.34.26.72.36,1.09.05.18.08.36.1.54.32,1.49.46,3.01.24,4.55-.41,2.85-1.69,5.49-3.74,7.52-3.44,3.4-8.26,4.79-13,4.92-.2.01-.4.01-.6.01-4.92-.01-9.84-1.56-14-4.22Z"/><path d="M840.77,690.44c.86,1.29.69,3.07-.33,4.22-1.01,1.13-2.76,1.5-4.13.79-.01-.01-.02-.01-.03-.01-.27-.12-.54-.25-.81-.37-.07-.03-.13-.06-.19-.09-.1-.05-.2-.09-.3-.13-1.16-.47-2.34-.87-3.55-1.2-1.32-.33-2.65-.6-4-.79-1.54-.19-3.09-.28-4.64-.3-1.55.01-3.09.12-4.63.29-1.51.21-3,.5-4.49.86-1.55.42-3.08.92-4.58,1.5-1.25.52-2.47,1.1-3.66,1.75-1.05.6-2.07,1.25-3.05,1.96-.79.6-1.53,1.25-2.26,1.9-.18-.35-.36-.7-.54-1.05-.4-.77-.8-1.55-1.2-2.33-.49-.94-1.03-1.88-1.41-2.86-.03-.07-.05-.13-.07-.2,1.29-1.07,2.67-2.02,4.08-2.86,4.42-2.64,9.39-4.44,14.46-5.26,4.44-.72,8.88-.8,13.33-.2,2.14.29,4.25.79,6.31,1.45.99.31,1.95.69,2.9,1.1.2.06.39.12.58.21.23.11.47.21.69.33.05.02.09.04.14.06-.01,0-.01.01-.01.01.54.3,1.02.66,1.39,1.22Z"/><path d="M840.47,690.05c.21,1.31.18,2.64-.04,3.95-.22,1.32-.58,2.61-.9,3.9-.32,1.31-.61,2.63-1.04,3.91-.85,2.52-1.81,5.02-2.87,7.47-1.19,2.75-2.79,5.41-4.77,7.66-1.24,1.4-2.66,2.73-4.18,3.82-1.41,1-2.92,1.8-4.43,2.63-1.18.7-2.35,1.47-3.77,1.47-.06,0-.13,0-.19-.01-.78-.04-1.55-.37-2.14-.89s-.94-1.19-1.13-1.95c-.22-.88.02-1.72.41-2.5,0-.01.01-.03.01-.05.03-.08.05-.16.08-.23.04-.13.07-.27.11-.4,0-.02.01-.04.01-.07,0-.04.02-.08.03-.11.02-.06.03-.13.05-.19,0-.03.01-.06.01-.09.02-.1.05-.2.08-.29h0c.55-1.69,2.19-2.81,4-2.47.45.09.87.27,1.25.52.57-.34,1.13-.71,1.68-1.09.71-.57,1.39-1.16,2.06-1.78.48-.5.94-1,1.4-1.52.76-1.03,1.43-2.11,2.08-3.2.55-1.01,1.01-2.05,1.44-3.09.97-2.4,1.94-4.81,2.63-7.31.47-1.84.97-3.7,1.29-5.57.03-.29.05-.57.06-.86-.01-.14-.02-.27-.03-.4-.05-.23-.09-.46-.15-.69-.13-.42-.27-.83-.42-1.24-.38-.92-.8-1.82-1.14-2.76,1.06.24,2.1.54,3.13.87.99.31,1.95.69,2.9,1.1.2.06.39.12.58.21.23.11.47.21.69.33.05.02.09.04.14.06-.01,0-.01.01-.01.01.41.25.77.5,1.09.85Z"/><path d="M828.5,719.29c-.59.53-1.2,1.02-1.84,1.47-1.4.99-2.9,1.79-4.4,2.62.21.53.4,1.08.57,1.63-.91-.24-1.82-.49-2.71-.79-1.5-.51-2.71-1.61-3.94-2.57-1.93-1.5-3.87-3.01-5.8-4.52-.99-.76-1.99-1.53-2.88-2.41-1.24-1.22-1.91-3-2.68-4.54-1.73-3.48-3.46-6.96-5.24-10.41-.4-.77-.8-1.55-1.2-2.33-.49-.94-1.03-1.88-1.41-2.86-.03-.07-.05-.13-.07-.2,1.29-1.07,2.67-2.02,4.08-2.86.72-.43,1.45-.84,2.2-1.21,0,.05.01.09.01.14.04.48.12.95.2,1.42.03.1.05.19.07.29.01.03.03.05.04.08,1.23,2.44,2.53,4.83,3.75,7.27.79,1.59,1.59,3.19,2.38,4.78.43.87.87,1.74,1.3,2.6.49.98.95,1.98,1.49,2.92.01.01.01.02.03.03.11.12.22.23.33.33,1.48,1.25,3.03,2.41,4.56,3.59,1.64,1.27,3.27,2.57,4.92,3.82.02.01.04.03.06.04.16.07.32.13.49.19,1.87.57,3.79,1.02,5.69,1.48Z"/><path d="M847.99,750.84c-5.36-.1-10.74-1.38-15.54-3.78-4.42-2.21-8.39-5.3-11.59-9.07-3.54-4.18-6.07-9.11-7.45-14.41-.38-1.47-.42-2.97-.38-4.48.04-1.22.29-2.59,1.25-3.43.83-.73,1.97-.7,2.88-.17.66.4,1.09,1.16,1.39,1.85.31.69.52,1.43.78,2.14.73,1.97,1.21,4.02,1.97,5.98.48,1.15,1.02,2.27,1.61,3.36.64,1.12,1.34,2.19,2.09,3.23.82,1.07,1.69,2.1,2.52,2.96.04.04.09.09.13.13l.03.03c.86.85,1.76,1.65,2.69,2.41,1.14.88,2.33,1.68,3.57,2.42,1.09.61,2.2,1.16,3.35,1.65,1.23.49,2.48.92,3.68,1.26,1.34.36,2.7.61,4.08.8,1.2.13,2.39.21,3.59.22,1.25-.02,2.48-.1,3.72-.24,1.28-.18,2.54-.43,3.79-.74,1.15-.32,2.29-.69,3.41-1.12,1.16-.49,2.3-1.03,3.41-1.63,1.15-.66,2.27-1.39,3.34-2.17,1.06-.81,2.06-1.68,3.02-2.6.93-.94,1.8-1.93,2.62-2.96.76-1.01,1.46-2.05,2.11-3.13.65-1.15,1.23-2.33,1.76-3.54.49-1.21.9-2.44,1.26-3.7.32-1.27.58-2.55.76-3.85.15-1.24.24-2.49.25-3.74-.01-.77-.03-1.54-.09-2.31-.16-1.89,1.39-3.57,3.25-3.7,1.89-.12,3.58,1.36,3.7,3.25.26,4.12-.16,8.21-1.21,12.2-1.45,5.29-4.06,10.21-7.66,14.36-3.41,3.93-7.68,7.11-12.42,9.26-4.71,2.13-9.86,3.26-15.04,3.26-.21.01-.42.01-.63,0Z"/><path d="M788.46,757.04c-5.27-.78-10.43-2.61-15.1-5.16-4.96-2.71-9.51-6.32-13.03-10.76-3.66-4.63-6.26-10.05-6.91-15.96-.52-4.78.39-9.76,2.78-13.95.07-.17.16-.34.26-.51.95-1.52,2.04-2.92,3.17-4.08.23-.24.47-.48.71-.71.29-.28.61-.62.96-.84.67-.4,1.35-.64,2.14-.6.92.05,1.79.46,2.4,1.14,1.28,1.42,1.14,3.62-.25,4.91-.3.28-.59.56-.87.85-.53.57-1.03,1.16-1.51,1.78-.41.58-.79,1.17-1.15,1.79-.29.55-.55,1.11-.79,1.69-.24.64-.45,1.29-.62,1.95-.17.75-.29,1.51-.38,2.27-.04.57-.07,1.13-.08,1.69.03.82.08,1.64.18,2.46.14.84.31,1.67.51,2.5.28.93.59,1.85.95,2.75.49,1.12,1.03,2.2,1.65,3.26.67,1.09,1.39,2.14,2.17,3.15.9,1.1,1.86,2.15,2.87,3.16,1.19,1.13,2.44,2.18,3.74,3.17,1.36.97,2.76,1.87,4.21,2.7,1.63.88,3.31,1.66,5.03,2.35,1.55.58,3.13,1.08,4.73,1.49,1.55.36,3.1.65,4.67.86,1.52.16,3.04.26,4.57.26,1.33-.03,2.64-.12,3.96-.29,1.22-.18,2.42-.43,3.62-.74,1.1-.32,2.17-.69,3.23-1.12.87-.38,1.71-.81,2.53-1.27.75-.46,1.47-.95,2.17-1.48.66-.53,1.28-1.09,1.87-1.69.5-.54.96-1.09,1.41-1.68.36-.51.7-1.04,1.01-1.59.3-.57.57-1.16.83-1.76.25-.68.47-1.37.66-2.07.15-.66.27-1.32.36-1.98.07-.69.1-1.37.11-2.07-.02-.76-.07-1.53-.16-2.29-.15-.92-.33-1.83-.56-2.73-.31-1.05-.68-2.07-1.04-3.1-.4-1.18-.76-2.63-.36-3.87.47-1.46,2.07-2.29,3.53-1.83,1.38.44,2.34,1.72,3.02,2.93.63,1.13,1.05,2.39,1.41,3.63.78,2.7,1.15,5.49,1.07,8.3-.15,5.33-2.29,10.56-5.88,14.48-3.69,4.03-8.59,6.57-13.81,7.97-2.99.81-6.06,1.15-9.14,1.15-2.32,0-4.6-.18-6.85-.51Z"/><path d="M942.1,530.62c.27,1,.49,2.02.66,3.04-8.28,7.44-15.89,15.65-23.94,23.37-8.53,9.3-18.2,17.7-25.92,27.67-4.28,6.64-9.78,12.55-12.94,19.85-.62,1.37-1.48,2.59-2.33,3.82h-.01c-1.91-.45-3.82-.9-5.73-1.34.74-1.47,1.69-2.82,2.61-4.19,2.59-5.5,5.5-10.85,9.05-15.8,7.21-11.57,17.2-20.95,26.77-30.53,4.33-5.11,8.94-9.32,13.56-14.03,2.65-2.99,5.47-5.8,8.49-8.41,2.59-2.24,4.7-5.17,7.5-7.09.25-.19.51-.34.76-.46.08.2.16.4.24.6.47,1.15.9,2.29,1.23,3.5Z"/><path d="M944.14,546.26c.67,10.55.54,21.16-.17,31.71-.75,11.03-2.01,22.04-4.19,32.89-.99,4.92-2.23,9.79-3.79,14.57-.78,2.41-1.68,4.84-2.9,7.08-1.5-.95-3.03-1.86-4.57-2.76-.47-.26-.94-.52-1.42-.77.55-1,1.05-2.02,1.5-3.07.94-2.32,1.69-4.69,2.38-7.09,2.05-7.67,3.38-15.5,4.44-23.36,1.39-10.62,2.12-21.33,2.26-32.03.01-1.32.02-2.64.01-3.49-.03-7.51-.32-15.03-1.28-22.02-.31-2.26-.75-4.51-1.08-6.76,1.43-1.5,2.86-3.01,4.53-4.16.25-.19.51-.34.76-.46.08.2.16.4.24.6.47,1.15.9,2.29,1.23,3.5.68,2.53,1.01,5.18,1.33,7.79.32,2.58.55,5.21.72,7.83Z"/><path d="M698.47,557.1c.03,2.66-.12,5.32-.24,7.97-.11,2.52-.22,5.03-.33,7.54-.47,11.13-.96,22.26-1.43,33.4-.31,7.3-.57,14.61-.87,21.91-2.33,1.41-4.62,2.87-6.86,4.4-.17-.41-.25-.86-.23-1.33.09-1.7.11-3.4.23-5.09.16-2.23.22-4.48.31-6.71.12-2.72.24-5.44.35-8.15.24-5.55.47-11.11.7-16.66.46-10.73.88-21.46,1.34-32.19.15-3.48.48-6.95.84-10.42.25-2.36.31-4.88,1.42-7.02.17-.93.96-1.65,1.94-1.64.99.02,1.88.84,1.92,1.83.65,1.51.71,3.19.75,4.82.09,2.45.13,4.89.16,7.34Z"/></g></svg>